<svg xmlns="http://www.w3.org/2000/svg" width="2000" height="2600" viewBox="0 0 1000 1300"><defs><clipPath id="a"><path d="M152 489h24v24h-24zM152 513h24v24h-24zM152 537h24v24h-24zM152 561h24v24h-24zM152 585h24v24h-24zM152 657h24v24h-24zM152 681h24v24h-24zM152 729h24v24h-24zM176 465h24v24h-24zM176 513h24v24h-24zM176 561h24v24h-24zM176 585h24v24h-24zM176 609h24v24h-24zM176 633h24v24h-24zM176 657h24v24h-24zM176 681h24v24h-24zM176 729h24v24h-24zM200 489h24v24h-24zM200 513h24v24h-24zM200 561h24v24h-24zM200 609h24v24h-24zM200 633h24v24h-24zM224 465h24v24h-24zM224 489h24v24h-24zM224 513h24v24h-24zM224 537h24v24h-24zM224 585h24v24h-24zM224 609h24v24h-24zM224 681h24v24h-24zM224 705h24v24h-24zM224 729h24v24h-24zM248 465h24v24h-24zM248 489h24v24h-24zM248 561h24v24h-24zM248 633h24v24h-24zM248 657h24v24h-24zM248 705h24v24h-24zM248 729h24v24h-24zM272 489h24v24h-24zM272 513h24v24h-24zM272 633h24v24h-24zM272 753h24v24h-24zM296 465h24v24h-24zM296 513h24v24h-24zM296 561h24v24h-24zM296 609h24v24h-24zM296 657h24v24h-24zM296 705h24v24h-24zM296 753h24v24h-24zM320 465h24v24h-24zM320 489h24v24h-24zM320 513h24v24h-24zM320 537h24v24h-24zM320 585h24v24h-24zM320 609h24v24h-24zM344 297h24v24h-24zM344 345h24v24h-24zM344 369h24v24h-24zM344 393h24v24h-24zM344 417h24v24h-24zM344 465h24v24h-24zM344 489h24v24h-24zM344 513h24v24h-24zM344 585h24v24h-24zM344 633h24v24h-24zM344 681h24v24h-24zM344 729h24v24h-24zM344 777h24v24h-24zM344 801h24v24h-24zM344 849h24v24h-24zM344 873h24v24h-24zM344 921h24v24h-24zM368 321h24v24h-24zM368 441h24v24h-24zM368 465h24v24h-24zM368 489h24v24h-24zM368 513h24v24h-24zM368 561h24v24h-24zM368 609h24v24h-24zM368 657h24v24h-24zM368 681h24v24h-24zM368 705h24v24h-24zM368 729h24v24h-24zM368 777h24v24h-24zM368 825h24v24h-24zM368 849h24v24h-24zM368 897h24v24h-24zM368 921h24v24h-24zM392 273h24v24h-24zM392 297h24v24h-24zM392 345h24v24h-24zM392 369h24v24h-24zM392 393h24v24h-24zM392 417h24v24h-24zM392 441h24v24h-24zM392 609h24v24h-24zM392 657h24v24h-24zM392 777h24v24h-24zM392 801h24v24h-24zM392 849h24v24h-24zM392 873h24v24h-24zM416 273h24v24h-24zM416 393h24v24h-24zM416 465h24v24h-24zM416 513h24v24h-24zM416 561h24v24h-24zM416 585h24v24h-24zM416 609h24v24h-24zM416 633h24v24h-24zM416 657h24v24h-24zM416 681h24v24h-24zM416 705h24v24h-24zM416 729h24v24h-24zM416 825h24v24h-24zM416 849h24v24h-24zM416 873h24v24h-24zM416 945h24v24h-24zM440 273h24v24h-24zM440 321h24v24h-24zM440 393h24v24h-24zM440 417h24v24h-24zM440 441h24v24h-24zM440 561h24v24h-24zM440 633h24v24h-24zM440 657h24v24h-24zM440 729h24v24h-24zM440 777h24v24h-24zM440 801h24v24h-24zM440 873h24v24h-24zM440 921h24v24h-24zM464 273h24v24h-24zM464 321h24v24h-24zM464 345h24v24h-24zM464 393h24v24h-24zM464 561h24v24h-24zM464 585h24v24h-24zM464 609h24v24h-24zM464 681h24v24h-24zM464 801h24v24h-24zM464 849h24v24h-24zM464 897h24v24h-24zM464 945h24v24h-24zM488 273h24v24h-24zM488 297h24v24h-24zM488 345h24v24h-24zM488 417h24v24h-24zM488 441h24v24h-24zM488 465h24v24h-24zM488 537h24v24h-24zM488 561h24v24h-24zM488 585h24v24h-24zM488 633h24v24h-24zM488 705h24v24h-24zM488 729h24v24h-24zM488 753h24v24h-24zM488 777h24v24h-24zM488 825h24v24h-24zM488 873h24v24h-24zM488 945h24v24h-24zM512 273h24v24h-24zM512 321h24v24h-24zM512 345h24v24h-24zM512 393h24v24h-24zM512 465h24v24h-24zM512 489h24v24h-24zM512 513h24v24h-24zM512 537h24v24h-24zM512 561h24v24h-24zM512 585h24v24h-24zM512 729h24v24h-24zM512 801h24v24h-24zM512 849h24v24h-24zM512 873h24v24h-24zM512 897h24v24h-24zM536 321h24v24h-24zM536 369h24v24h-24zM536 417h24v24h-24zM536 489h24v24h-24zM536 537h24v24h-24zM536 561h24v24h-24zM536 633h24v24h-24zM536 705h24v24h-24zM536 753h24v24h-24zM536 849h24v24h-24zM536 873h24v24h-24zM536 945h24v24h-24zM560 273h24v24h-24zM560 297h24v24h-24zM560 321h24v24h-24zM560 345h24v24h-24zM560 369h24v24h-24zM560 441h24v24h-24zM560 489h24v24h-24zM560 609h24v24h-24zM560 681h24v24h-24zM560 705h24v24h-24zM560 729h24v24h-24zM560 753h24v24h-24zM560 849h24v24h-24zM560 873h24v24h-24zM560 897h24v24h-24zM584 273h24v24h-24zM584 297h24v24h-24zM584 321h24v24h-24zM584 345h24v24h-24zM584 369h24v24h-24zM584 417h24v24h-24zM584 441h24v24h-24zM584 465h24v24h-24zM584 489h24v24h-24zM584 537h24v24h-24zM584 561h24v24h-24zM584 609h24v24h-24zM584 657h24v24h-24zM584 681h24v24h-24zM584 705h24v24h-24zM584 729h24v24h-24zM584 945h24v24h-24zM608 273h24v24h-24zM608 297h24v24h-24zM608 393h24v24h-24zM608 465h24v24h-24zM608 585h24v24h-24zM608 609h24v24h-24zM608 633h24v24h-24zM608 657h24v24h-24zM608 729h24v24h-24zM608 753h24v24h-24zM608 777h24v24h-24zM608 801h24v24h-24zM608 825h24v24h-24zM608 897h24v24h-24zM608 921h24v24h-24zM608 945h24v24h-24zM632 273h24v24h-24zM632 297h24v24h-24zM632 417h24v24h-24zM632 561h24v24h-24zM632 585h24v24h-24zM632 609h24v24h-24zM632 681h24v24h-24zM632 729h24v24h-24zM632 753h24v24h-24zM632 777h24v24h-24zM632 801h24v24h-24zM632 825h24v24h-24zM632 849h24v24h-24zM632 873h24v24h-24zM632 897h24v24h-24zM656 465h24v24h-24zM656 489h24v24h-24zM656 513h24v24h-24zM656 561h24v24h-24zM656 585h24v24h-24zM656 633h24v24h-24zM656 681h24v24h-24zM656 729h24v24h-24zM656 753h24v24h-24zM656 849h24v24h-24zM656 873h24v24h-24zM656 897h24v24h-24zM680 489h24v24h-24zM680 561h24v24h-24zM680 585h24v24h-24zM680 633h24v24h-24zM680 681h24v24h-24zM680 729h24v24h-24zM680 753h24v24h-24zM680 801h24v24h-24zM680 849h24v24h-24zM680 897h24v24h-24zM680 921h24v24h-24zM704 465h24v24h-24zM704 489h24v24h-24zM704 513h24v24h-24zM704 561h24v24h-24zM704 633h24v24h-24zM704 681h24v24h-24zM704 729h24v24h-24zM704 753h24v24h-24zM704 849h24v24h-24zM704 873h24v24h-24zM704 921h24v24h-24zM704 945h24v24h-24zM728 465h24v24h-24zM728 513h24v24h-24zM728 537h24v24h-24zM728 609h24v24h-24zM728 633h24v24h-24zM728 657h24v24h-24zM728 681h24v24h-24zM728 729h24v24h-24zM728 753h24v24h-24zM728 777h24v24h-24zM728 801h24v24h-24zM728 825h24v24h-24zM728 849h24v24h-24zM728 921h24v24h-24zM752 465h24v24h-24zM752 489h24v24h-24zM752 513h24v24h-24zM752 705h24v24h-24zM752 825h24v24h-24zM752 921h24v24h-24zM776 513h24v24h-24zM776 537h24v24h-24zM776 561h24v24h-24zM776 585h24v24h-24zM776 633h24v24h-24zM776 681h24v24h-24zM776 705h24v24h-24zM776 753h24v24h-24zM776 777h24v24h-24zM776 825h24v24h-24zM776 849h24v24h-24zM776 921h24v24h-24zM776 945h24v24h-24zM800 465h24v24h-24zM800 585h24v24h-24zM800 609h24v24h-24zM800 657h24v24h-24zM800 705h24v24h-24zM800 729h24v24h-24zM800 753h24v24h-24zM800 777h24v24h-24zM800 849h24v24h-24zM800 897h24v24h-24zM800 945h24v24h-24zM824 513h24v24h-24zM824 537h24v24h-24zM824 729h24v24h-24zM824 753h24v24h-24zM824 777h24v24h-24zM824 825h24v24h-24zM824 849h24v24h-24z"/></clipPath><clipPath id="b"><path d="M152 273h24v24h-24zM152 297h24v24h-24zM152 321h24v24h-24zM152 345h24v24h-24zM152 369h24v24h-24zM152 393h24v24h-24zM152 417h24v24h-24zM176 273h24v24h-24zM176 417h24v24h-24zM200 273h24v24h-24zM200 417h24v24h-24zM224 273h24v24h-24zM224 417h24v24h-24zM248 273h24v24h-24zM248 417h24v24h-24zM272 273h24v24h-24zM272 417h24v24h-24zM296 273h24v24h-24zM296 297h24v24h-24zM296 321h24v24h-24zM296 345h24v24h-24zM296 369h24v24h-24zM296 393h24v24h-24zM296 417h24v24h-24z"/></clipPath><clipPath id="c"><path d="M200 321h24v24h-24zM200 345h24v24h-24zM200 369h24v24h-24zM224 321h24v24h-24zM224 345h24v24h-24zM224 369h24v24h-24zM248 321h24v24h-24zM248 345h24v24h-24zM248 369h24v24h-24z"/></clipPath><clipPath id="d"><path d="M680 273h24v24h-24zM680 297h24v24h-24zM680 321h24v24h-24zM680 345h24v24h-24zM680 369h24v24h-24zM680 393h24v24h-24zM680 417h24v24h-24zM704 273h24v24h-24zM704 417h24v24h-24zM728 273h24v24h-24zM728 417h24v24h-24zM752 273h24v24h-24zM752 417h24v24h-24zM776 273h24v24h-24zM776 417h24v24h-24zM800 273h24v24h-24zM800 417h24v24h-24zM824 273h24v24h-24zM824 297h24v24h-24zM824 321h24v24h-24zM824 345h24v24h-24zM824 369h24v24h-24zM824 393h24v24h-24zM824 417h24v24h-24z"/></clipPath><clipPath id="e"><path d="M728 321h24v24h-24zM728 345h24v24h-24zM728 369h24v24h-24zM752 321h24v24h-24zM752 345h24v24h-24zM752 369h24v24h-24zM776 321h24v24h-24zM776 345h24v24h-24zM776 369h24v24h-24z"/></clipPath><clipPath id="f"><path d="M152 801h24v24h-24zM152 825h24v24h-24zM152 849h24v24h-24zM152 873h24v24h-24zM152 897h24v24h-24zM152 921h24v24h-24zM152 945h24v24h-24zM176 801h24v24h-24zM176 945h24v24h-24zM200 801h24v24h-24zM200 945h24v24h-24zM224 801h24v24h-24zM224 945h24v24h-24zM248 801h24v24h-24zM248 945h24v24h-24zM272 801h24v24h-24zM272 945h24v24h-24zM296 801h24v24h-24zM296 825h24v24h-24zM296 849h24v24h-24zM296 873h24v24h-24zM296 897h24v24h-24zM296 921h24v24h-24zM296 945h24v24h-24z"/></clipPath><clipPath id="g"><path d="M200 849h24v24h-24zM200 873h24v24h-24zM200 897h24v24h-24zM224 849h24v24h-24zM224 873h24v24h-24zM224 897h24v24h-24zM248 849h24v24h-24zM248 873h24v24h-24zM248 897h24v24h-24z"/></clipPath></defs><path fill="transparent" d="M0 0h1000v1300H0z"/><path fill="#f489a3" d="M960 165.66v920H40v-920h920m0-40H40c-22.09 0-40 17.91-40 40v920c0 22.09 17.91 40 40 40h920c22.09 0 40-17.91 40-40v-920c0-22.09-17.91-40-40-40z"/><path fill="#f489a3" d="M960 1299.66H40c-22.09 0-40-17.91-40-40v-173h1000v173c0 22.1-17.91 40-40 40z"/><path fill="#fff" d="M699.77 196.66H302.23c-7.31 0-13.23-5.92-13.23-13.23v-48.87c0-37.86 30.69-68.55 68.55-68.55h286.9c37.86 0 68.55 30.69 68.55 68.55v48.87c0 7.31-5.92 13.23-13.23 13.23z"/><circle cx="501" cy="66.34" r="66" fill="#fff"/><circle cx="501" cy="66.34" r="26.23" fill="#FFF"/><text x="50%" y="1193" fill="#f489a3" dominant-baseline="middle" font-family="sans-serif" font-size="100" text-anchor="middle">Scan me!</text><path fill="#fff" d="M106 227h788v788H106z"/><path d="M152 273h696v696H152z" clip-path="url('#a')"/><path d="M152 273h168v168H152z" clip-path="url('#b')"/><path d="M200 321h72v72h-72z" clip-path="url('#c')"/><path d="M680 273h168v168H680z" clip-path="url('#d')"/><path d="M728 321h72v72h-72z" clip-path="url('#e')"/><path d="M152 801h168v168H152z" clip-path="url('#f')"/><path d="M200 849h72v72h-72z" clip-path="url('#g')"/></svg>