<?xml version="1.0" encoding="UTF-8"?>
<svg xmlns="http://www.w3.org/2000/svg" viewBox="0 0 250 100">
  <defs>
    <style>
      .cls-1 {
        fill: #f3d5df;
      }

      .cls-1, .cls-2 {
        stroke: #231f20;
        stroke-miterlimit: 10;
        stroke-width: .5px;
      }

      .cls-2 {
        fill: #e0c08b;
      }
    </style>
  </defs>
  <g id="Layer_1" data-name="Layer 1">
    <g>
      <path class="cls-1" d="M55.3,57.78h5.34c12.9,0,21.31-9.54,21.31-22.01,0-10.37-5.41-16.66-16.94-16.66,0,0-16.59-.81-18.24,1.03-2.13,2.37-6.5,57.06-6.5,57.06l13.3.04,1.73-19.46ZM59.73,33.81h3.06c3.13,0,4.37,1.2,4.37,4.06,0,3.68-2.02,6.46-5.99,6.46h-3.39l1.95-10.52Z"/>
      <path class="cls-1" d="M95.44,74.83c5.08,0,10.82-1.8,14.4-3.98l1.78-11.31-.22-.26c-3.26,2.18-8.59,3.23-11.65,3.23s-4.24-1.43-4.24-4.73v-.9h18.64c.65-2.33,1.17-5.64,1.17-8.49,0-8.34-4.63-14.2-13.68-14.2-12.58,0-20.79,11.8-20.79,25.32,0,9.17,4.43,15.33,14.6,15.33ZM100.91,45.23c1.37,0,1.89,1.05,1.89,3.31,0,.6-.07,1.35-.2,2.18h-6.06c.85-2.93,2.28-5.48,4.37-5.48Z"/>
      <path class="cls-1" d="M135.58,50.11c1.63-1.43,3.13-2.1,4.3-2.1,1.37,0,1.82.98,1.3,3.68l-3.97,21.64h14.66l4.43-23.89c1.82-9.99-1.11-15.25-7.43-15.25-4.63,0-8.6,2.55-12.38,6.76l.46-5.26h-13.36l-6.91,37.64h14.66l4.24-23.22Z"/>
      <path class="cls-1" d="M177.02,50.11c1.63-1.43,3.13-2.1,4.3-2.1,1.37,0,1.82.98,1.3,3.68l-3.97,21.64h14.66l4.43-23.89c1.82-9.99-1.11-15.25-7.43-15.25-4.63,0-8.6,2.55-12.38,6.76l.46-5.26h-13.36l-6.91,37.64h14.66l4.24-23.22Z"/>
      <path class="cls-1" d="M242.61,35.69h-13.94l-4.04,13.6c-.88,3.09-1.93,7.21-2.65,10.3h-.22c.33-3.09.61-7.14.72-10.23l.61-13.67h-13.66l-.28.45,4.26,37.12s-1.7,7.33-4.1,7.84c-2.62.56-175.79.87-178.72,1.24-3.52.44-8.68,9.33-5.97,11.66,2.52,2.17,186.9.65,190.48-.46,3.19-1,7.06-11.34,7.06-11.34l20.68-45.91-.22-.6Z"/>
    </g>
  </g>
  <g id="Layer_2" data-name="Layer 2">
    <polygon class="cls-2" points="27.98 21.53 27.98 30.89 23.01 23.68 14.72 21.94 21.19 17.22 20.52 6.28 25.66 14.4 32.29 14.24 27.98 21.53"/>
    <polygon class="cls-2" points="229.36 21.79 226.08 26.72 225.28 20.71 220.34 16.11 226.31 16.5 229.69 10.46 230.29 17.01 234.79 19.88 229.36 21.79"/>
    <polygon class="cls-2" points="14.04 86.56 10.9 90.34 10.51 85.09 6.4 80.5 11.64 81.62 14.94 76.89 15.12 82.59 18.93 85.64 14.04 86.56"/>
  </g>
</svg>