<?xml version="1.0" encoding="UTF-8"?>
<svg xmlns="http://www.w3.org/2000/svg" xmlns:xlink="http://www.w3.org/1999/xlink" version="1.1" viewBox="0 0 500 500">
  <defs>
    <style>
      .cls-1 {
        clip-path: url(#clippath-1);
      }

      .cls-2 {
        clip-path: url(#clippath-3);
      }

      .cls-3 {
        clip-path: url(#clippath-4);
      }

      .cls-4 {
        clip-path: url(#clippath-2);
      }

      .cls-5 {
        clip-path: url(#clippath-7);
      }

      .cls-6 {
        clip-path: url(#clippath-6);
      }

      .cls-7 {
        clip-path: url(#clippath-8);
      }

      .cls-8 {
        clip-path: url(#clippath-5);
      }

      .cls-9 {
        clip-path: url(#clippath);
      }
    </style>
    <clipPath id="clippath">
      <polygon points="1 1 2 1 1 2 1 1"/>
    </clipPath>
    <clipPath id="clippath-1">
      <polygon class="cls-9" points="-1 -1 -2 -1 -1 -2 -1 -1"/>
    </clipPath>
    <clipPath id="clippath-2">
      <path d="M355,26c0,3.9,3.1,7,7,7h0c-3.9,0-7,3.1-7,7h0c0,3.9,3.1,7,7,7h0c3.9,0,7-3.1,7-7h0c0-3.9-3.1-7-7-7h0c3.9,0,7-3.1,7-7h0c0-3.9-3.1-7-7-7h0c-3.9,0-7,3.1-7,7ZM313,26c0,3.9,3.1,7,7,7h0c-3.9,0-7,3.1-7,7h0c0,3.9,3.1,7,7,7h0c3.9,0,7-3.1,7-7h0c0-3.9-3.1-7-7-7h0c3.9,0,7-3.1,7-7h0c0-3.9-3.1-7-7-7h0c-3.9,0-7,3.1-7,7ZM299,26c0,3.9,3.1,7,7,7h0c-3.9,0-7,3.1-7,7h0c0,3.9,3.1,7,7,7h0c3.9,0,7-3.1,7-7h0c0-3.9-3.1-7-7-7h0c3.9,0,7-3.1,7-7h0c0-3.9-3.1-7-7-7h0c-3.9,0-7,3.1-7,7ZM243,26c0,3.9,3.1,7,7,7h0c3.9,0,7-3.1,7-7h0c0-3.9-3.1-7-7-7h0c-3.9,0-7,3.1-7,7ZM229,26c0,3.9,3.1,7,7,7h0c3.9,0,7-3.1,7-7h0c0-3.9-3.1-7-7-7h0c-3.9,0-7,3.1-7,7ZM215,26c0,3.9,3.1,7,7,7h0c3.9,0,7-3.1,7-7h0c0-3.9-3.1-7-7-7h0c-3.9,0-7,3.1-7,7ZM201,26c0,3.9,3.1,7,7,7h0c-3.9,0-7,3.1-7,7h0c0,3.9,3.1,7,7,7h0c3.9,0,7-3.1,7-7h0c0-3.9-3.1-7-7-7h0c3.9,0,7-3.1,7-7h0c0-3.9-3.1-7-7-7h0c-3.9,0-7,3.1-7,7ZM187,26c0,3.9,3.1,7,7,7h0c-3.9,0-7,3.1-7,7h0c0,3.9,3.1,7,7,7h0c3.9,0,7-3.1,7-7h0c0-3.9-3.1-7-7-7h0c3.9,0,7-3.1,7-7h0c0-3.9-3.1-7-7-7h0c-3.9,0-7,3.1-7,7ZM159,40c0,3.9,3.1,7,7,7h0c-3.9,0-7,3.1-7,7h0c0,3.9,3.1,7,7,7h0c3.9,0,7-3.1,7-7h0c0-3.9-3.1-7-7-7h0c3.9,0,7-3.1,7-7h0c0-3.9-3.1-7-7-7h0c-3.9,0-7,3.1-7,7ZM131,40c0,3.9,3.1,7,7,7h0c3.9,0,7-3.1,7-7h0c0-3.9-3.1-7-7-7h0c-3.9,0-7,3.1-7,7ZM341,54c0,3.9,3.1,7,7,7h0c3.9,0,7-3.1,7-7h0c0-3.9-3.1-7-7-7h0c-3.9,0-7,3.1-7,7ZM285,54c0,3.9,3.1,7,7,7h0c3.9,0,7-3.1,7-7h0c0-3.9-3.1-7-7-7h0c-3.9,0-7,3.1-7,7ZM257,54c0,3.9,3.1,7,7,7h0c3.9,0,7-3.1,7-7h0c0-3.9-3.1-7-7-7h0c-3.9,0-7,3.1-7,7ZM243,54c0,3.9,3.1,7,7,7h0c-3.9,0-7,3.1-7,7h0c0,3.9,3.1,7,7,7h0c-3.9,0-7,3.1-7,7h0c0,3.9,3.1,7,7,7h0c3.9,0,7-3.1,7-7h0c0-3.9-3.1-7-7-7h0c3.9,0,7-3.1,7-7h0c0-3.9-3.1-7-7-7h0c3.9,0,7-3.1,7-7h0c0-3.9-3.1-7-7-7h0c-3.9,0-7,3.1-7,7ZM215,54c0,3.9,3.1,7,7,7h0c3.9,0,7-3.1,7-7h0c0-3.9-3.1-7-7-7h0c-3.9,0-7,3.1-7,7ZM173,54c0,3.9,3.1,7,7,7h0c-3.9,0-7,3.1-7,7h0c0,3.9,3.1,7,7,7h0c3.9,0,7-3.1,7-7h0c0-3.9-3.1-7-7-7h0c3.9,0,7-3.1,7-7h0c0-3.9-3.1-7-7-7h0c-3.9,0-7,3.1-7,7ZM355,68c0,3.9,3.1,7,7,7h0c-3.9,0-7,3.1-7,7h0c0,3.9,3.1,7,7,7h0c3.9,0,7-3.1,7-7h0c0-3.9-3.1-7-7-7h0c3.9,0,7-3.1,7-7h0c0-3.9-3.1-7-7-7h0c-3.9,0-7,3.1-7,7ZM299,68c0,3.9,3.1,7,7,7h0c3.9,0,7-3.1,7-7h0c0-3.9-3.1-7-7-7h0c-3.9,0-7,3.1-7,7ZM271,68c0,3.9,3.1,7,7,7h0c3.9,0,7-3.1,7-7h0c0-3.9-3.1-7-7-7h0c-3.9,0-7,3.1-7,7ZM229,68c0,3.9,3.1,7,7,7h0c-3.9,0-7,3.1-7,7h0c0,3.9,3.1,7,7,7h0c3.9,0,7-3.1,7-7h0c0-3.9-3.1-7-7-7h0c3.9,0,7-3.1,7-7h0c0-3.9-3.1-7-7-7h0c-3.9,0-7,3.1-7,7ZM341,82c0,3.9,3.1,7,7,7h0c-3.9,0-7,3.1-7,7h0c0,3.9,3.1,7,7,7h0c3.9,0,7-3.1,7-7h0c0-3.9-3.1-7-7-7h0c3.9,0,7-3.1,7-7h0c0-3.9-3.1-7-7-7h0c-3.9,0-7,3.1-7,7ZM313,82c0,3.9,3.1,7,7,7h0c-3.9,0-7,3.1-7,7h0c0,3.9,3.1,7,7,7h0c3.9,0,7-3.1,7-7h0c0-3.9-3.1-7-7-7h0c3.9,0,7-3.1,7-7h0c0-3.9-3.1-7-7-7h0c-3.9,0-7,3.1-7,7ZM285,82c0,3.9,3.1,7,7,7h0c-3.9,0-7,3.1-7,7h0c0,3.9,3.1,7,7,7h0c3.9,0,7-3.1,7-7h0c0-3.9-3.1-7-7-7h0c3.9,0,7-3.1,7-7h0c0-3.9-3.1-7-7-7h0c-3.9,0-7,3.1-7,7ZM257,82c0,3.9,3.1,7,7,7h0c3.9,0,7-3.1,7-7h0c0-3.9-3.1-7-7-7h0c-3.9,0-7,3.1-7,7ZM131,82c0,3.9,3.1,7,7,7h0c3.9,0,7-3.1,7-7h0c0-3.9-3.1-7-7-7h0c-3.9,0-7,3.1-7,7ZM215,96c0,3.9,3.1,7,7,7h0c-3.9,0-7,3.1-7,7h0c0,3.9,3.1,7,7,7h0c3.9,0,7-3.1,7-7h0c0-3.9-3.1-7-7-7h0c3.9,0,7-3.1,7-7h0c0-3.9-3.1-7-7-7h0c-3.9,0-7,3.1-7,7ZM173,96c0,3.9,3.1,7,7,7h0c3.9,0,7-3.1,7-7h0c0-3.9-3.1-7-7-7h0c-3.9,0-7,3.1-7,7ZM145,96c0,3.9,3.1,7,7,7h0c3.9,0,7-3.1,7-7h0c0-3.9-3.1-7-7-7h0c-3.9,0-7,3.1-7,7ZM355,110c0,3.9,3.1,7,7,7h0c3.9,0,7-3.1,7-7h0c0-3.9-3.1-7-7-7h0c-3.9,0-7,3.1-7,7ZM327,110c0,3.9,3.1,7,7,7h0c-3.9,0-7,3.1-7,7h0c0,3.9,3.1,7,7,7h0c-3.9,0-7,3.1-7,7h0c0,3.9,3.1,7,7,7h0c-3.9,0-7,3.1-7,7h0c0,3.9,3.1,7,7,7h0c3.9,0,7-3.1,7-7h0c0-3.9-3.1-7-7-7h0c3.9,0,7-3.1,7-7h0c0-3.9-3.1-7-7-7h0c3.9,0,7-3.1,7-7h0c0-3.9-3.1-7-7-7h0c3.9,0,7-3.1,7-7h0c0-3.9-3.1-7-7-7h0c-3.9,0-7,3.1-7,7ZM299,110c0,3.9,3.1,7,7,7h0c-3.9,0-7,3.1-7,7h0c0,3.9,3.1,7,7,7h0c3.9,0,7-3.1,7-7h0c0-3.9-3.1-7-7-7h0c3.9,0,7-3.1,7-7h0c0-3.9-3.1-7-7-7h0c-3.9,0-7,3.1-7,7ZM271,110c0,3.9,3.1,7,7,7h0c3.9,0,7-3.1,7-7h0c0-3.9-3.1-7-7-7h0c-3.9,0-7,3.1-7,7ZM243,110c0,3.9,3.1,7,7,7h0c-3.9,0-7,3.1-7,7h0c0,3.9,3.1,7,7,7h0c3.9,0,7-3.1,7-7h0c0-3.9-3.1-7-7-7h0c3.9,0,7-3.1,7-7h0c0-3.9-3.1-7-7-7h0c-3.9,0-7,3.1-7,7ZM187,110c0,3.9,3.1,7,7,7h0c3.9,0,7-3.1,7-7h0c0-3.9-3.1-7-7-7h0c-3.9,0-7,3.1-7,7ZM159,110c0,3.9,3.1,7,7,7h0c-3.9,0-7,3.1-7,7h0c0,3.9,3.1,7,7,7h0c-3.9,0-7,3.1-7,7h0c0,3.9,3.1,7,7,7h0c3.9,0,7-3.1,7-7h0c0-3.9-3.1-7-7-7h0c3.9,0,7-3.1,7-7h0c0-3.9-3.1-7-7-7h0c3.9,0,7-3.1,7-7h0c0-3.9-3.1-7-7-7h0c-3.9,0-7,3.1-7,7ZM131,110c0,3.9,3.1,7,7,7h0c3.9,0,7-3.1,7-7h0c0-3.9-3.1-7-7-7h0c-3.9,0-7,3.1-7,7ZM313,124c0,3.9,3.1,7,7,7h0c-3.9,0-7,3.1-7,7h0c0,3.9,3.1,7,7,7h0c3.9,0,7-3.1,7-7h0c0-3.9-3.1-7-7-7h0c3.9,0,7-3.1,7-7h0c0-3.9-3.1-7-7-7h0c-3.9,0-7,3.1-7,7ZM229,124c0,3.9,3.1,7,7,7h0c-3.9,0-7,3.1-7,7h0c0,3.9,3.1,7,7,7h0c-3.9,0-7,3.1-7,7h0c0,3.9,3.1,7,7,7h0c3.9,0,7-3.1,7-7h0c0-3.9-3.1-7-7-7h0c3.9,0,7-3.1,7-7h0c0-3.9-3.1-7-7-7h0c3.9,0,7-3.1,7-7h0c0-3.9-3.1-7-7-7h0c-3.9,0-7,3.1-7,7ZM173,124c0,3.9,3.1,7,7,7h0c3.9,0,7-3.1,7-7h0c0-3.9-3.1-7-7-7h0c-3.9,0-7,3.1-7,7ZM145,124c0,3.9,3.1,7,7,7h0c3.9,0,7-3.1,7-7h0c0-3.9-3.1-7-7-7h0c-3.9,0-7,3.1-7,7ZM453,138c0,3.9,3.1,7,7,7h0c-3.9,0-7,3.1-7,7h0c0,3.9,3.1,7,7,7h0c3.9,0,7-3.1,7-7h0c0-3.9-3.1-7-7-7h0c3.9,0,7-3.1,7-7h0c0-3.9-3.1-7-7-7h0c-3.9,0-7,3.1-7,7ZM411,138c0,3.9,3.1,7,7,7h0c-3.9,0-7,3.1-7,7h0c0,3.9,3.1,7,7,7h0c-3.9,0-7,3.1-7,7h0c0,3.9,3.1,7,7,7h0c3.9,0,7-3.1,7-7h0c0-3.9-3.1-7-7-7h0c3.9,0,7-3.1,7-7h0c0-3.9-3.1-7-7-7h0c3.9,0,7-3.1,7-7h0c0-3.9-3.1-7-7-7h0c-3.9,0-7,3.1-7,7ZM369,138c0,3.9,3.1,7,7,7h0c-3.9,0-7,3.1-7,7h0c0,3.9,3.1,7,7,7h0c-3.9,0-7,3.1-7,7h0c0,3.9,3.1,7,7,7h0c-3.9,0-7,3.1-7,7h0c0,3.9,3.1,7,7,7h0c3.9,0,7-3.1,7-7h0c0-3.9-3.1-7-7-7h0c3.9,0,7-3.1,7-7h0c0-3.9-3.1-7-7-7h0c3.9,0,7-3.1,7-7h0c0-3.9-3.1-7-7-7h0c3.9,0,7-3.1,7-7h0c0-3.9-3.1-7-7-7h0c-3.9,0-7,3.1-7,7ZM355,138c0,3.9,3.1,7,7,7h0c3.9,0,7-3.1,7-7h0c0-3.9-3.1-7-7-7h0c-3.9,0-7,3.1-7,7ZM341,138c0,3.9,3.1,7,7,7h0c3.9,0,7-3.1,7-7h0c0-3.9-3.1-7-7-7h0c-3.9,0-7,3.1-7,7ZM201,138c0,3.9,3.1,7,7,7h0c3.9,0,7-3.1,7-7h0c0-3.9-3.1-7-7-7h0c-3.9,0-7,3.1-7,7ZM131,138c0,3.9,3.1,7,7,7h0c3.9,0,7-3.1,7-7h0c0-3.9-3.1-7-7-7h0c-3.9,0-7,3.1-7,7ZM103,138c0,3.9,3.1,7,7,7h0c3.9,0,7-3.1,7-7h0c0-3.9-3.1-7-7-7h0c-3.9,0-7,3.1-7,7ZM89,138c0,3.9,3.1,7,7,7h0c-3.9,0-7,3.1-7,7h0c0,3.9,3.1,7,7,7h0c-3.9,0-7,3.1-7,7h0c0,3.9,3.1,7,7,7h0c-3.9,0-7,3.1-7,7h0c0,3.9,3.1,7,7,7h0c3.9,0,7-3.1,7-7h0c0-3.9-3.1-7-7-7h0c3.9,0,7-3.1,7-7h0c0-3.9-3.1-7-7-7h0c3.9,0,7-3.1,7-7h0c0-3.9-3.1-7-7-7h0c3.9,0,7-3.1,7-7h0c0-3.9-3.1-7-7-7h0c-3.9,0-7,3.1-7,7ZM75,138c0,3.9,3.1,7,7,7h0c3.9,0,7-3.1,7-7h0c0-3.9-3.1-7-7-7h0c-3.9,0-7,3.1-7,7ZM47,138c0,3.9,3.1,7,7,7h0c-3.9,0-7,3.1-7,7h0c0,3.9,3.1,7,7,7h0c-3.9,0-7,3.1-7,7h0c0,3.9,3.1,7,7,7h0c3.9,0,7-3.1,7-7h0c0-3.9-3.1-7-7-7h0c3.9,0,7-3.1,7-7h0c0-3.9-3.1-7-7-7h0c3.9,0,7-3.1,7-7h0c0-3.9-3.1-7-7-7h0c-3.9,0-7,3.1-7,7ZM467,152c0,3.9,3.1,7,7,7h0c3.9,0,7-3.1,7-7h0c0-3.9-3.1-7-7-7h0c-3.9,0-7,3.1-7,7ZM439,152c0,3.9,3.1,7,7,7h0c3.9,0,7-3.1,7-7h0c0-3.9-3.1-7-7-7h0c-3.9,0-7,3.1-7,7ZM425,152c0,3.9,3.1,7,7,7h0c3.9,0,7-3.1,7-7h0c0-3.9-3.1-7-7-7h0c-3.9,0-7,3.1-7,7ZM397,152c0,3.9,3.1,7,7,7h0c3.9,0,7-3.1,7-7h0c0-3.9-3.1-7-7-7h0c-3.9,0-7,3.1-7,7ZM383,152c0,3.9,3.1,7,7,7h0c-3.9,0-7,3.1-7,7h0c0,3.9,3.1,7,7,7h0c-3.9,0-7,3.1-7,7h0c0,3.9,3.1,7,7,7h0c3.9,0,7-3.1,7-7h0c0-3.9-3.1-7-7-7h0c3.9,0,7-3.1,7-7h0c0-3.9-3.1-7-7-7h0c3.9,0,7-3.1,7-7h0c0-3.9-3.1-7-7-7h0c-3.9,0-7,3.1-7,7ZM285,152c0,3.9,3.1,7,7,7h0c-3.9,0-7,3.1-7,7h0c0,3.9,3.1,7,7,7h0c-3.9,0-7,3.1-7,7h0c0,3.9,3.1,7,7,7h0c-3.9,0-7,3.1-7,7h0c0,3.9,3.1,7,7,7h0c-3.9,0-7,3.1-7,7h0c0,3.9,3.1,7,7,7h0c-3.9,0-7,3.1-7,7h0c0,3.9,3.1,7,7,7h0c-3.9,0-7,3.1-7,7h0c0,3.9,3.1,7,7,7h0c-3.9,0-7,3.1-7,7h0c0,3.9,3.1,7,7,7h0c-3.9,0-7,3.1-7,7h0c0,3.9,3.1,7,7,7h0c-3.9,0-7,3.1-7,7h0c0,3.9,3.1,7,7,7h0c-3.9,0-7,3.1-7,7h0c0,3.9,3.1,7,7,7h0c-3.9,0-7,3.1-7,7h0c0,3.9,3.1,7,7,7h0c-3.9,0-7,3.1-7,7h0c0,3.9,3.1,7,7,7h0c3.9,0,7-3.1,7-7h0c0-3.9-3.1-7-7-7h0c3.9,0,7-3.1,7-7h0c0-3.9-3.1-7-7-7h0c3.9,0,7-3.1,7-7h0c0-3.9-3.1-7-7-7h0c3.9,0,7-3.1,7-7h0c0-3.9-3.1-7-7-7h0c3.9,0,7-3.1,7-7h0c0-3.9-3.1-7-7-7h0c3.9,0,7-3.1,7-7h0c0-3.9-3.1-7-7-7h0c3.9,0,7-3.1,7-7h0c0-3.9-3.1-7-7-7h0c3.9,0,7-3.1,7-7h0c0-3.9-3.1-7-7-7h0c3.9,0,7-3.1,7-7h0c0-3.9-3.1-7-7-7h0c3.9,0,7-3.1,7-7h0c0-3.9-3.1-7-7-7h0c3.9,0,7-3.1,7-7h0c0-3.9-3.1-7-7-7h0c3.9,0,7-3.1,7-7h0c0-3.9-3.1-7-7-7h0c3.9,0,7-3.1,7-7h0c0-3.9-3.1-7-7-7h0c-3.9,0-7,3.1-7,7ZM271,152c0,3.9,3.1,7,7,7h0c-3.9,0-7,3.1-7,7h0c0,3.9,3.1,7,7,7h0c-3.9,0-7,3.1-7,7h0c0,3.9,3.1,7,7,7h0c-3.9,0-7,3.1-7,7h0c0,3.9,3.1,7,7,7h0c-3.9,0-7,3.1-7,7h0c0,3.9,3.1,7,7,7h0c3.9,0,7-3.1,7-7h0c0-3.9-3.1-7-7-7h0c3.9,0,7-3.1,7-7h0c0-3.9-3.1-7-7-7h0c3.9,0,7-3.1,7-7h0c0-3.9-3.1-7-7-7h0c3.9,0,7-3.1,7-7h0c0-3.9-3.1-7-7-7h0c3.9,0,7-3.1,7-7h0c0-3.9-3.1-7-7-7h0c-3.9,0-7,3.1-7,7ZM215,152c0,3.9,3.1,7,7,7h0c-3.9,0-7,3.1-7,7h0c0,3.9,3.1,7,7,7h0c-3.9,0-7,3.1-7,7h0c0,3.9,3.1,7,7,7h0c3.9,0,7-3.1,7-7h0c0-3.9-3.1-7-7-7h0c3.9,0,7-3.1,7-7h0c0-3.9-3.1-7-7-7h0c3.9,0,7-3.1,7-7h0c0-3.9-3.1-7-7-7h0c-3.9,0-7,3.1-7,7ZM145,152c0,3.9,3.1,7,7,7h0c-3.9,0-7,3.1-7,7h0c0,3.9,3.1,7,7,7h0c3.9,0,7-3.1,7-7h0c0-3.9-3.1-7-7-7h0c3.9,0,7-3.1,7-7h0c0-3.9-3.1-7-7-7h0c-3.9,0-7,3.1-7,7ZM33,152c0,3.9,3.1,7,7,7h0c3.9,0,7-3.1,7-7h0c0-3.9-3.1-7-7-7h0c-3.9,0-7,3.1-7,7ZM355,166c0,3.9,3.1,7,7,7h0c3.9,0,7-3.1,7-7h0c0-3.9-3.1-7-7-7h0c-3.9,0-7,3.1-7,7ZM341,166c0,3.9,3.1,7,7,7h0c-3.9,0-7,3.1-7,7h0c0,3.9,3.1,7,7,7h0c3.9,0,7-3.1,7-7h0c0-3.9-3.1-7-7-7h0c3.9,0,7-3.1,7-7h0c0-3.9-3.1-7-7-7h0c-3.9,0-7,3.1-7,7ZM257,166c0,3.9,3.1,7,7,7h0c3.9,0,7-3.1,7-7h0c0-3.9-3.1-7-7-7h0c-3.9,0-7,3.1-7,7ZM117,166c0,3.9,3.1,7,7,7h0c3.9,0,7-3.1,7-7h0c0-3.9-3.1-7-7-7h0c-3.9,0-7,3.1-7,7ZM103,166c0,3.9,3.1,7,7,7h0c3.9,0,7-3.1,7-7h0c0-3.9-3.1-7-7-7h0c-3.9,0-7,3.1-7,7ZM61,166c0,3.9,3.1,7,7,7h0c3.9,0,7-3.1,7-7h0c0-3.9-3.1-7-7-7h0c-3.9,0-7,3.1-7,7ZM467,180c0,3.9,3.1,7,7,7h0c-3.9,0-7,3.1-7,7h0c0,3.9,3.1,7,7,7h0c3.9,0,7-3.1,7-7h0c0-3.9-3.1-7-7-7h0c3.9,0,7-3.1,7-7h0c0-3.9-3.1-7-7-7h0c-3.9,0-7,3.1-7,7ZM327,180c0,3.9,3.1,7,7,7h0c3.9,0,7-3.1,7-7h0c0-3.9-3.1-7-7-7h0c-3.9,0-7,3.1-7,7ZM313,180c0,3.9,3.1,7,7,7h0c3.9,0,7-3.1,7-7h0c0-3.9-3.1-7-7-7h0c-3.9,0-7,3.1-7,7ZM299,180c0,3.9,3.1,7,7,7h0c-3.9,0-7,3.1-7,7h0c0,3.9,3.1,7,7,7h0c-3.9,0-7,3.1-7,7h0c0,3.9,3.1,7,7,7h0c3.9,0,7-3.1,7-7h0c0-3.9-3.1-7-7-7h0c3.9,0,7-3.1,7-7h0c0-3.9-3.1-7-7-7h0c3.9,0,7-3.1,7-7h0c0-3.9-3.1-7-7-7h0c-3.9,0-7,3.1-7,7ZM75,180c0,3.9,3.1,7,7,7h0c-3.9,0-7,3.1-7,7h0c0,3.9,3.1,7,7,7h0c3.9,0,7-3.1,7-7h0c0-3.9-3.1-7-7-7h0c3.9,0,7-3.1,7-7h0c0-3.9-3.1-7-7-7h0c-3.9,0-7,3.1-7,7ZM33,180c0,3.9,3.1,7,7,7h0c-3.9,0-7,3.1-7,7h0c0,3.9,3.1,7,7,7h0c3.9,0,7-3.1,7-7h0c0-3.9-3.1-7-7-7h0c3.9,0,7-3.1,7-7h0c0-3.9-3.1-7-7-7h0c-3.9,0-7,3.1-7,7ZM453,194c0,3.9,3.1,7,7,7h0c3.9,0,7-3.1,7-7h0c0-3.9-3.1-7-7-7h0c-3.9,0-7,3.1-7,7ZM439,194c0,3.9,3.1,7,7,7h0c-3.9,0-7,3.1-7,7h0c0,3.9,3.1,7,7,7h0c3.9,0,7-3.1,7-7h0c0-3.9-3.1-7-7-7h0c3.9,0,7-3.1,7-7h0c0-3.9-3.1-7-7-7h0c-3.9,0-7,3.1-7,7ZM411,194c0,3.9,3.1,7,7,7h0c3.9,0,7-3.1,7-7h0c0-3.9-3.1-7-7-7h0c-3.9,0-7,3.1-7,7ZM355,194c0,3.9,3.1,7,7,7h0c3.9,0,7-3.1,7-7h0c0-3.9-3.1-7-7-7h0c-3.9,0-7,3.1-7,7ZM243,194c0,3.9,3.1,7,7,7h0c3.9,0,7-3.1,7-7h0c0-3.9-3.1-7-7-7h0c-3.9,0-7,3.1-7,7ZM201,194c0,3.9,3.1,7,7,7h0c3.9,0,7-3.1,7-7h0c0-3.9-3.1-7-7-7h0c-3.9,0-7,3.1-7,7ZM145,194c0,3.9,3.1,7,7,7h0c-3.9,0-7,3.1-7,7h0c0,3.9,3.1,7,7,7h0c-3.9,0-7,3.1-7,7h0c0,3.9,3.1,7,7,7h0c-3.9,0-7,3.1-7,7h0c0,3.9,3.1,7,7,7h0c3.9,0,7-3.1,7-7h0c0-3.9-3.1-7-7-7h0c3.9,0,7-3.1,7-7h0c0-3.9-3.1-7-7-7h0c3.9,0,7-3.1,7-7h0c0-3.9-3.1-7-7-7h0c3.9,0,7-3.1,7-7h0c0-3.9-3.1-7-7-7h0c-3.9,0-7,3.1-7,7ZM131,194c0,3.9,3.1,7,7,7h0c-3.9,0-7,3.1-7,7h0c0,3.9,3.1,7,7,7h0c-3.9,0-7,3.1-7,7h0c0,3.9,3.1,7,7,7h0c3.9,0,7-3.1,7-7h0c0-3.9-3.1-7-7-7h0c3.9,0,7-3.1,7-7h0c0-3.9-3.1-7-7-7h0c3.9,0,7-3.1,7-7h0c0-3.9-3.1-7-7-7h0c-3.9,0-7,3.1-7,7ZM117,194c0,3.9,3.1,7,7,7h0c3.9,0,7-3.1,7-7h0c0-3.9-3.1-7-7-7h0c-3.9,0-7,3.1-7,7ZM103,194c0,3.9,3.1,7,7,7h0c3.9,0,7-3.1,7-7h0c0-3.9-3.1-7-7-7h0c-3.9,0-7,3.1-7,7ZM61,194c0,3.9,3.1,7,7,7h0c-3.9,0-7,3.1-7,7h0c0,3.9,3.1,7,7,7h0c3.9,0,7-3.1,7-7h0c0-3.9-3.1-7-7-7h0c3.9,0,7-3.1,7-7h0c0-3.9-3.1-7-7-7h0c-3.9,0-7,3.1-7,7ZM47,194c0,3.9,3.1,7,7,7h0c3.9,0,7-3.1,7-7h0c0-3.9-3.1-7-7-7h0c-3.9,0-7,3.1-7,7ZM397,208c0,3.9,3.1,7,7,7h0c3.9,0,7-3.1,7-7h0c0-3.9-3.1-7-7-7h0c-3.9,0-7,3.1-7,7ZM369,208c0,3.9,3.1,7,7,7h0c3.9,0,7-3.1,7-7h0c0-3.9-3.1-7-7-7h0c-3.9,0-7,3.1-7,7ZM313,208c0,3.9,3.1,7,7,7h0c3.9,0,7-3.1,7-7h0c0-3.9-3.1-7-7-7h0c-3.9,0-7,3.1-7,7ZM229,208c0,3.9,3.1,7,7,7h0c3.9,0,7-3.1,7-7h0c0-3.9-3.1-7-7-7h0c-3.9,0-7,3.1-7,7ZM215,208c0,3.9,3.1,7,7,7h0c3.9,0,7-3.1,7-7h0c0-3.9-3.1-7-7-7h0c-3.9,0-7,3.1-7,7ZM89,208c0,3.9,3.1,7,7,7h0c3.9,0,7-3.1,7-7h0c0-3.9-3.1-7-7-7h0c-3.9,0-7,3.1-7,7ZM19,208c0,3.9,3.1,7,7,7h0c-3.9,0-7,3.1-7,7h0c0,3.9,3.1,7,7,7h0c3.9,0,7-3.1,7-7h0c0-3.9-3.1-7-7-7h0c3.9,0,7-3.1,7-7h0c0-3.9-3.1-7-7-7h0c-3.9,0-7,3.1-7,7ZM467,222c0,3.9,3.1,7,7,7h0c3.9,0,7-3.1,7-7h0c0-3.9-3.1-7-7-7h0c-3.9,0-7,3.1-7,7ZM383,222c0,3.9,3.1,7,7,7h0c-3.9,0-7,3.1-7,7h0c0,3.9,3.1,7,7,7h0c-3.9,0-7,3.1-7,7h0c0,3.9,3.1,7,7,7h0c3.9,0,7-3.1,7-7h0c0-3.9-3.1-7-7-7h0c3.9,0,7-3.1,7-7h0c0-3.9-3.1-7-7-7h0c3.9,0,7-3.1,7-7h0c0-3.9-3.1-7-7-7h0c-3.9,0-7,3.1-7,7ZM355,222c0,3.9,3.1,7,7,7h0c-3.9,0-7,3.1-7,7h0c0,3.9,3.1,7,7,7h0c3.9,0,7-3.1,7-7h0c0-3.9-3.1-7-7-7h0c3.9,0,7-3.1,7-7h0c0-3.9-3.1-7-7-7h0c-3.9,0-7,3.1-7,7ZM341,222c0,3.9,3.1,7,7,7h0c-3.9,0-7,3.1-7,7h0c0,3.9,3.1,7,7,7h0c3.9,0,7-3.1,7-7h0c0-3.9-3.1-7-7-7h0c3.9,0,7-3.1,7-7h0c0-3.9-3.1-7-7-7h0c-3.9,0-7,3.1-7,7ZM327,222c0,3.9,3.1,7,7,7h0c-3.9,0-7,3.1-7,7h0c0,3.9,3.1,7,7,7h0c3.9,0,7-3.1,7-7h0c0-3.9-3.1-7-7-7h0c3.9,0,7-3.1,7-7h0c0-3.9-3.1-7-7-7h0c-3.9,0-7,3.1-7,7ZM257,222c0,3.9,3.1,7,7,7h0c-3.9,0-7,3.1-7,7h0c0,3.9,3.1,7,7,7h0c-3.9,0-7,3.1-7,7h0c0,3.9,3.1,7,7,7h0c-3.9,0-7,3.1-7,7h0c0,3.9,3.1,7,7,7h0c-3.9,0-7,3.1-7,7h0c0,3.9,3.1,7,7,7h0c3.9,0,7-3.1,7-7h0c0-3.9-3.1-7-7-7h0c3.9,0,7-3.1,7-7h0c0-3.9-3.1-7-7-7h0c3.9,0,7-3.1,7-7h0c0-3.9-3.1-7-7-7h0c3.9,0,7-3.1,7-7h0c0-3.9-3.1-7-7-7h0c3.9,0,7-3.1,7-7h0c0-3.9-3.1-7-7-7h0c-3.9,0-7,3.1-7,7ZM243,222c0,3.9,3.1,7,7,7h0c-3.9,0-7,3.1-7,7h0c0,3.9,3.1,7,7,7h0c-3.9,0-7,3.1-7,7h0c0,3.9,3.1,7,7,7h0c-3.9,0-7,3.1-7,7h0c0,3.9,3.1,7,7,7h0c3.9,0,7-3.1,7-7h0c0-3.9-3.1-7-7-7h0c3.9,0,7-3.1,7-7h0c0-3.9-3.1-7-7-7h0c3.9,0,7-3.1,7-7h0c0-3.9-3.1-7-7-7h0c3.9,0,7-3.1,7-7h0c0-3.9-3.1-7-7-7h0c-3.9,0-7,3.1-7,7ZM187,222c0,3.9,3.1,7,7,7h0c-3.9,0-7,3.1-7,7h0c0,3.9,3.1,7,7,7h0c-3.9,0-7,3.1-7,7h0c0,3.9,3.1,7,7,7h0c3.9,0,7-3.1,7-7h0c0-3.9-3.1-7-7-7h0c3.9,0,7-3.1,7-7h0c0-3.9-3.1-7-7-7h0c3.9,0,7-3.1,7-7h0c0-3.9-3.1-7-7-7h0c-3.9,0-7,3.1-7,7ZM173,222c0,3.9,3.1,7,7,7h0c-3.9,0-7,3.1-7,7h0c0,3.9,3.1,7,7,7h0c3.9,0,7-3.1,7-7h0c0-3.9-3.1-7-7-7h0c3.9,0,7-3.1,7-7h0c0-3.9-3.1-7-7-7h0c-3.9,0-7,3.1-7,7ZM159,222c0,3.9,3.1,7,7,7h0c-3.9,0-7,3.1-7,7h0c0,3.9,3.1,7,7,7h0c-3.9,0-7,3.1-7,7h0c0,3.9,3.1,7,7,7h0c3.9,0,7-3.1,7-7h0c0-3.9-3.1-7-7-7h0c3.9,0,7-3.1,7-7h0c0-3.9-3.1-7-7-7h0c3.9,0,7-3.1,7-7h0c0-3.9-3.1-7-7-7h0c-3.9,0-7,3.1-7,7ZM117,222c0,3.9,3.1,7,7,7h0c-3.9,0-7,3.1-7,7h0c0,3.9,3.1,7,7,7h0c3.9,0,7-3.1,7-7h0c0-3.9-3.1-7-7-7h0c3.9,0,7-3.1,7-7h0c0-3.9-3.1-7-7-7h0c-3.9,0-7,3.1-7,7ZM103,222c0,3.9,3.1,7,7,7h0c3.9,0,7-3.1,7-7h0c0-3.9-3.1-7-7-7h0c-3.9,0-7,3.1-7,7ZM75,222c0,3.9,3.1,7,7,7h0c3.9,0,7-3.1,7-7h0c0-3.9-3.1-7-7-7h0c-3.9,0-7,3.1-7,7ZM47,222c0,3.9,3.1,7,7,7h0c3.9,0,7-3.1,7-7h0c0-3.9-3.1-7-7-7h0c-3.9,0-7,3.1-7,7ZM453,236c0,3.9,3.1,7,7,7h0c3.9,0,7-3.1,7-7h0c0-3.9-3.1-7-7-7h0c-3.9,0-7,3.1-7,7ZM439,236c0,3.9,3.1,7,7,7h0c3.9,0,7-3.1,7-7h0c0-3.9-3.1-7-7-7h0c-3.9,0-7,3.1-7,7ZM425,236c0,3.9,3.1,7,7,7h0c-3.9,0-7,3.1-7,7h0c0,3.9,3.1,7,7,7h0c-3.9,0-7,3.1-7,7h0c0,3.9,3.1,7,7,7h0c-3.9,0-7,3.1-7,7h0c0,3.9,3.1,7,7,7h0c-3.9,0-7,3.1-7,7h0c0,3.9,3.1,7,7,7h0c-3.9,0-7,3.1-7,7h0c0,3.9,3.1,7,7,7h0c3.9,0,7-3.1,7-7h0c0-3.9-3.1-7-7-7h0c3.9,0,7-3.1,7-7h0c0-3.9-3.1-7-7-7h0c3.9,0,7-3.1,7-7h0c0-3.9-3.1-7-7-7h0c3.9,0,7-3.1,7-7h0c0-3.9-3.1-7-7-7h0c3.9,0,7-3.1,7-7h0c0-3.9-3.1-7-7-7h0c3.9,0,7-3.1,7-7h0c0-3.9-3.1-7-7-7h0c-3.9,0-7,3.1-7,7ZM397,236c0,3.9,3.1,7,7,7h0c-3.9,0-7,3.1-7,7h0c0,3.9,3.1,7,7,7h0c3.9,0,7-3.1,7-7h0c0-3.9-3.1-7-7-7h0c3.9,0,7-3.1,7-7h0c0-3.9-3.1-7-7-7h0c-3.9,0-7,3.1-7,7ZM369,236c0,3.9,3.1,7,7,7h0c3.9,0,7-3.1,7-7h0c0-3.9-3.1-7-7-7h0c-3.9,0-7,3.1-7,7ZM313,236c0,3.9,3.1,7,7,7h0c-3.9,0-7,3.1-7,7h0c0,3.9,3.1,7,7,7h0c3.9,0,7-3.1,7-7h0c0-3.9-3.1-7-7-7h0c3.9,0,7-3.1,7-7h0c0-3.9-3.1-7-7-7h0c-3.9,0-7,3.1-7,7ZM271,236c0,3.9,3.1,7,7,7h0c-3.9,0-7,3.1-7,7h0c0,3.9,3.1,7,7,7h0c3.9,0,7-3.1,7-7h0c0-3.9-3.1-7-7-7h0c3.9,0,7-3.1,7-7h0c0-3.9-3.1-7-7-7h0c-3.9,0-7,3.1-7,7ZM229,236c0,3.9,3.1,7,7,7h0c-3.9,0-7,3.1-7,7h0c0,3.9,3.1,7,7,7h0c-3.9,0-7,3.1-7,7h0c0,3.9,3.1,7,7,7h0c-3.9,0-7,3.1-7,7h0c0,3.9,3.1,7,7,7h0c3.9,0,7-3.1,7-7h0c0-3.9-3.1-7-7-7h0c3.9,0,7-3.1,7-7h0c0-3.9-3.1-7-7-7h0c3.9,0,7-3.1,7-7h0c0-3.9-3.1-7-7-7h0c3.9,0,7-3.1,7-7h0c0-3.9-3.1-7-7-7h0c-3.9,0-7,3.1-7,7ZM89,236c0,3.9,3.1,7,7,7h0c3.9,0,7-3.1,7-7h0c0-3.9-3.1-7-7-7h0c-3.9,0-7,3.1-7,7ZM33,236c0,3.9,3.1,7,7,7h0c3.9,0,7-3.1,7-7h0c0-3.9-3.1-7-7-7h0c-3.9,0-7,3.1-7,7ZM467,250c0,3.9,3.1,7,7,7h0c-3.9,0-7,3.1-7,7h0c0,3.9,3.1,7,7,7h0c3.9,0,7-3.1,7-7h0c0-3.9-3.1-7-7-7h0c3.9,0,7-3.1,7-7h0c0-3.9-3.1-7-7-7h0c-3.9,0-7,3.1-7,7ZM411,250c0,3.9,3.1,7,7,7h0c3.9,0,7-3.1,7-7h0c0-3.9-3.1-7-7-7h0c-3.9,0-7,3.1-7,7ZM215,250c0,3.9,3.1,7,7,7h0c3.9,0,7-3.1,7-7h0c0-3.9-3.1-7-7-7h0c-3.9,0-7,3.1-7,7ZM201,250c0,3.9,3.1,7,7,7h0c-3.9,0-7,3.1-7,7h0c0,3.9,3.1,7,7,7h0c-3.9,0-7,3.1-7,7h0c0,3.9,3.1,7,7,7h0c-3.9,0-7,3.1-7,7h0c0,3.9,3.1,7,7,7h0c-3.9,0-7,3.1-7,7h0c0,3.9,3.1,7,7,7h0c3.9,0,7-3.1,7-7h0c0-3.9-3.1-7-7-7h0c3.9,0,7-3.1,7-7h0c0-3.9-3.1-7-7-7h0c3.9,0,7-3.1,7-7h0c0-3.9-3.1-7-7-7h0c3.9,0,7-3.1,7-7h0c0-3.9-3.1-7-7-7h0c3.9,0,7-3.1,7-7h0c0-3.9-3.1-7-7-7h0c-3.9,0-7,3.1-7,7ZM131,250c0,3.9,3.1,7,7,7h0c-3.9,0-7,3.1-7,7h0c0,3.9,3.1,7,7,7h0c-3.9,0-7,3.1-7,7h0c0,3.9,3.1,7,7,7h0c3.9,0,7-3.1,7-7h0c0-3.9-3.1-7-7-7h0c3.9,0,7-3.1,7-7h0c0-3.9-3.1-7-7-7h0c3.9,0,7-3.1,7-7h0c0-3.9-3.1-7-7-7h0c-3.9,0-7,3.1-7,7ZM103,250c0,3.9,3.1,7,7,7h0c3.9,0,7-3.1,7-7h0c0-3.9-3.1-7-7-7h0c-3.9,0-7,3.1-7,7ZM75,250c0,3.9,3.1,7,7,7h0c3.9,0,7-3.1,7-7h0c0-3.9-3.1-7-7-7h0c-3.9,0-7,3.1-7,7ZM439,264c0,3.9,3.1,7,7,7h0c-3.9,0-7,3.1-7,7h0c0,3.9,3.1,7,7,7h0c3.9,0,7-3.1,7-7h0c0-3.9-3.1-7-7-7h0c3.9,0,7-3.1,7-7h0c0-3.9-3.1-7-7-7h0c-3.9,0-7,3.1-7,7ZM341,264c0,3.9,3.1,7,7,7h0c3.9,0,7-3.1,7-7h0c0-3.9-3.1-7-7-7h0c-3.9,0-7,3.1-7,7ZM327,264c0,3.9,3.1,7,7,7h0c3.9,0,7-3.1,7-7h0c0-3.9-3.1-7-7-7h0c-3.9,0-7,3.1-7,7ZM145,264c0,3.9,3.1,7,7,7h0c-3.9,0-7,3.1-7,7h0c0,3.9,3.1,7,7,7h0c3.9,0,7-3.1,7-7h0c0-3.9-3.1-7-7-7h0c3.9,0,7-3.1,7-7h0c0-3.9-3.1-7-7-7h0c-3.9,0-7,3.1-7,7ZM117,264c0,3.9,3.1,7,7,7h0c-3.9,0-7,3.1-7,7h0c0,3.9,3.1,7,7,7h0c-3.9,0-7,3.1-7,7h0c0,3.9,3.1,7,7,7h0c-3.9,0-7,3.1-7,7h0c0,3.9,3.1,7,7,7h0c-3.9,0-7,3.1-7,7h0c0,3.9,3.1,7,7,7h0c-3.9,0-7,3.1-7,7h0c0,3.9,3.1,7,7,7h0c3.9,0,7-3.1,7-7h0c0-3.9-3.1-7-7-7h0c3.9,0,7-3.1,7-7h0c0-3.9-3.1-7-7-7h0c3.9,0,7-3.1,7-7h0c0-3.9-3.1-7-7-7h0c3.9,0,7-3.1,7-7h0c0-3.9-3.1-7-7-7h0c3.9,0,7-3.1,7-7h0c0-3.9-3.1-7-7-7h0c3.9,0,7-3.1,7-7h0c0-3.9-3.1-7-7-7h0c-3.9,0-7,3.1-7,7ZM89,264c0,3.9,3.1,7,7,7h0c3.9,0,7-3.1,7-7h0c0-3.9-3.1-7-7-7h0c-3.9,0-7,3.1-7,7ZM61,264c0,3.9,3.1,7,7,7h0c3.9,0,7-3.1,7-7h0c0-3.9-3.1-7-7-7h0c-3.9,0-7,3.1-7,7ZM47,264c0,3.9,3.1,7,7,7h0c-3.9,0-7,3.1-7,7h0c0,3.9,3.1,7,7,7h0c-3.9,0-7,3.1-7,7h0c0,3.9,3.1,7,7,7h0c3.9,0,7-3.1,7-7h0c0-3.9-3.1-7-7-7h0c3.9,0,7-3.1,7-7h0c0-3.9-3.1-7-7-7h0c3.9,0,7-3.1,7-7h0c0-3.9-3.1-7-7-7h0c-3.9,0-7,3.1-7,7ZM453,278c0,3.9,3.1,7,7,7h0c3.9,0,7-3.1,7-7h0c0-3.9-3.1-7-7-7h0c-3.9,0-7,3.1-7,7ZM369,278c0,3.9,3.1,7,7,7h0c3.9,0,7-3.1,7-7h0c0-3.9-3.1-7-7-7h0c-3.9,0-7,3.1-7,7ZM215,278c0,3.9,3.1,7,7,7h0c3.9,0,7-3.1,7-7h0c0-3.9-3.1-7-7-7h0c-3.9,0-7,3.1-7,7ZM159,278c0,3.9,3.1,7,7,7h0c3.9,0,7-3.1,7-7h0c0-3.9-3.1-7-7-7h0c-3.9,0-7,3.1-7,7ZM103,278c0,3.9,3.1,7,7,7h0c3.9,0,7-3.1,7-7h0c0-3.9-3.1-7-7-7h0c-3.9,0-7,3.1-7,7ZM33,278c0,3.9,3.1,7,7,7h0c-3.9,0-7,3.1-7,7h0c0,3.9,3.1,7,7,7h0c-3.9,0-7,3.1-7,7h0c0,3.9,3.1,7,7,7h0c3.9,0,7-3.1,7-7h0c0-3.9-3.1-7-7-7h0c3.9,0,7-3.1,7-7h0c0-3.9-3.1-7-7-7h0c3.9,0,7-3.1,7-7h0c0-3.9-3.1-7-7-7h0c-3.9,0-7,3.1-7,7ZM19,278c0,3.9,3.1,7,7,7h0c3.9,0,7-3.1,7-7h0c0-3.9-3.1-7-7-7h0c-3.9,0-7,3.1-7,7ZM467,292c0,3.9,3.1,7,7,7h0c-3.9,0-7,3.1-7,7h0c0,3.9,3.1,7,7,7h0c-3.9,0-7,3.1-7,7h0c0,3.9,3.1,7,7,7h0c-3.9,0-7,3.1-7,7h0c0,3.9,3.1,7,7,7h0c3.9,0,7-3.1,7-7h0c0-3.9-3.1-7-7-7h0c3.9,0,7-3.1,7-7h0c0-3.9-3.1-7-7-7h0c3.9,0,7-3.1,7-7h0c0-3.9-3.1-7-7-7h0c3.9,0,7-3.1,7-7h0c0-3.9-3.1-7-7-7h0c-3.9,0-7,3.1-7,7ZM341,292c0,3.9,3.1,7,7,7h0c-3.9,0-7,3.1-7,7h0c0,3.9,3.1,7,7,7h0c-3.9,0-7,3.1-7,7h0c0,3.9,3.1,7,7,7h0c3.9,0,7-3.1,7-7h0c0-3.9-3.1-7-7-7h0c3.9,0,7-3.1,7-7h0c0-3.9-3.1-7-7-7h0c3.9,0,7-3.1,7-7h0c0-3.9-3.1-7-7-7h0c-3.9,0-7,3.1-7,7ZM327,292c0,3.9,3.1,7,7,7h0c3.9,0,7-3.1,7-7h0c0-3.9-3.1-7-7-7h0c-3.9,0-7,3.1-7,7ZM313,292c0,3.9,3.1,7,7,7h0c3.9,0,7-3.1,7-7h0c0-3.9-3.1-7-7-7h0c-3.9,0-7,3.1-7,7ZM243,292c0,3.9,3.1,7,7,7h0c-3.9,0-7,3.1-7,7h0c0,3.9,3.1,7,7,7h0c-3.9,0-7,3.1-7,7h0c0,3.9,3.1,7,7,7h0c-3.9,0-7,3.1-7,7h0c0,3.9,3.1,7,7,7h0c3.9,0,7-3.1,7-7h0c0-3.9-3.1-7-7-7h0c3.9,0,7-3.1,7-7h0c0-3.9-3.1-7-7-7h0c3.9,0,7-3.1,7-7h0c0-3.9-3.1-7-7-7h0c3.9,0,7-3.1,7-7h0c0-3.9-3.1-7-7-7h0c-3.9,0-7,3.1-7,7ZM173,292c0,3.9,3.1,7,7,7h0c-3.9,0-7,3.1-7,7h0c0,3.9,3.1,7,7,7h0c3.9,0,7-3.1,7-7h0c0-3.9-3.1-7-7-7h0c3.9,0,7-3.1,7-7h0c0-3.9-3.1-7-7-7h0c-3.9,0-7,3.1-7,7ZM75,292c0,3.9,3.1,7,7,7h0c3.9,0,7-3.1,7-7h0c0-3.9-3.1-7-7-7h0c-3.9,0-7,3.1-7,7ZM439,306c0,3.9,3.1,7,7,7h0c3.9,0,7-3.1,7-7h0c0-3.9-3.1-7-7-7h0c-3.9,0-7,3.1-7,7ZM383,306c0,3.9,3.1,7,7,7h0c3.9,0,7-3.1,7-7h0c0-3.9-3.1-7-7-7h0c-3.9,0-7,3.1-7,7ZM369,306c0,3.9,3.1,7,7,7h0c-3.9,0-7,3.1-7,7h0c0,3.9,3.1,7,7,7h0c3.9,0,7-3.1,7-7h0c0-3.9-3.1-7-7-7h0c3.9,0,7-3.1,7-7h0c0-3.9-3.1-7-7-7h0c-3.9,0-7,3.1-7,7ZM355,306c0,3.9,3.1,7,7,7h0c-3.9,0-7,3.1-7,7h0c0,3.9,3.1,7,7,7h0c-3.9,0-7,3.1-7,7h0c0,3.9,3.1,7,7,7h0c-3.9,0-7,3.1-7,7h0c0,3.9,3.1,7,7,7h0c-3.9,0-7,3.1-7,7h0c0,3.9,3.1,7,7,7h0c-3.9,0-7,3.1-7,7h0c0,3.9,3.1,7,7,7h0c-3.9,0-7,3.1-7,7h0c0,3.9,3.1,7,7,7h0c-3.9,0-7,3.1-7,7h0c0,3.9,3.1,7,7,7h0c-3.9,0-7,3.1-7,7h0c0,3.9,3.1,7,7,7h0c-3.9,0-7,3.1-7,7h0c0,3.9,3.1,7,7,7h0c3.9,0,7-3.1,7-7h0c0-3.9-3.1-7-7-7h0c3.9,0,7-3.1,7-7h0c0-3.9-3.1-7-7-7h0c3.9,0,7-3.1,7-7h0c0-3.9-3.1-7-7-7h0c3.9,0,7-3.1,7-7h0c0-3.9-3.1-7-7-7h0c3.9,0,7-3.1,7-7h0c0-3.9-3.1-7-7-7h0c3.9,0,7-3.1,7-7h0c0-3.9-3.1-7-7-7h0c3.9,0,7-3.1,7-7h0c0-3.9-3.1-7-7-7h0c3.9,0,7-3.1,7-7h0c0-3.9-3.1-7-7-7h0c3.9,0,7-3.1,7-7h0c0-3.9-3.1-7-7-7h0c3.9,0,7-3.1,7-7h0c0-3.9-3.1-7-7-7h0c-3.9,0-7,3.1-7,7ZM299,306c0,3.9,3.1,7,7,7h0c3.9,0,7-3.1,7-7h0c0-3.9-3.1-7-7-7h0c-3.9,0-7,3.1-7,7ZM215,306c0,3.9,3.1,7,7,7h0c3.9,0,7-3.1,7-7h0c0-3.9-3.1-7-7-7h0c-3.9,0-7,3.1-7,7ZM159,306c0,3.9,3.1,7,7,7h0c3.9,0,7-3.1,7-7h0c0-3.9-3.1-7-7-7h0c-3.9,0-7,3.1-7,7ZM103,306c0,3.9,3.1,7,7,7h0c3.9,0,7-3.1,7-7h0c0-3.9-3.1-7-7-7h0c-3.9,0-7,3.1-7,7ZM89,306c0,3.9,3.1,7,7,7h0c-3.9,0-7,3.1-7,7h0c0,3.9,3.1,7,7,7h0c-3.9,0-7,3.1-7,7h0c0,3.9,3.1,7,7,7h0c-3.9,0-7,3.1-7,7h0c0,3.9,3.1,7,7,7h0c-3.9,0-7,3.1-7,7h0c0,3.9,3.1,7,7,7h0c3.9,0,7-3.1,7-7h0c0-3.9-3.1-7-7-7h0c3.9,0,7-3.1,7-7h0c0-3.9-3.1-7-7-7h0c3.9,0,7-3.1,7-7h0c0-3.9-3.1-7-7-7h0c3.9,0,7-3.1,7-7h0c0-3.9-3.1-7-7-7h0c3.9,0,7-3.1,7-7h0c0-3.9-3.1-7-7-7h0c-3.9,0-7,3.1-7,7ZM453,320c0,3.9,3.1,7,7,7h0c3.9,0,7-3.1,7-7h0c0-3.9-3.1-7-7-7h0c-3.9,0-7,3.1-7,7ZM313,320c0,3.9,3.1,7,7,7h0c-3.9,0-7,3.1-7,7h0c0,3.9,3.1,7,7,7h0c3.9,0,7-3.1,7-7h0c0-3.9-3.1-7-7-7h0c3.9,0,7-3.1,7-7h0c0-3.9-3.1-7-7-7h0c-3.9,0-7,3.1-7,7ZM271,320c0,3.9,3.1,7,7,7h0c-3.9,0-7,3.1-7,7h0c0,3.9,3.1,7,7,7h0c-3.9,0-7,3.1-7,7h0c0,3.9,3.1,7,7,7h0c3.9,0,7-3.1,7-7h0c0-3.9-3.1-7-7-7h0c3.9,0,7-3.1,7-7h0c0-3.9-3.1-7-7-7h0c3.9,0,7-3.1,7-7h0c0-3.9-3.1-7-7-7h0c-3.9,0-7,3.1-7,7ZM229,320c0,3.9,3.1,7,7,7h0c3.9,0,7-3.1,7-7h0c0-3.9-3.1-7-7-7h0c-3.9,0-7,3.1-7,7ZM145,320c0,3.9,3.1,7,7,7h0c-3.9,0-7,3.1-7,7h0c0,3.9,3.1,7,7,7h0c-3.9,0-7,3.1-7,7h0c0,3.9,3.1,7,7,7h0c3.9,0,7-3.1,7-7h0c0-3.9-3.1-7-7-7h0c3.9,0,7-3.1,7-7h0c0-3.9-3.1-7-7-7h0c3.9,0,7-3.1,7-7h0c0-3.9-3.1-7-7-7h0c-3.9,0-7,3.1-7,7ZM131,320c0,3.9,3.1,7,7,7h0c-3.9,0-7,3.1-7,7h0c0,3.9,3.1,7,7,7h0c-3.9,0-7,3.1-7,7h0c0,3.9,3.1,7,7,7h0c3.9,0,7-3.1,7-7h0c0-3.9-3.1-7-7-7h0c3.9,0,7-3.1,7-7h0c0-3.9-3.1-7-7-7h0c3.9,0,7-3.1,7-7h0c0-3.9-3.1-7-7-7h0c-3.9,0-7,3.1-7,7ZM75,320c0,3.9,3.1,7,7,7h0c-3.9,0-7,3.1-7,7h0c0,3.9,3.1,7,7,7h0c3.9,0,7-3.1,7-7h0c0-3.9-3.1-7-7-7h0c3.9,0,7-3.1,7-7h0c0-3.9-3.1-7-7-7h0c-3.9,0-7,3.1-7,7ZM61,320c0,3.9,3.1,7,7,7h0c-3.9,0-7,3.1-7,7h0c0,3.9,3.1,7,7,7h0c3.9,0,7-3.1,7-7h0c0-3.9-3.1-7-7-7h0c3.9,0,7-3.1,7-7h0c0-3.9-3.1-7-7-7h0c-3.9,0-7,3.1-7,7ZM47,320c0,3.9,3.1,7,7,7h0c3.9,0,7-3.1,7-7h0c0-3.9-3.1-7-7-7h0c-3.9,0-7,3.1-7,7ZM439,334c0,3.9,3.1,7,7,7h0c3.9,0,7-3.1,7-7h0c0-3.9-3.1-7-7-7h0c-3.9,0-7,3.1-7,7ZM411,334c0,3.9,3.1,7,7,7h0c3.9,0,7-3.1,7-7h0c0-3.9-3.1-7-7-7h0c-3.9,0-7,3.1-7,7ZM397,334c0,3.9,3.1,7,7,7h0c3.9,0,7-3.1,7-7h0c0-3.9-3.1-7-7-7h0c-3.9,0-7,3.1-7,7ZM215,334c0,3.9,3.1,7,7,7h0c-3.9,0-7,3.1-7,7h0c0,3.9,3.1,7,7,7h0c-3.9,0-7,3.1-7,7h0c0,3.9,3.1,7,7,7h0c-3.9,0-7,3.1-7,7h0c0,3.9,3.1,7,7,7h0c-3.9,0-7,3.1-7,7h0c0,3.9,3.1,7,7,7h0c3.9,0,7-3.1,7-7h0c0-3.9-3.1-7-7-7h0c3.9,0,7-3.1,7-7h0c0-3.9-3.1-7-7-7h0c3.9,0,7-3.1,7-7h0c0-3.9-3.1-7-7-7h0c3.9,0,7-3.1,7-7h0c0-3.9-3.1-7-7-7h0c3.9,0,7-3.1,7-7h0c0-3.9-3.1-7-7-7h0c-3.9,0-7,3.1-7,7ZM187,334c0,3.9,3.1,7,7,7h0c-3.9,0-7,3.1-7,7h0c0,3.9,3.1,7,7,7h0c3.9,0,7-3.1,7-7h0c0-3.9-3.1-7-7-7h0c3.9,0,7-3.1,7-7h0c0-3.9-3.1-7-7-7h0c-3.9,0-7,3.1-7,7ZM173,334c0,3.9,3.1,7,7,7h0c3.9,0,7-3.1,7-7h0c0-3.9-3.1-7-7-7h0c-3.9,0-7,3.1-7,7ZM103,334c0,3.9,3.1,7,7,7h0c3.9,0,7-3.1,7-7h0c0-3.9-3.1-7-7-7h0c-3.9,0-7,3.1-7,7ZM453,348c0,3.9,3.1,7,7,7h0c3.9,0,7-3.1,7-7h0c0-3.9-3.1-7-7-7h0c-3.9,0-7,3.1-7,7ZM425,348c0,3.9,3.1,7,7,7h0c-3.9,0-7,3.1-7,7h0c0,3.9,3.1,7,7,7h0c3.9,0,7-3.1,7-7h0c0-3.9-3.1-7-7-7h0c3.9,0,7-3.1,7-7h0c0-3.9-3.1-7-7-7h0c-3.9,0-7,3.1-7,7ZM299,348c0,3.9,3.1,7,7,7h0c-3.9,0-7,3.1-7,7h0c0,3.9,3.1,7,7,7h0c-3.9,0-7,3.1-7,7h0c0,3.9,3.1,7,7,7h0c-3.9,0-7,3.1-7,7h0c0,3.9,3.1,7,7,7h0c3.9,0,7-3.1,7-7h0c0-3.9-3.1-7-7-7h0c3.9,0,7-3.1,7-7h0c0-3.9-3.1-7-7-7h0c3.9,0,7-3.1,7-7h0c0-3.9-3.1-7-7-7h0c3.9,0,7-3.1,7-7h0c0-3.9-3.1-7-7-7h0c-3.9,0-7,3.1-7,7ZM257,348c0,3.9,3.1,7,7,7h0c3.9,0,7-3.1,7-7h0c0-3.9-3.1-7-7-7h0c-3.9,0-7,3.1-7,7ZM229,348c0,3.9,3.1,7,7,7h0c3.9,0,7-3.1,7-7h0c0-3.9-3.1-7-7-7h0c-3.9,0-7,3.1-7,7ZM159,348c0,3.9,3.1,7,7,7h0c3.9,0,7-3.1,7-7h0c0-3.9-3.1-7-7-7h0c-3.9,0-7,3.1-7,7ZM47,348c0,3.9,3.1,7,7,7h0c3.9,0,7-3.1,7-7h0c0-3.9-3.1-7-7-7h0c-3.9,0-7,3.1-7,7ZM19,348c0,3.9,3.1,7,7,7h0c-3.9,0-7,3.1-7,7h0c0,3.9,3.1,7,7,7h0c3.9,0,7-3.1,7-7h0c0-3.9-3.1-7-7-7h0c3.9,0,7-3.1,7-7h0c0-3.9-3.1-7-7-7h0c-3.9,0-7,3.1-7,7ZM467,362c0,3.9,3.1,7,7,7h0c3.9,0,7-3.1,7-7h0c0-3.9-3.1-7-7-7h0c-3.9,0-7,3.1-7,7ZM411,362c0,3.9,3.1,7,7,7h0c-3.9,0-7,3.1-7,7h0c0,3.9,3.1,7,7,7h0c-3.9,0-7,3.1-7,7h0c0,3.9,3.1,7,7,7h0c-3.9,0-7,3.1-7,7h0c0,3.9,3.1,7,7,7h0c-3.9,0-7,3.1-7,7h0c0,3.9,3.1,7,7,7h0c-3.9,0-7,3.1-7,7h0c0,3.9,3.1,7,7,7h0c3.9,0,7-3.1,7-7h0c0-3.9-3.1-7-7-7h0c3.9,0,7-3.1,7-7h0c0-3.9-3.1-7-7-7h0c3.9,0,7-3.1,7-7h0c0-3.9-3.1-7-7-7h0c3.9,0,7-3.1,7-7h0c0-3.9-3.1-7-7-7h0c3.9,0,7-3.1,7-7h0c0-3.9-3.1-7-7-7h0c3.9,0,7-3.1,7-7h0c0-3.9-3.1-7-7-7h0c-3.9,0-7,3.1-7,7ZM397,362c0,3.9,3.1,7,7,7h0c3.9,0,7-3.1,7-7h0c0-3.9-3.1-7-7-7h0c-3.9,0-7,3.1-7,7ZM383,362c0,3.9,3.1,7,7,7h0c3.9,0,7-3.1,7-7h0c0-3.9-3.1-7-7-7h0c-3.9,0-7,3.1-7,7ZM369,362c0,3.9,3.1,7,7,7h0c3.9,0,7-3.1,7-7h0c0-3.9-3.1-7-7-7h0c-3.9,0-7,3.1-7,7ZM341,362c0,3.9,3.1,7,7,7h0c3.9,0,7-3.1,7-7h0c0-3.9-3.1-7-7-7h0c-3.9,0-7,3.1-7,7ZM285,362c0,3.9,3.1,7,7,7h0c3.9,0,7-3.1,7-7h0c0-3.9-3.1-7-7-7h0c-3.9,0-7,3.1-7,7ZM243,362c0,3.9,3.1,7,7,7h0c3.9,0,7-3.1,7-7h0c0-3.9-3.1-7-7-7h0c-3.9,0-7,3.1-7,7ZM201,362c0,3.9,3.1,7,7,7h0c-3.9,0-7,3.1-7,7h0c0,3.9,3.1,7,7,7h0c3.9,0,7-3.1,7-7h0c0-3.9-3.1-7-7-7h0c3.9,0,7-3.1,7-7h0c0-3.9-3.1-7-7-7h0c-3.9,0-7,3.1-7,7ZM173,362c0,3.9,3.1,7,7,7h0c-3.9,0-7,3.1-7,7h0c0,3.9,3.1,7,7,7h0c3.9,0,7-3.1,7-7h0c0-3.9-3.1-7-7-7h0c3.9,0,7-3.1,7-7h0c0-3.9-3.1-7-7-7h0c-3.9,0-7,3.1-7,7ZM117,362c0,3.9,3.1,7,7,7h0c3.9,0,7-3.1,7-7h0c0-3.9-3.1-7-7-7h0c-3.9,0-7,3.1-7,7ZM103,362c0,3.9,3.1,7,7,7h0c3.9,0,7-3.1,7-7h0c0-3.9-3.1-7-7-7h0c-3.9,0-7,3.1-7,7ZM453,376c0,3.9,3.1,7,7,7h0c-3.9,0-7,3.1-7,7h0c0,3.9,3.1,7,7,7h0c3.9,0,7-3.1,7-7h0c0-3.9-3.1-7-7-7h0c3.9,0,7-3.1,7-7h0c0-3.9-3.1-7-7-7h0c-3.9,0-7,3.1-7,7ZM313,376c0,3.9,3.1,7,7,7h0c3.9,0,7-3.1,7-7h0c0-3.9-3.1-7-7-7h0c-3.9,0-7,3.1-7,7ZM271,376c0,3.9,3.1,7,7,7h0c3.9,0,7-3.1,7-7h0c0-3.9-3.1-7-7-7h0c-3.9,0-7,3.1-7,7ZM229,376c0,3.9,3.1,7,7,7h0c-3.9,0-7,3.1-7,7h0c0,3.9,3.1,7,7,7h0c3.9,0,7-3.1,7-7h0c0-3.9-3.1-7-7-7h0c3.9,0,7-3.1,7-7h0c0-3.9-3.1-7-7-7h0c-3.9,0-7,3.1-7,7ZM145,376c0,3.9,3.1,7,7,7h0c3.9,0,7-3.1,7-7h0c0-3.9-3.1-7-7-7h0c-3.9,0-7,3.1-7,7ZM131,376c0,3.9,3.1,7,7,7h0c3.9,0,7-3.1,7-7h0c0-3.9-3.1-7-7-7h0c-3.9,0-7,3.1-7,7ZM439,390c0,3.9,3.1,7,7,7h0c-3.9,0-7,3.1-7,7h0c0,3.9,3.1,7,7,7h0c-3.9,0-7,3.1-7,7h0c0,3.9,3.1,7,7,7h0c-3.9,0-7,3.1-7,7h0c0,3.9,3.1,7,7,7h0c3.9,0,7-3.1,7-7h0c0-3.9-3.1-7-7-7h0c3.9,0,7-3.1,7-7h0c0-3.9-3.1-7-7-7h0c3.9,0,7-3.1,7-7h0c0-3.9-3.1-7-7-7h0c3.9,0,7-3.1,7-7h0c0-3.9-3.1-7-7-7h0c-3.9,0-7,3.1-7,7ZM425,390c0,3.9,3.1,7,7,7h0c-3.9,0-7,3.1-7,7h0c0,3.9,3.1,7,7,7h0c-3.9,0-7,3.1-7,7h0c0,3.9,3.1,7,7,7h0c3.9,0,7-3.1,7-7h0c0-3.9-3.1-7-7-7h0c3.9,0,7-3.1,7-7h0c0-3.9-3.1-7-7-7h0c3.9,0,7-3.1,7-7h0c0-3.9-3.1-7-7-7h0c-3.9,0-7,3.1-7,7ZM383,390c0,3.9,3.1,7,7,7h0c3.9,0,7-3.1,7-7h0c0-3.9-3.1-7-7-7h0c-3.9,0-7,3.1-7,7ZM243,390c0,3.9,3.1,7,7,7h0c3.9,0,7-3.1,7-7h0c0-3.9-3.1-7-7-7h0c-3.9,0-7,3.1-7,7ZM187,390c0,3.9,3.1,7,7,7h0c3.9,0,7-3.1,7-7h0c0-3.9-3.1-7-7-7h0c-3.9,0-7,3.1-7,7ZM327,404c0,3.9,3.1,7,7,7h0c-3.9,0-7,3.1-7,7h0c0,3.9,3.1,7,7,7h0c3.9,0,7-3.1,7-7h0c0-3.9-3.1-7-7-7h0c3.9,0,7-3.1,7-7h0c0-3.9-3.1-7-7-7h0c-3.9,0-7,3.1-7,7ZM313,404c0,3.9,3.1,7,7,7h0c3.9,0,7-3.1,7-7h0c0-3.9-3.1-7-7-7h0c-3.9,0-7,3.1-7,7ZM285,404c0,3.9,3.1,7,7,7h0c3.9,0,7-3.1,7-7h0c0-3.9-3.1-7-7-7h0c-3.9,0-7,3.1-7,7ZM271,404c0,3.9,3.1,7,7,7h0c3.9,0,7-3.1,7-7h0c0-3.9-3.1-7-7-7h0c-3.9,0-7,3.1-7,7ZM201,404c0,3.9,3.1,7,7,7h0c3.9,0,7-3.1,7-7h0c0-3.9-3.1-7-7-7h0c-3.9,0-7,3.1-7,7ZM131,404c0,3.9,3.1,7,7,7h0c-3.9,0-7,3.1-7,7h0c0,3.9,3.1,7,7,7h0c3.9,0,7-3.1,7-7h0c0-3.9-3.1-7-7-7h0c3.9,0,7-3.1,7-7h0c0-3.9-3.1-7-7-7h0c-3.9,0-7,3.1-7,7ZM397,418c0,3.9,3.1,7,7,7h0c3.9,0,7-3.1,7-7h0c0-3.9-3.1-7-7-7h0c-3.9,0-7,3.1-7,7ZM383,418c0,3.9,3.1,7,7,7h0c-3.9,0-7,3.1-7,7h0c0,3.9,3.1,7,7,7h0c3.9,0,7-3.1,7-7h0c0-3.9-3.1-7-7-7h0c3.9,0,7-3.1,7-7h0c0-3.9-3.1-7-7-7h0c-3.9,0-7,3.1-7,7ZM369,418c0,3.9,3.1,7,7,7h0c3.9,0,7-3.1,7-7h0c0-3.9-3.1-7-7-7h0c-3.9,0-7,3.1-7,7ZM299,418c0,3.9,3.1,7,7,7h0c-3.9,0-7,3.1-7,7h0c0,3.9,3.1,7,7,7h0c3.9,0,7-3.1,7-7h0c0-3.9-3.1-7-7-7h0c3.9,0,7-3.1,7-7h0c0-3.9-3.1-7-7-7h0c-3.9,0-7,3.1-7,7ZM243,418c0,3.9,3.1,7,7,7h0c-3.9,0-7,3.1-7,7h0c0,3.9,3.1,7,7,7h0c3.9,0,7-3.1,7-7h0c0-3.9-3.1-7-7-7h0c3.9,0,7-3.1,7-7h0c0-3.9-3.1-7-7-7h0c-3.9,0-7,3.1-7,7ZM187,418c0,3.9,3.1,7,7,7h0c-3.9,0-7,3.1-7,7h0c0,3.9,3.1,7,7,7h0c3.9,0,7-3.1,7-7h0c0-3.9-3.1-7-7-7h0c3.9,0,7-3.1,7-7h0c0-3.9-3.1-7-7-7h0c-3.9,0-7,3.1-7,7ZM313,432c0,3.9,3.1,7,7,7h0c-3.9,0-7,3.1-7,7h0c0,3.9,3.1,7,7,7h0c-3.9,0-7,3.1-7,7h0c0,3.9,3.1,7,7,7h0c3.9,0,7-3.1,7-7h0c0-3.9-3.1-7-7-7h0c3.9,0,7-3.1,7-7h0c0-3.9-3.1-7-7-7h0c3.9,0,7-3.1,7-7h0c0-3.9-3.1-7-7-7h0c-3.9,0-7,3.1-7,7ZM271,432c0,3.9,3.1,7,7,7h0c3.9,0,7-3.1,7-7h0c0-3.9-3.1-7-7-7h0c-3.9,0-7,3.1-7,7ZM257,432c0,3.9,3.1,7,7,7h0c-3.9,0-7,3.1-7,7h0c0,3.9,3.1,7,7,7h0c3.9,0,7-3.1,7-7h0c0-3.9-3.1-7-7-7h0c3.9,0,7-3.1,7-7h0c0-3.9-3.1-7-7-7h0c-3.9,0-7,3.1-7,7ZM201,432c0,3.9,3.1,7,7,7h0c3.9,0,7-3.1,7-7h0c0-3.9-3.1-7-7-7h0c-3.9,0-7,3.1-7,7ZM159,432c0,3.9,3.1,7,7,7h0c3.9,0,7-3.1,7-7h0c0-3.9-3.1-7-7-7h0c-3.9,0-7,3.1-7,7ZM145,432c0,3.9,3.1,7,7,7h0c-3.9,0-7,3.1-7,7h0c0,3.9,3.1,7,7,7h0c-3.9,0-7,3.1-7,7h0c0,3.9,3.1,7,7,7h0c3.9,0,7-3.1,7-7h0c0-3.9-3.1-7-7-7h0c3.9,0,7-3.1,7-7h0c0-3.9-3.1-7-7-7h0c3.9,0,7-3.1,7-7h0c0-3.9-3.1-7-7-7h0c-3.9,0-7,3.1-7,7ZM425,446c0,3.9,3.1,7,7,7h0c-3.9,0-7,3.1-7,7h0c0,3.9,3.1,7,7,7h0c3.9,0,7-3.1,7-7h0c0-3.9-3.1-7-7-7h0c3.9,0,7-3.1,7-7h0c0-3.9-3.1-7-7-7h0c-3.9,0-7,3.1-7,7ZM369,446c0,3.9,3.1,7,7,7h0c-3.9,0-7,3.1-7,7h0c0,3.9,3.1,7,7,7h0c3.9,0,7-3.1,7-7h0c0-3.9-3.1-7-7-7h0c3.9,0,7-3.1,7-7h0c0-3.9-3.1-7-7-7h0c-3.9,0-7,3.1-7,7ZM215,446c0,3.9,3.1,7,7,7h0c-3.9,0-7,3.1-7,7h0c0,3.9,3.1,7,7,7h0c3.9,0,7-3.1,7-7h0c0-3.9-3.1-7-7-7h0c3.9,0,7-3.1,7-7h0c0-3.9-3.1-7-7-7h0c-3.9,0-7,3.1-7,7ZM131,446c0,3.9,3.1,7,7,7h0c3.9,0,7-3.1,7-7h0c0-3.9-3.1-7-7-7h0c-3.9,0-7,3.1-7,7ZM383,460c0,3.9,3.1,7,7,7h0c3.9,0,7-3.1,7-7h0c0-3.9-3.1-7-7-7h0c-3.9,0-7,3.1-7,7ZM355,460c0,3.9,3.1,7,7,7h0c-3.9,0-7,3.1-7,7h0c0,3.9,3.1,7,7,7h0c3.9,0,7-3.1,7-7h0c0-3.9-3.1-7-7-7h0c3.9,0,7-3.1,7-7h0c0-3.9-3.1-7-7-7h0c-3.9,0-7,3.1-7,7ZM341,460c0,3.9,3.1,7,7,7h0c3.9,0,7-3.1,7-7h0c0-3.9-3.1-7-7-7h0c-3.9,0-7,3.1-7,7ZM327,460c0,3.9,3.1,7,7,7h0c3.9,0,7-3.1,7-7h0c0-3.9-3.1-7-7-7h0c-3.9,0-7,3.1-7,7ZM299,460c0,3.9,3.1,7,7,7h0c-3.9,0-7,3.1-7,7h0c0,3.9,3.1,7,7,7h0c3.9,0,7-3.1,7-7h0c0-3.9-3.1-7-7-7h0c3.9,0,7-3.1,7-7h0c0-3.9-3.1-7-7-7h0c-3.9,0-7,3.1-7,7ZM285,460c0,3.9,3.1,7,7,7h0c3.9,0,7-3.1,7-7h0c0-3.9-3.1-7-7-7h0c-3.9,0-7,3.1-7,7ZM271,460c0,3.9,3.1,7,7,7h0c3.9,0,7-3.1,7-7h0c0-3.9-3.1-7-7-7h0c-3.9,0-7,3.1-7,7ZM243,460c0,3.9,3.1,7,7,7h0c3.9,0,7-3.1,7-7h0c0-3.9-3.1-7-7-7h0c-3.9,0-7,3.1-7,7ZM173,460c0,3.9,3.1,7,7,7h0c3.9,0,7-3.1,7-7h0c0-3.9-3.1-7-7-7h0c-3.9,0-7,3.1-7,7ZM467,474c0,3.9,3.1,7,7,7h0c3.9,0,7-3.1,7-7h0c0-3.9-3.1-7-7-7h0c-3.9,0-7,3.1-7,7ZM397,474c0,3.9,3.1,7,7,7h0c3.9,0,7-3.1,7-7h0c0-3.9-3.1-7-7-7h0c-3.9,0-7,3.1-7,7ZM187,474c0,3.9,3.1,7,7,7h0c3.9,0,7-3.1,7-7h0c0-3.9-3.1-7-7-7h0c-3.9,0-7,3.1-7,7Z"/>
    </clipPath>
    <clipPath id="clippath-3">
      <path d="M19,54v28c0,19.3,15.7,35,35,35h28c19.3,0,35-15.7,35-35v-28c0-19.3-15.7-35-35-35h-28c-19.3,0-35,15.7-35,35M54,33h28c11.6,0,21,9.4,21,21v28c0,11.6-9.4,21-21,21h-28c-11.6,0-21-9.4-21-21v-28c0-11.6,9.4-21,21-21Z"/>
    </clipPath>
    <clipPath id="clippath-4">
      <circle cx="68" cy="68" r="21"/>
    </clipPath>
    <clipPath id="clippath-5">
      <path d="M446,19h-28c-19.3,0-35,15.7-35,35v28c0,19.3,15.7,35,35,35h28c19.3,0,35-15.7,35-35v-28c0-19.3-15.7-35-35-35M467,54v28c0,11.6-9.4,21-21,21h-28c-11.6,0-21-9.4-21-21v-28c0-11.6,9.4-21,21-21h28c11.6,0,21,9.4,21,21Z"/>
    </clipPath>
    <clipPath id="clippath-6">
      <circle cx="432" cy="68" r="21"/>
    </clipPath>
    <clipPath id="clippath-7">
      <path d="M54,481h28c19.3,0,35-15.7,35-35v-28c0-19.3-15.7-35-35-35h-28c-19.3,0-35,15.7-35,35v28c0,19.3,15.7,35,35,35M33,446v-28c0-11.6,9.4-21,21-21h28c11.6,0,21,9.4,21,21v28c0,11.6-9.4,21-21,21h-28c-11.6,0-21-9.4-21-21Z"/>
    </clipPath>
    <clipPath id="clippath-8">
      <circle cx="68" cy="432" r="21"/>
    </clipPath>
  </defs>
  <!-- Generator: Adobe Illustrator 28.7.0, SVG Export Plug-In . SVG Version: 1.2.0 Build 136)  -->
  <g>
    <g id="Layer_1">
      <g>
        <polygon points="1 1 2 1 1 2 1 1"/>
        <polygon points="-1 -1 -2 -1 -1 -2 -1 -1"/>
        <g class="cls-1">
          <rect width="500" height="500"/>
        </g>
      </g>
      <g>
        <path d="M355,26c0,3.9,3.1,7,7,7h0c-3.9,0-7,3.1-7,7h0c0,3.9,3.1,7,7,7h0c3.9,0,7-3.1,7-7h0c0-3.9-3.1-7-7-7h0c3.9,0,7-3.1,7-7h0c0-3.9-3.1-7-7-7h0c-3.9,0-7,3.1-7,7ZM313,26c0,3.9,3.1,7,7,7h0c-3.9,0-7,3.1-7,7h0c0,3.9,3.1,7,7,7h0c3.9,0,7-3.1,7-7h0c0-3.9-3.1-7-7-7h0c3.9,0,7-3.1,7-7h0c0-3.9-3.1-7-7-7h0c-3.9,0-7,3.1-7,7ZM299,26c0,3.9,3.1,7,7,7h0c-3.9,0-7,3.1-7,7h0c0,3.9,3.1,7,7,7h0c3.9,0,7-3.1,7-7h0c0-3.9-3.1-7-7-7h0c3.9,0,7-3.1,7-7h0c0-3.9-3.1-7-7-7h0c-3.9,0-7,3.1-7,7ZM243,26c0,3.9,3.1,7,7,7h0c3.9,0,7-3.1,7-7h0c0-3.9-3.1-7-7-7h0c-3.9,0-7,3.1-7,7ZM229,26c0,3.9,3.1,7,7,7h0c3.9,0,7-3.1,7-7h0c0-3.9-3.1-7-7-7h0c-3.9,0-7,3.1-7,7ZM215,26c0,3.9,3.1,7,7,7h0c3.9,0,7-3.1,7-7h0c0-3.9-3.1-7-7-7h0c-3.9,0-7,3.1-7,7ZM201,26c0,3.9,3.1,7,7,7h0c-3.9,0-7,3.1-7,7h0c0,3.9,3.1,7,7,7h0c3.9,0,7-3.1,7-7h0c0-3.9-3.1-7-7-7h0c3.9,0,7-3.1,7-7h0c0-3.9-3.1-7-7-7h0c-3.9,0-7,3.1-7,7ZM187,26c0,3.9,3.1,7,7,7h0c-3.9,0-7,3.1-7,7h0c0,3.9,3.1,7,7,7h0c3.9,0,7-3.1,7-7h0c0-3.9-3.1-7-7-7h0c3.9,0,7-3.1,7-7h0c0-3.9-3.1-7-7-7h0c-3.9,0-7,3.1-7,7ZM159,40c0,3.9,3.1,7,7,7h0c-3.9,0-7,3.1-7,7h0c0,3.9,3.1,7,7,7h0c3.9,0,7-3.1,7-7h0c0-3.9-3.1-7-7-7h0c3.9,0,7-3.1,7-7h0c0-3.9-3.1-7-7-7h0c-3.9,0-7,3.1-7,7ZM131,40c0,3.9,3.1,7,7,7h0c3.9,0,7-3.1,7-7h0c0-3.9-3.1-7-7-7h0c-3.9,0-7,3.1-7,7ZM341,54c0,3.9,3.1,7,7,7h0c3.9,0,7-3.1,7-7h0c0-3.9-3.1-7-7-7h0c-3.9,0-7,3.1-7,7ZM285,54c0,3.9,3.1,7,7,7h0c3.9,0,7-3.1,7-7h0c0-3.9-3.1-7-7-7h0c-3.9,0-7,3.1-7,7ZM257,54c0,3.9,3.1,7,7,7h0c3.9,0,7-3.1,7-7h0c0-3.9-3.1-7-7-7h0c-3.9,0-7,3.1-7,7ZM243,54c0,3.9,3.1,7,7,7h0c-3.9,0-7,3.1-7,7h0c0,3.9,3.1,7,7,7h0c-3.9,0-7,3.1-7,7h0c0,3.9,3.1,7,7,7h0c3.9,0,7-3.1,7-7h0c0-3.9-3.1-7-7-7h0c3.9,0,7-3.1,7-7h0c0-3.9-3.1-7-7-7h0c3.9,0,7-3.1,7-7h0c0-3.9-3.1-7-7-7h0c-3.9,0-7,3.1-7,7ZM215,54c0,3.9,3.1,7,7,7h0c3.9,0,7-3.1,7-7h0c0-3.9-3.1-7-7-7h0c-3.9,0-7,3.1-7,7ZM173,54c0,3.9,3.1,7,7,7h0c-3.9,0-7,3.1-7,7h0c0,3.9,3.1,7,7,7h0c3.9,0,7-3.1,7-7h0c0-3.9-3.1-7-7-7h0c3.9,0,7-3.1,7-7h0c0-3.9-3.1-7-7-7h0c-3.9,0-7,3.1-7,7ZM355,68c0,3.9,3.1,7,7,7h0c-3.9,0-7,3.1-7,7h0c0,3.9,3.1,7,7,7h0c3.9,0,7-3.1,7-7h0c0-3.9-3.1-7-7-7h0c3.9,0,7-3.1,7-7h0c0-3.9-3.1-7-7-7h0c-3.9,0-7,3.1-7,7ZM299,68c0,3.9,3.1,7,7,7h0c3.9,0,7-3.1,7-7h0c0-3.9-3.1-7-7-7h0c-3.9,0-7,3.1-7,7ZM271,68c0,3.9,3.1,7,7,7h0c3.9,0,7-3.1,7-7h0c0-3.9-3.1-7-7-7h0c-3.9,0-7,3.1-7,7ZM229,68c0,3.9,3.1,7,7,7h0c-3.9,0-7,3.1-7,7h0c0,3.9,3.1,7,7,7h0c3.9,0,7-3.1,7-7h0c0-3.9-3.1-7-7-7h0c3.9,0,7-3.1,7-7h0c0-3.9-3.1-7-7-7h0c-3.9,0-7,3.1-7,7ZM341,82c0,3.9,3.1,7,7,7h0c-3.9,0-7,3.1-7,7h0c0,3.9,3.1,7,7,7h0c3.9,0,7-3.1,7-7h0c0-3.9-3.1-7-7-7h0c3.9,0,7-3.1,7-7h0c0-3.9-3.1-7-7-7h0c-3.9,0-7,3.1-7,7ZM313,82c0,3.9,3.1,7,7,7h0c-3.9,0-7,3.1-7,7h0c0,3.9,3.1,7,7,7h0c3.9,0,7-3.1,7-7h0c0-3.9-3.1-7-7-7h0c3.9,0,7-3.1,7-7h0c0-3.9-3.1-7-7-7h0c-3.9,0-7,3.1-7,7ZM285,82c0,3.9,3.1,7,7,7h0c-3.9,0-7,3.1-7,7h0c0,3.9,3.1,7,7,7h0c3.9,0,7-3.1,7-7h0c0-3.9-3.1-7-7-7h0c3.9,0,7-3.1,7-7h0c0-3.9-3.1-7-7-7h0c-3.9,0-7,3.1-7,7ZM257,82c0,3.9,3.1,7,7,7h0c3.9,0,7-3.1,7-7h0c0-3.9-3.1-7-7-7h0c-3.9,0-7,3.1-7,7ZM131,82c0,3.9,3.1,7,7,7h0c3.9,0,7-3.1,7-7h0c0-3.9-3.1-7-7-7h0c-3.9,0-7,3.1-7,7ZM215,96c0,3.9,3.1,7,7,7h0c-3.9,0-7,3.1-7,7h0c0,3.9,3.1,7,7,7h0c3.9,0,7-3.1,7-7h0c0-3.9-3.1-7-7-7h0c3.9,0,7-3.1,7-7h0c0-3.9-3.1-7-7-7h0c-3.9,0-7,3.1-7,7ZM173,96c0,3.9,3.1,7,7,7h0c3.9,0,7-3.1,7-7h0c0-3.9-3.1-7-7-7h0c-3.9,0-7,3.1-7,7ZM145,96c0,3.9,3.1,7,7,7h0c3.9,0,7-3.1,7-7h0c0-3.9-3.1-7-7-7h0c-3.9,0-7,3.1-7,7ZM355,110c0,3.9,3.1,7,7,7h0c3.9,0,7-3.1,7-7h0c0-3.9-3.1-7-7-7h0c-3.9,0-7,3.1-7,7ZM327,110c0,3.9,3.1,7,7,7h0c-3.9,0-7,3.1-7,7h0c0,3.9,3.1,7,7,7h0c-3.9,0-7,3.1-7,7h0c0,3.9,3.1,7,7,7h0c-3.9,0-7,3.1-7,7h0c0,3.9,3.1,7,7,7h0c3.9,0,7-3.1,7-7h0c0-3.9-3.1-7-7-7h0c3.9,0,7-3.1,7-7h0c0-3.9-3.1-7-7-7h0c3.9,0,7-3.1,7-7h0c0-3.9-3.1-7-7-7h0c3.9,0,7-3.1,7-7h0c0-3.9-3.1-7-7-7h0c-3.9,0-7,3.1-7,7ZM299,110c0,3.9,3.1,7,7,7h0c-3.9,0-7,3.1-7,7h0c0,3.9,3.1,7,7,7h0c3.9,0,7-3.1,7-7h0c0-3.9-3.1-7-7-7h0c3.9,0,7-3.1,7-7h0c0-3.9-3.1-7-7-7h0c-3.9,0-7,3.1-7,7ZM271,110c0,3.9,3.1,7,7,7h0c3.9,0,7-3.1,7-7h0c0-3.9-3.1-7-7-7h0c-3.9,0-7,3.1-7,7ZM243,110c0,3.9,3.1,7,7,7h0c-3.9,0-7,3.1-7,7h0c0,3.9,3.1,7,7,7h0c3.9,0,7-3.1,7-7h0c0-3.9-3.1-7-7-7h0c3.9,0,7-3.1,7-7h0c0-3.9-3.1-7-7-7h0c-3.9,0-7,3.1-7,7ZM187,110c0,3.9,3.1,7,7,7h0c3.9,0,7-3.1,7-7h0c0-3.9-3.1-7-7-7h0c-3.9,0-7,3.1-7,7ZM159,110c0,3.9,3.1,7,7,7h0c-3.9,0-7,3.1-7,7h0c0,3.9,3.1,7,7,7h0c-3.9,0-7,3.1-7,7h0c0,3.9,3.1,7,7,7h0c3.9,0,7-3.1,7-7h0c0-3.9-3.1-7-7-7h0c3.9,0,7-3.1,7-7h0c0-3.9-3.1-7-7-7h0c3.9,0,7-3.1,7-7h0c0-3.9-3.1-7-7-7h0c-3.9,0-7,3.1-7,7ZM131,110c0,3.9,3.1,7,7,7h0c3.9,0,7-3.1,7-7h0c0-3.9-3.1-7-7-7h0c-3.9,0-7,3.1-7,7ZM313,124c0,3.9,3.1,7,7,7h0c-3.9,0-7,3.1-7,7h0c0,3.9,3.1,7,7,7h0c3.9,0,7-3.1,7-7h0c0-3.9-3.1-7-7-7h0c3.9,0,7-3.1,7-7h0c0-3.9-3.1-7-7-7h0c-3.9,0-7,3.1-7,7ZM229,124c0,3.9,3.1,7,7,7h0c-3.9,0-7,3.1-7,7h0c0,3.9,3.1,7,7,7h0c-3.9,0-7,3.1-7,7h0c0,3.9,3.1,7,7,7h0c3.9,0,7-3.1,7-7h0c0-3.9-3.1-7-7-7h0c3.9,0,7-3.1,7-7h0c0-3.9-3.1-7-7-7h0c3.9,0,7-3.1,7-7h0c0-3.9-3.1-7-7-7h0c-3.9,0-7,3.1-7,7ZM173,124c0,3.9,3.1,7,7,7h0c3.9,0,7-3.1,7-7h0c0-3.9-3.1-7-7-7h0c-3.9,0-7,3.1-7,7ZM145,124c0,3.9,3.1,7,7,7h0c3.9,0,7-3.1,7-7h0c0-3.9-3.1-7-7-7h0c-3.9,0-7,3.1-7,7ZM453,138c0,3.9,3.1,7,7,7h0c-3.9,0-7,3.1-7,7h0c0,3.9,3.1,7,7,7h0c3.9,0,7-3.1,7-7h0c0-3.9-3.1-7-7-7h0c3.9,0,7-3.1,7-7h0c0-3.9-3.1-7-7-7h0c-3.9,0-7,3.1-7,7ZM411,138c0,3.9,3.1,7,7,7h0c-3.9,0-7,3.1-7,7h0c0,3.9,3.1,7,7,7h0c-3.9,0-7,3.1-7,7h0c0,3.9,3.1,7,7,7h0c3.9,0,7-3.1,7-7h0c0-3.9-3.1-7-7-7h0c3.9,0,7-3.1,7-7h0c0-3.9-3.1-7-7-7h0c3.9,0,7-3.1,7-7h0c0-3.9-3.1-7-7-7h0c-3.9,0-7,3.1-7,7ZM369,138c0,3.9,3.1,7,7,7h0c-3.9,0-7,3.1-7,7h0c0,3.9,3.1,7,7,7h0c-3.9,0-7,3.1-7,7h0c0,3.9,3.1,7,7,7h0c-3.9,0-7,3.1-7,7h0c0,3.9,3.1,7,7,7h0c3.9,0,7-3.1,7-7h0c0-3.9-3.1-7-7-7h0c3.9,0,7-3.1,7-7h0c0-3.9-3.1-7-7-7h0c3.9,0,7-3.1,7-7h0c0-3.9-3.1-7-7-7h0c3.9,0,7-3.1,7-7h0c0-3.9-3.1-7-7-7h0c-3.9,0-7,3.1-7,7ZM355,138c0,3.9,3.1,7,7,7h0c3.9,0,7-3.1,7-7h0c0-3.9-3.1-7-7-7h0c-3.9,0-7,3.1-7,7ZM341,138c0,3.9,3.1,7,7,7h0c3.9,0,7-3.1,7-7h0c0-3.9-3.1-7-7-7h0c-3.9,0-7,3.1-7,7ZM201,138c0,3.9,3.1,7,7,7h0c3.9,0,7-3.1,7-7h0c0-3.9-3.1-7-7-7h0c-3.9,0-7,3.1-7,7ZM131,138c0,3.9,3.1,7,7,7h0c3.9,0,7-3.1,7-7h0c0-3.9-3.1-7-7-7h0c-3.9,0-7,3.1-7,7ZM103,138c0,3.9,3.1,7,7,7h0c3.9,0,7-3.1,7-7h0c0-3.9-3.1-7-7-7h0c-3.9,0-7,3.1-7,7ZM89,138c0,3.9,3.1,7,7,7h0c-3.9,0-7,3.1-7,7h0c0,3.9,3.1,7,7,7h0c-3.9,0-7,3.1-7,7h0c0,3.9,3.1,7,7,7h0c-3.9,0-7,3.1-7,7h0c0,3.9,3.1,7,7,7h0c3.9,0,7-3.1,7-7h0c0-3.9-3.1-7-7-7h0c3.9,0,7-3.1,7-7h0c0-3.9-3.1-7-7-7h0c3.9,0,7-3.1,7-7h0c0-3.9-3.1-7-7-7h0c3.9,0,7-3.1,7-7h0c0-3.9-3.1-7-7-7h0c-3.9,0-7,3.1-7,7ZM75,138c0,3.9,3.1,7,7,7h0c3.9,0,7-3.1,7-7h0c0-3.9-3.1-7-7-7h0c-3.9,0-7,3.1-7,7ZM47,138c0,3.9,3.1,7,7,7h0c-3.9,0-7,3.1-7,7h0c0,3.9,3.1,7,7,7h0c-3.9,0-7,3.1-7,7h0c0,3.9,3.1,7,7,7h0c3.9,0,7-3.1,7-7h0c0-3.9-3.1-7-7-7h0c3.9,0,7-3.1,7-7h0c0-3.9-3.1-7-7-7h0c3.9,0,7-3.1,7-7h0c0-3.9-3.1-7-7-7h0c-3.9,0-7,3.1-7,7ZM467,152c0,3.9,3.1,7,7,7h0c3.9,0,7-3.1,7-7h0c0-3.9-3.1-7-7-7h0c-3.9,0-7,3.1-7,7ZM439,152c0,3.9,3.1,7,7,7h0c3.9,0,7-3.1,7-7h0c0-3.9-3.1-7-7-7h0c-3.9,0-7,3.1-7,7ZM425,152c0,3.9,3.1,7,7,7h0c3.9,0,7-3.1,7-7h0c0-3.9-3.1-7-7-7h0c-3.9,0-7,3.1-7,7ZM397,152c0,3.9,3.1,7,7,7h0c3.9,0,7-3.1,7-7h0c0-3.9-3.1-7-7-7h0c-3.9,0-7,3.1-7,7ZM383,152c0,3.9,3.1,7,7,7h0c-3.9,0-7,3.1-7,7h0c0,3.9,3.1,7,7,7h0c-3.9,0-7,3.1-7,7h0c0,3.9,3.1,7,7,7h0c3.9,0,7-3.1,7-7h0c0-3.9-3.1-7-7-7h0c3.9,0,7-3.1,7-7h0c0-3.9-3.1-7-7-7h0c3.9,0,7-3.1,7-7h0c0-3.9-3.1-7-7-7h0c-3.9,0-7,3.1-7,7ZM285,152c0,3.9,3.1,7,7,7h0c-3.9,0-7,3.1-7,7h0c0,3.9,3.1,7,7,7h0c-3.9,0-7,3.1-7,7h0c0,3.9,3.1,7,7,7h0c-3.9,0-7,3.1-7,7h0c0,3.9,3.1,7,7,7h0c-3.9,0-7,3.1-7,7h0c0,3.9,3.1,7,7,7h0c-3.9,0-7,3.1-7,7h0c0,3.9,3.1,7,7,7h0c-3.9,0-7,3.1-7,7h0c0,3.9,3.1,7,7,7h0c-3.9,0-7,3.1-7,7h0c0,3.9,3.1,7,7,7h0c-3.9,0-7,3.1-7,7h0c0,3.9,3.1,7,7,7h0c-3.9,0-7,3.1-7,7h0c0,3.9,3.1,7,7,7h0c-3.9,0-7,3.1-7,7h0c0,3.9,3.1,7,7,7h0c-3.9,0-7,3.1-7,7h0c0,3.9,3.1,7,7,7h0c-3.9,0-7,3.1-7,7h0c0,3.9,3.1,7,7,7h0c3.9,0,7-3.1,7-7h0c0-3.9-3.1-7-7-7h0c3.9,0,7-3.1,7-7h0c0-3.9-3.1-7-7-7h0c3.9,0,7-3.1,7-7h0c0-3.9-3.1-7-7-7h0c3.9,0,7-3.1,7-7h0c0-3.9-3.1-7-7-7h0c3.9,0,7-3.1,7-7h0c0-3.9-3.1-7-7-7h0c3.9,0,7-3.1,7-7h0c0-3.9-3.1-7-7-7h0c3.9,0,7-3.1,7-7h0c0-3.9-3.1-7-7-7h0c3.9,0,7-3.1,7-7h0c0-3.9-3.1-7-7-7h0c3.9,0,7-3.1,7-7h0c0-3.9-3.1-7-7-7h0c3.9,0,7-3.1,7-7h0c0-3.9-3.1-7-7-7h0c3.9,0,7-3.1,7-7h0c0-3.9-3.1-7-7-7h0c3.9,0,7-3.1,7-7h0c0-3.9-3.1-7-7-7h0c3.9,0,7-3.1,7-7h0c0-3.9-3.1-7-7-7h0c-3.9,0-7,3.1-7,7ZM271,152c0,3.9,3.1,7,7,7h0c-3.9,0-7,3.1-7,7h0c0,3.9,3.1,7,7,7h0c-3.9,0-7,3.1-7,7h0c0,3.9,3.1,7,7,7h0c-3.9,0-7,3.1-7,7h0c0,3.9,3.1,7,7,7h0c-3.9,0-7,3.1-7,7h0c0,3.9,3.1,7,7,7h0c3.9,0,7-3.1,7-7h0c0-3.9-3.1-7-7-7h0c3.9,0,7-3.1,7-7h0c0-3.9-3.1-7-7-7h0c3.9,0,7-3.1,7-7h0c0-3.9-3.1-7-7-7h0c3.9,0,7-3.1,7-7h0c0-3.9-3.1-7-7-7h0c3.9,0,7-3.1,7-7h0c0-3.9-3.1-7-7-7h0c-3.9,0-7,3.1-7,7ZM215,152c0,3.9,3.1,7,7,7h0c-3.9,0-7,3.1-7,7h0c0,3.9,3.1,7,7,7h0c-3.9,0-7,3.1-7,7h0c0,3.9,3.1,7,7,7h0c3.9,0,7-3.1,7-7h0c0-3.9-3.1-7-7-7h0c3.9,0,7-3.1,7-7h0c0-3.9-3.1-7-7-7h0c3.9,0,7-3.1,7-7h0c0-3.9-3.1-7-7-7h0c-3.9,0-7,3.1-7,7ZM145,152c0,3.9,3.1,7,7,7h0c-3.9,0-7,3.1-7,7h0c0,3.9,3.1,7,7,7h0c3.9,0,7-3.1,7-7h0c0-3.9-3.1-7-7-7h0c3.9,0,7-3.1,7-7h0c0-3.9-3.1-7-7-7h0c-3.9,0-7,3.1-7,7ZM33,152c0,3.9,3.1,7,7,7h0c3.9,0,7-3.1,7-7h0c0-3.9-3.1-7-7-7h0c-3.9,0-7,3.1-7,7ZM355,166c0,3.9,3.1,7,7,7h0c3.9,0,7-3.1,7-7h0c0-3.9-3.1-7-7-7h0c-3.9,0-7,3.1-7,7ZM341,166c0,3.9,3.1,7,7,7h0c-3.9,0-7,3.1-7,7h0c0,3.9,3.1,7,7,7h0c3.9,0,7-3.1,7-7h0c0-3.9-3.1-7-7-7h0c3.9,0,7-3.1,7-7h0c0-3.9-3.1-7-7-7h0c-3.9,0-7,3.1-7,7ZM257,166c0,3.9,3.1,7,7,7h0c3.9,0,7-3.1,7-7h0c0-3.9-3.1-7-7-7h0c-3.9,0-7,3.1-7,7ZM117,166c0,3.9,3.1,7,7,7h0c3.9,0,7-3.1,7-7h0c0-3.9-3.1-7-7-7h0c-3.9,0-7,3.1-7,7ZM103,166c0,3.9,3.1,7,7,7h0c3.9,0,7-3.1,7-7h0c0-3.9-3.1-7-7-7h0c-3.9,0-7,3.1-7,7ZM61,166c0,3.9,3.1,7,7,7h0c3.9,0,7-3.1,7-7h0c0-3.9-3.1-7-7-7h0c-3.9,0-7,3.1-7,7ZM467,180c0,3.9,3.1,7,7,7h0c-3.9,0-7,3.1-7,7h0c0,3.9,3.1,7,7,7h0c3.9,0,7-3.1,7-7h0c0-3.9-3.1-7-7-7h0c3.9,0,7-3.1,7-7h0c0-3.9-3.1-7-7-7h0c-3.9,0-7,3.1-7,7ZM327,180c0,3.9,3.1,7,7,7h0c3.9,0,7-3.1,7-7h0c0-3.9-3.1-7-7-7h0c-3.9,0-7,3.1-7,7ZM313,180c0,3.9,3.1,7,7,7h0c3.9,0,7-3.1,7-7h0c0-3.9-3.1-7-7-7h0c-3.9,0-7,3.1-7,7ZM299,180c0,3.9,3.1,7,7,7h0c-3.9,0-7,3.1-7,7h0c0,3.9,3.1,7,7,7h0c-3.9,0-7,3.1-7,7h0c0,3.9,3.1,7,7,7h0c3.9,0,7-3.1,7-7h0c0-3.9-3.1-7-7-7h0c3.9,0,7-3.1,7-7h0c0-3.9-3.1-7-7-7h0c3.9,0,7-3.1,7-7h0c0-3.9-3.1-7-7-7h0c-3.9,0-7,3.1-7,7ZM75,180c0,3.9,3.1,7,7,7h0c-3.9,0-7,3.1-7,7h0c0,3.9,3.1,7,7,7h0c3.9,0,7-3.1,7-7h0c0-3.9-3.1-7-7-7h0c3.9,0,7-3.1,7-7h0c0-3.9-3.1-7-7-7h0c-3.9,0-7,3.1-7,7ZM33,180c0,3.9,3.1,7,7,7h0c-3.9,0-7,3.1-7,7h0c0,3.9,3.1,7,7,7h0c3.9,0,7-3.1,7-7h0c0-3.9-3.1-7-7-7h0c3.9,0,7-3.1,7-7h0c0-3.9-3.1-7-7-7h0c-3.9,0-7,3.1-7,7ZM453,194c0,3.9,3.1,7,7,7h0c3.9,0,7-3.1,7-7h0c0-3.9-3.1-7-7-7h0c-3.9,0-7,3.1-7,7ZM439,194c0,3.9,3.1,7,7,7h0c-3.9,0-7,3.1-7,7h0c0,3.9,3.1,7,7,7h0c3.9,0,7-3.1,7-7h0c0-3.9-3.1-7-7-7h0c3.9,0,7-3.1,7-7h0c0-3.9-3.1-7-7-7h0c-3.9,0-7,3.1-7,7ZM411,194c0,3.9,3.1,7,7,7h0c3.9,0,7-3.1,7-7h0c0-3.9-3.1-7-7-7h0c-3.9,0-7,3.1-7,7ZM355,194c0,3.9,3.1,7,7,7h0c3.9,0,7-3.1,7-7h0c0-3.9-3.1-7-7-7h0c-3.9,0-7,3.1-7,7ZM243,194c0,3.9,3.1,7,7,7h0c3.9,0,7-3.1,7-7h0c0-3.9-3.1-7-7-7h0c-3.9,0-7,3.1-7,7ZM201,194c0,3.9,3.1,7,7,7h0c3.9,0,7-3.1,7-7h0c0-3.9-3.1-7-7-7h0c-3.9,0-7,3.1-7,7ZM145,194c0,3.9,3.1,7,7,7h0c-3.9,0-7,3.1-7,7h0c0,3.9,3.1,7,7,7h0c-3.9,0-7,3.1-7,7h0c0,3.9,3.1,7,7,7h0c-3.9,0-7,3.1-7,7h0c0,3.9,3.1,7,7,7h0c3.9,0,7-3.1,7-7h0c0-3.9-3.1-7-7-7h0c3.9,0,7-3.1,7-7h0c0-3.9-3.1-7-7-7h0c3.9,0,7-3.1,7-7h0c0-3.9-3.1-7-7-7h0c3.9,0,7-3.1,7-7h0c0-3.9-3.1-7-7-7h0c-3.9,0-7,3.1-7,7ZM131,194c0,3.9,3.1,7,7,7h0c-3.9,0-7,3.1-7,7h0c0,3.9,3.1,7,7,7h0c-3.9,0-7,3.1-7,7h0c0,3.9,3.1,7,7,7h0c3.9,0,7-3.1,7-7h0c0-3.9-3.1-7-7-7h0c3.9,0,7-3.1,7-7h0c0-3.9-3.1-7-7-7h0c3.9,0,7-3.1,7-7h0c0-3.9-3.1-7-7-7h0c-3.9,0-7,3.1-7,7ZM117,194c0,3.9,3.1,7,7,7h0c3.9,0,7-3.1,7-7h0c0-3.9-3.1-7-7-7h0c-3.9,0-7,3.1-7,7ZM103,194c0,3.9,3.1,7,7,7h0c3.9,0,7-3.1,7-7h0c0-3.9-3.1-7-7-7h0c-3.9,0-7,3.1-7,7ZM61,194c0,3.9,3.1,7,7,7h0c-3.9,0-7,3.1-7,7h0c0,3.9,3.1,7,7,7h0c3.9,0,7-3.1,7-7h0c0-3.9-3.1-7-7-7h0c3.9,0,7-3.1,7-7h0c0-3.9-3.1-7-7-7h0c-3.9,0-7,3.1-7,7ZM47,194c0,3.9,3.1,7,7,7h0c3.9,0,7-3.1,7-7h0c0-3.9-3.1-7-7-7h0c-3.9,0-7,3.1-7,7ZM397,208c0,3.9,3.1,7,7,7h0c3.9,0,7-3.1,7-7h0c0-3.9-3.1-7-7-7h0c-3.9,0-7,3.1-7,7ZM369,208c0,3.9,3.1,7,7,7h0c3.9,0,7-3.1,7-7h0c0-3.9-3.1-7-7-7h0c-3.9,0-7,3.1-7,7ZM313,208c0,3.9,3.1,7,7,7h0c3.9,0,7-3.1,7-7h0c0-3.9-3.1-7-7-7h0c-3.9,0-7,3.1-7,7ZM229,208c0,3.9,3.1,7,7,7h0c3.9,0,7-3.1,7-7h0c0-3.9-3.1-7-7-7h0c-3.9,0-7,3.1-7,7ZM215,208c0,3.9,3.1,7,7,7h0c3.9,0,7-3.1,7-7h0c0-3.9-3.1-7-7-7h0c-3.9,0-7,3.1-7,7ZM89,208c0,3.9,3.1,7,7,7h0c3.9,0,7-3.1,7-7h0c0-3.9-3.1-7-7-7h0c-3.9,0-7,3.1-7,7ZM19,208c0,3.9,3.1,7,7,7h0c-3.9,0-7,3.1-7,7h0c0,3.9,3.1,7,7,7h0c3.9,0,7-3.1,7-7h0c0-3.9-3.1-7-7-7h0c3.9,0,7-3.1,7-7h0c0-3.9-3.1-7-7-7h0c-3.9,0-7,3.1-7,7ZM467,222c0,3.9,3.1,7,7,7h0c3.9,0,7-3.1,7-7h0c0-3.9-3.1-7-7-7h0c-3.9,0-7,3.1-7,7ZM383,222c0,3.9,3.1,7,7,7h0c-3.9,0-7,3.1-7,7h0c0,3.9,3.1,7,7,7h0c-3.9,0-7,3.1-7,7h0c0,3.9,3.1,7,7,7h0c3.9,0,7-3.1,7-7h0c0-3.9-3.1-7-7-7h0c3.9,0,7-3.1,7-7h0c0-3.9-3.1-7-7-7h0c3.9,0,7-3.1,7-7h0c0-3.9-3.1-7-7-7h0c-3.9,0-7,3.1-7,7ZM355,222c0,3.9,3.1,7,7,7h0c-3.9,0-7,3.1-7,7h0c0,3.9,3.1,7,7,7h0c3.9,0,7-3.1,7-7h0c0-3.9-3.1-7-7-7h0c3.9,0,7-3.1,7-7h0c0-3.9-3.1-7-7-7h0c-3.9,0-7,3.1-7,7ZM341,222c0,3.9,3.1,7,7,7h0c-3.9,0-7,3.1-7,7h0c0,3.9,3.1,7,7,7h0c3.9,0,7-3.1,7-7h0c0-3.9-3.1-7-7-7h0c3.9,0,7-3.1,7-7h0c0-3.9-3.1-7-7-7h0c-3.9,0-7,3.1-7,7ZM327,222c0,3.9,3.1,7,7,7h0c-3.9,0-7,3.1-7,7h0c0,3.9,3.1,7,7,7h0c3.9,0,7-3.1,7-7h0c0-3.9-3.1-7-7-7h0c3.9,0,7-3.1,7-7h0c0-3.9-3.1-7-7-7h0c-3.9,0-7,3.1-7,7ZM257,222c0,3.9,3.1,7,7,7h0c-3.9,0-7,3.1-7,7h0c0,3.9,3.1,7,7,7h0c-3.9,0-7,3.1-7,7h0c0,3.9,3.1,7,7,7h0c-3.9,0-7,3.1-7,7h0c0,3.9,3.1,7,7,7h0c-3.9,0-7,3.1-7,7h0c0,3.9,3.1,7,7,7h0c3.9,0,7-3.1,7-7h0c0-3.9-3.1-7-7-7h0c3.9,0,7-3.1,7-7h0c0-3.9-3.1-7-7-7h0c3.9,0,7-3.1,7-7h0c0-3.9-3.1-7-7-7h0c3.9,0,7-3.1,7-7h0c0-3.9-3.1-7-7-7h0c3.9,0,7-3.1,7-7h0c0-3.9-3.1-7-7-7h0c-3.9,0-7,3.1-7,7ZM243,222c0,3.9,3.1,7,7,7h0c-3.9,0-7,3.1-7,7h0c0,3.9,3.1,7,7,7h0c-3.9,0-7,3.1-7,7h0c0,3.9,3.1,7,7,7h0c-3.9,0-7,3.1-7,7h0c0,3.9,3.1,7,7,7h0c3.9,0,7-3.1,7-7h0c0-3.9-3.1-7-7-7h0c3.9,0,7-3.1,7-7h0c0-3.9-3.1-7-7-7h0c3.9,0,7-3.1,7-7h0c0-3.9-3.1-7-7-7h0c3.9,0,7-3.1,7-7h0c0-3.9-3.1-7-7-7h0c-3.9,0-7,3.1-7,7ZM187,222c0,3.9,3.1,7,7,7h0c-3.9,0-7,3.1-7,7h0c0,3.9,3.1,7,7,7h0c-3.9,0-7,3.1-7,7h0c0,3.9,3.1,7,7,7h0c3.9,0,7-3.1,7-7h0c0-3.9-3.1-7-7-7h0c3.9,0,7-3.1,7-7h0c0-3.9-3.1-7-7-7h0c3.9,0,7-3.1,7-7h0c0-3.9-3.1-7-7-7h0c-3.9,0-7,3.1-7,7ZM173,222c0,3.9,3.1,7,7,7h0c-3.9,0-7,3.1-7,7h0c0,3.9,3.1,7,7,7h0c3.9,0,7-3.1,7-7h0c0-3.9-3.1-7-7-7h0c3.9,0,7-3.1,7-7h0c0-3.9-3.1-7-7-7h0c-3.9,0-7,3.1-7,7ZM159,222c0,3.9,3.1,7,7,7h0c-3.9,0-7,3.1-7,7h0c0,3.9,3.1,7,7,7h0c-3.9,0-7,3.1-7,7h0c0,3.9,3.1,7,7,7h0c3.9,0,7-3.1,7-7h0c0-3.9-3.1-7-7-7h0c3.9,0,7-3.1,7-7h0c0-3.9-3.1-7-7-7h0c3.9,0,7-3.1,7-7h0c0-3.9-3.1-7-7-7h0c-3.9,0-7,3.1-7,7ZM117,222c0,3.9,3.1,7,7,7h0c-3.9,0-7,3.1-7,7h0c0,3.9,3.1,7,7,7h0c3.9,0,7-3.1,7-7h0c0-3.9-3.1-7-7-7h0c3.9,0,7-3.1,7-7h0c0-3.9-3.1-7-7-7h0c-3.9,0-7,3.1-7,7ZM103,222c0,3.9,3.1,7,7,7h0c3.9,0,7-3.1,7-7h0c0-3.9-3.1-7-7-7h0c-3.9,0-7,3.1-7,7ZM75,222c0,3.9,3.1,7,7,7h0c3.9,0,7-3.1,7-7h0c0-3.9-3.1-7-7-7h0c-3.9,0-7,3.1-7,7ZM47,222c0,3.9,3.1,7,7,7h0c3.9,0,7-3.1,7-7h0c0-3.9-3.1-7-7-7h0c-3.9,0-7,3.1-7,7ZM453,236c0,3.9,3.1,7,7,7h0c3.9,0,7-3.1,7-7h0c0-3.9-3.1-7-7-7h0c-3.9,0-7,3.1-7,7ZM439,236c0,3.9,3.1,7,7,7h0c3.9,0,7-3.1,7-7h0c0-3.9-3.1-7-7-7h0c-3.9,0-7,3.1-7,7ZM425,236c0,3.9,3.1,7,7,7h0c-3.9,0-7,3.1-7,7h0c0,3.9,3.1,7,7,7h0c-3.9,0-7,3.1-7,7h0c0,3.9,3.1,7,7,7h0c-3.9,0-7,3.1-7,7h0c0,3.9,3.1,7,7,7h0c-3.9,0-7,3.1-7,7h0c0,3.9,3.1,7,7,7h0c-3.9,0-7,3.1-7,7h0c0,3.9,3.1,7,7,7h0c3.9,0,7-3.1,7-7h0c0-3.9-3.1-7-7-7h0c3.9,0,7-3.1,7-7h0c0-3.9-3.1-7-7-7h0c3.9,0,7-3.1,7-7h0c0-3.9-3.1-7-7-7h0c3.9,0,7-3.1,7-7h0c0-3.9-3.1-7-7-7h0c3.9,0,7-3.1,7-7h0c0-3.9-3.1-7-7-7h0c3.9,0,7-3.1,7-7h0c0-3.9-3.1-7-7-7h0c-3.9,0-7,3.1-7,7ZM397,236c0,3.9,3.1,7,7,7h0c-3.9,0-7,3.1-7,7h0c0,3.9,3.1,7,7,7h0c3.9,0,7-3.1,7-7h0c0-3.9-3.1-7-7-7h0c3.9,0,7-3.1,7-7h0c0-3.9-3.1-7-7-7h0c-3.9,0-7,3.1-7,7ZM369,236c0,3.9,3.1,7,7,7h0c3.9,0,7-3.1,7-7h0c0-3.9-3.1-7-7-7h0c-3.9,0-7,3.1-7,7ZM313,236c0,3.9,3.1,7,7,7h0c-3.9,0-7,3.1-7,7h0c0,3.9,3.1,7,7,7h0c3.9,0,7-3.1,7-7h0c0-3.9-3.1-7-7-7h0c3.9,0,7-3.1,7-7h0c0-3.9-3.1-7-7-7h0c-3.9,0-7,3.1-7,7ZM271,236c0,3.9,3.1,7,7,7h0c-3.9,0-7,3.1-7,7h0c0,3.9,3.1,7,7,7h0c3.9,0,7-3.1,7-7h0c0-3.9-3.1-7-7-7h0c3.9,0,7-3.1,7-7h0c0-3.9-3.1-7-7-7h0c-3.9,0-7,3.1-7,7ZM229,236c0,3.9,3.1,7,7,7h0c-3.9,0-7,3.1-7,7h0c0,3.9,3.1,7,7,7h0c-3.9,0-7,3.1-7,7h0c0,3.9,3.1,7,7,7h0c-3.9,0-7,3.1-7,7h0c0,3.9,3.1,7,7,7h0c3.9,0,7-3.1,7-7h0c0-3.9-3.1-7-7-7h0c3.9,0,7-3.1,7-7h0c0-3.9-3.1-7-7-7h0c3.9,0,7-3.1,7-7h0c0-3.9-3.1-7-7-7h0c3.9,0,7-3.1,7-7h0c0-3.9-3.1-7-7-7h0c-3.9,0-7,3.1-7,7ZM89,236c0,3.9,3.1,7,7,7h0c3.9,0,7-3.1,7-7h0c0-3.9-3.1-7-7-7h0c-3.9,0-7,3.1-7,7ZM33,236c0,3.9,3.1,7,7,7h0c3.9,0,7-3.1,7-7h0c0-3.9-3.1-7-7-7h0c-3.9,0-7,3.1-7,7ZM467,250c0,3.9,3.1,7,7,7h0c-3.9,0-7,3.1-7,7h0c0,3.9,3.1,7,7,7h0c3.9,0,7-3.1,7-7h0c0-3.9-3.1-7-7-7h0c3.9,0,7-3.1,7-7h0c0-3.9-3.1-7-7-7h0c-3.9,0-7,3.1-7,7ZM411,250c0,3.9,3.1,7,7,7h0c3.9,0,7-3.1,7-7h0c0-3.9-3.1-7-7-7h0c-3.9,0-7,3.1-7,7ZM215,250c0,3.9,3.1,7,7,7h0c3.9,0,7-3.1,7-7h0c0-3.9-3.1-7-7-7h0c-3.9,0-7,3.1-7,7ZM201,250c0,3.9,3.1,7,7,7h0c-3.9,0-7,3.1-7,7h0c0,3.9,3.1,7,7,7h0c-3.9,0-7,3.1-7,7h0c0,3.9,3.1,7,7,7h0c-3.9,0-7,3.1-7,7h0c0,3.9,3.1,7,7,7h0c-3.9,0-7,3.1-7,7h0c0,3.9,3.1,7,7,7h0c3.9,0,7-3.1,7-7h0c0-3.9-3.1-7-7-7h0c3.9,0,7-3.1,7-7h0c0-3.9-3.1-7-7-7h0c3.9,0,7-3.1,7-7h0c0-3.9-3.1-7-7-7h0c3.9,0,7-3.1,7-7h0c0-3.9-3.1-7-7-7h0c3.9,0,7-3.1,7-7h0c0-3.9-3.1-7-7-7h0c-3.9,0-7,3.1-7,7ZM131,250c0,3.9,3.1,7,7,7h0c-3.9,0-7,3.1-7,7h0c0,3.9,3.1,7,7,7h0c-3.9,0-7,3.1-7,7h0c0,3.9,3.1,7,7,7h0c3.9,0,7-3.1,7-7h0c0-3.9-3.1-7-7-7h0c3.9,0,7-3.1,7-7h0c0-3.9-3.1-7-7-7h0c3.9,0,7-3.1,7-7h0c0-3.9-3.1-7-7-7h0c-3.9,0-7,3.1-7,7ZM103,250c0,3.9,3.1,7,7,7h0c3.9,0,7-3.1,7-7h0c0-3.9-3.1-7-7-7h0c-3.9,0-7,3.1-7,7ZM75,250c0,3.9,3.1,7,7,7h0c3.9,0,7-3.1,7-7h0c0-3.9-3.1-7-7-7h0c-3.9,0-7,3.1-7,7ZM439,264c0,3.9,3.1,7,7,7h0c-3.9,0-7,3.1-7,7h0c0,3.9,3.1,7,7,7h0c3.9,0,7-3.1,7-7h0c0-3.9-3.1-7-7-7h0c3.9,0,7-3.1,7-7h0c0-3.9-3.1-7-7-7h0c-3.9,0-7,3.1-7,7ZM341,264c0,3.9,3.1,7,7,7h0c3.9,0,7-3.1,7-7h0c0-3.9-3.1-7-7-7h0c-3.9,0-7,3.1-7,7ZM327,264c0,3.9,3.1,7,7,7h0c3.9,0,7-3.1,7-7h0c0-3.9-3.1-7-7-7h0c-3.9,0-7,3.1-7,7ZM145,264c0,3.9,3.1,7,7,7h0c-3.9,0-7,3.1-7,7h0c0,3.9,3.1,7,7,7h0c3.9,0,7-3.1,7-7h0c0-3.9-3.1-7-7-7h0c3.9,0,7-3.1,7-7h0c0-3.9-3.1-7-7-7h0c-3.9,0-7,3.1-7,7ZM117,264c0,3.9,3.1,7,7,7h0c-3.9,0-7,3.1-7,7h0c0,3.9,3.1,7,7,7h0c-3.9,0-7,3.1-7,7h0c0,3.9,3.1,7,7,7h0c-3.9,0-7,3.1-7,7h0c0,3.9,3.1,7,7,7h0c-3.9,0-7,3.1-7,7h0c0,3.9,3.1,7,7,7h0c-3.9,0-7,3.1-7,7h0c0,3.9,3.1,7,7,7h0c3.9,0,7-3.1,7-7h0c0-3.9-3.1-7-7-7h0c3.9,0,7-3.1,7-7h0c0-3.9-3.1-7-7-7h0c3.9,0,7-3.1,7-7h0c0-3.9-3.1-7-7-7h0c3.9,0,7-3.1,7-7h0c0-3.9-3.1-7-7-7h0c3.9,0,7-3.1,7-7h0c0-3.9-3.1-7-7-7h0c3.9,0,7-3.1,7-7h0c0-3.9-3.1-7-7-7h0c-3.9,0-7,3.1-7,7ZM89,264c0,3.9,3.1,7,7,7h0c3.9,0,7-3.1,7-7h0c0-3.9-3.1-7-7-7h0c-3.9,0-7,3.1-7,7ZM61,264c0,3.9,3.1,7,7,7h0c3.9,0,7-3.1,7-7h0c0-3.9-3.1-7-7-7h0c-3.9,0-7,3.1-7,7ZM47,264c0,3.9,3.1,7,7,7h0c-3.9,0-7,3.1-7,7h0c0,3.9,3.1,7,7,7h0c-3.9,0-7,3.1-7,7h0c0,3.9,3.1,7,7,7h0c3.9,0,7-3.1,7-7h0c0-3.9-3.1-7-7-7h0c3.9,0,7-3.1,7-7h0c0-3.9-3.1-7-7-7h0c3.9,0,7-3.1,7-7h0c0-3.9-3.1-7-7-7h0c-3.9,0-7,3.1-7,7ZM453,278c0,3.9,3.1,7,7,7h0c3.9,0,7-3.1,7-7h0c0-3.9-3.1-7-7-7h0c-3.9,0-7,3.1-7,7ZM369,278c0,3.9,3.1,7,7,7h0c3.9,0,7-3.1,7-7h0c0-3.9-3.1-7-7-7h0c-3.9,0-7,3.1-7,7ZM215,278c0,3.9,3.1,7,7,7h0c3.9,0,7-3.1,7-7h0c0-3.9-3.1-7-7-7h0c-3.9,0-7,3.1-7,7ZM159,278c0,3.9,3.1,7,7,7h0c3.9,0,7-3.1,7-7h0c0-3.9-3.1-7-7-7h0c-3.9,0-7,3.1-7,7ZM103,278c0,3.9,3.1,7,7,7h0c3.9,0,7-3.1,7-7h0c0-3.9-3.1-7-7-7h0c-3.9,0-7,3.1-7,7ZM33,278c0,3.9,3.1,7,7,7h0c-3.9,0-7,3.1-7,7h0c0,3.9,3.1,7,7,7h0c-3.9,0-7,3.1-7,7h0c0,3.9,3.1,7,7,7h0c3.9,0,7-3.1,7-7h0c0-3.9-3.1-7-7-7h0c3.9,0,7-3.1,7-7h0c0-3.9-3.1-7-7-7h0c3.9,0,7-3.1,7-7h0c0-3.9-3.1-7-7-7h0c-3.9,0-7,3.1-7,7ZM19,278c0,3.9,3.1,7,7,7h0c3.9,0,7-3.1,7-7h0c0-3.9-3.1-7-7-7h0c-3.9,0-7,3.1-7,7ZM467,292c0,3.9,3.1,7,7,7h0c-3.9,0-7,3.1-7,7h0c0,3.9,3.1,7,7,7h0c-3.9,0-7,3.1-7,7h0c0,3.9,3.1,7,7,7h0c-3.9,0-7,3.1-7,7h0c0,3.9,3.1,7,7,7h0c3.9,0,7-3.1,7-7h0c0-3.9-3.1-7-7-7h0c3.9,0,7-3.1,7-7h0c0-3.9-3.1-7-7-7h0c3.9,0,7-3.1,7-7h0c0-3.9-3.1-7-7-7h0c3.9,0,7-3.1,7-7h0c0-3.9-3.1-7-7-7h0c-3.9,0-7,3.1-7,7ZM341,292c0,3.9,3.1,7,7,7h0c-3.9,0-7,3.1-7,7h0c0,3.9,3.1,7,7,7h0c-3.9,0-7,3.1-7,7h0c0,3.9,3.1,7,7,7h0c3.9,0,7-3.1,7-7h0c0-3.9-3.1-7-7-7h0c3.9,0,7-3.1,7-7h0c0-3.9-3.1-7-7-7h0c3.9,0,7-3.1,7-7h0c0-3.9-3.1-7-7-7h0c-3.9,0-7,3.1-7,7ZM327,292c0,3.9,3.1,7,7,7h0c3.9,0,7-3.1,7-7h0c0-3.9-3.1-7-7-7h0c-3.9,0-7,3.1-7,7ZM313,292c0,3.9,3.1,7,7,7h0c3.9,0,7-3.1,7-7h0c0-3.9-3.1-7-7-7h0c-3.9,0-7,3.1-7,7ZM243,292c0,3.9,3.1,7,7,7h0c-3.9,0-7,3.1-7,7h0c0,3.9,3.1,7,7,7h0c-3.9,0-7,3.1-7,7h0c0,3.9,3.1,7,7,7h0c-3.9,0-7,3.1-7,7h0c0,3.9,3.1,7,7,7h0c3.9,0,7-3.1,7-7h0c0-3.9-3.1-7-7-7h0c3.9,0,7-3.1,7-7h0c0-3.9-3.1-7-7-7h0c3.9,0,7-3.1,7-7h0c0-3.9-3.1-7-7-7h0c3.9,0,7-3.1,7-7h0c0-3.9-3.1-7-7-7h0c-3.9,0-7,3.1-7,7ZM173,292c0,3.9,3.1,7,7,7h0c-3.9,0-7,3.1-7,7h0c0,3.9,3.1,7,7,7h0c3.9,0,7-3.1,7-7h0c0-3.9-3.1-7-7-7h0c3.9,0,7-3.1,7-7h0c0-3.9-3.1-7-7-7h0c-3.9,0-7,3.1-7,7ZM75,292c0,3.9,3.1,7,7,7h0c3.9,0,7-3.1,7-7h0c0-3.9-3.1-7-7-7h0c-3.9,0-7,3.1-7,7ZM439,306c0,3.9,3.1,7,7,7h0c3.9,0,7-3.1,7-7h0c0-3.9-3.1-7-7-7h0c-3.9,0-7,3.1-7,7ZM383,306c0,3.9,3.1,7,7,7h0c3.9,0,7-3.1,7-7h0c0-3.9-3.1-7-7-7h0c-3.9,0-7,3.1-7,7ZM369,306c0,3.9,3.1,7,7,7h0c-3.9,0-7,3.1-7,7h0c0,3.9,3.1,7,7,7h0c3.9,0,7-3.1,7-7h0c0-3.9-3.1-7-7-7h0c3.9,0,7-3.1,7-7h0c0-3.9-3.1-7-7-7h0c-3.9,0-7,3.1-7,7ZM355,306c0,3.9,3.1,7,7,7h0c-3.9,0-7,3.1-7,7h0c0,3.9,3.1,7,7,7h0c-3.9,0-7,3.1-7,7h0c0,3.9,3.1,7,7,7h0c-3.9,0-7,3.1-7,7h0c0,3.9,3.1,7,7,7h0c-3.9,0-7,3.1-7,7h0c0,3.9,3.1,7,7,7h0c-3.9,0-7,3.1-7,7h0c0,3.9,3.1,7,7,7h0c-3.9,0-7,3.1-7,7h0c0,3.9,3.1,7,7,7h0c-3.9,0-7,3.1-7,7h0c0,3.9,3.1,7,7,7h0c-3.9,0-7,3.1-7,7h0c0,3.9,3.1,7,7,7h0c-3.9,0-7,3.1-7,7h0c0,3.9,3.1,7,7,7h0c3.9,0,7-3.1,7-7h0c0-3.9-3.1-7-7-7h0c3.9,0,7-3.1,7-7h0c0-3.9-3.1-7-7-7h0c3.9,0,7-3.1,7-7h0c0-3.9-3.1-7-7-7h0c3.9,0,7-3.1,7-7h0c0-3.9-3.1-7-7-7h0c3.9,0,7-3.1,7-7h0c0-3.9-3.1-7-7-7h0c3.9,0,7-3.1,7-7h0c0-3.9-3.1-7-7-7h0c3.9,0,7-3.1,7-7h0c0-3.9-3.1-7-7-7h0c3.9,0,7-3.1,7-7h0c0-3.9-3.1-7-7-7h0c3.9,0,7-3.1,7-7h0c0-3.9-3.1-7-7-7h0c3.9,0,7-3.1,7-7h0c0-3.9-3.1-7-7-7h0c-3.9,0-7,3.1-7,7ZM299,306c0,3.9,3.1,7,7,7h0c3.9,0,7-3.1,7-7h0c0-3.9-3.1-7-7-7h0c-3.9,0-7,3.1-7,7ZM215,306c0,3.9,3.1,7,7,7h0c3.9,0,7-3.1,7-7h0c0-3.9-3.1-7-7-7h0c-3.9,0-7,3.1-7,7ZM159,306c0,3.9,3.1,7,7,7h0c3.9,0,7-3.1,7-7h0c0-3.9-3.1-7-7-7h0c-3.9,0-7,3.1-7,7ZM103,306c0,3.9,3.1,7,7,7h0c3.9,0,7-3.1,7-7h0c0-3.9-3.1-7-7-7h0c-3.9,0-7,3.1-7,7ZM89,306c0,3.9,3.1,7,7,7h0c-3.9,0-7,3.1-7,7h0c0,3.9,3.1,7,7,7h0c-3.9,0-7,3.1-7,7h0c0,3.9,3.1,7,7,7h0c-3.9,0-7,3.1-7,7h0c0,3.9,3.1,7,7,7h0c-3.9,0-7,3.1-7,7h0c0,3.9,3.1,7,7,7h0c3.9,0,7-3.1,7-7h0c0-3.9-3.1-7-7-7h0c3.9,0,7-3.1,7-7h0c0-3.9-3.1-7-7-7h0c3.9,0,7-3.1,7-7h0c0-3.9-3.1-7-7-7h0c3.9,0,7-3.1,7-7h0c0-3.9-3.1-7-7-7h0c3.9,0,7-3.1,7-7h0c0-3.9-3.1-7-7-7h0c-3.9,0-7,3.1-7,7ZM453,320c0,3.9,3.1,7,7,7h0c3.9,0,7-3.1,7-7h0c0-3.9-3.1-7-7-7h0c-3.9,0-7,3.1-7,7ZM313,320c0,3.9,3.1,7,7,7h0c-3.9,0-7,3.1-7,7h0c0,3.9,3.1,7,7,7h0c3.9,0,7-3.1,7-7h0c0-3.9-3.1-7-7-7h0c3.9,0,7-3.1,7-7h0c0-3.9-3.1-7-7-7h0c-3.9,0-7,3.1-7,7ZM271,320c0,3.9,3.1,7,7,7h0c-3.9,0-7,3.1-7,7h0c0,3.9,3.1,7,7,7h0c-3.9,0-7,3.1-7,7h0c0,3.9,3.1,7,7,7h0c3.9,0,7-3.1,7-7h0c0-3.9-3.1-7-7-7h0c3.9,0,7-3.1,7-7h0c0-3.9-3.1-7-7-7h0c3.9,0,7-3.1,7-7h0c0-3.9-3.1-7-7-7h0c-3.9,0-7,3.1-7,7ZM229,320c0,3.9,3.1,7,7,7h0c3.9,0,7-3.1,7-7h0c0-3.9-3.1-7-7-7h0c-3.9,0-7,3.1-7,7ZM145,320c0,3.9,3.1,7,7,7h0c-3.9,0-7,3.1-7,7h0c0,3.9,3.1,7,7,7h0c-3.9,0-7,3.1-7,7h0c0,3.9,3.1,7,7,7h0c3.9,0,7-3.1,7-7h0c0-3.9-3.1-7-7-7h0c3.9,0,7-3.1,7-7h0c0-3.9-3.1-7-7-7h0c3.9,0,7-3.1,7-7h0c0-3.9-3.1-7-7-7h0c-3.9,0-7,3.1-7,7ZM131,320c0,3.9,3.1,7,7,7h0c-3.9,0-7,3.1-7,7h0c0,3.9,3.1,7,7,7h0c-3.9,0-7,3.1-7,7h0c0,3.9,3.1,7,7,7h0c3.9,0,7-3.1,7-7h0c0-3.9-3.1-7-7-7h0c3.9,0,7-3.1,7-7h0c0-3.9-3.1-7-7-7h0c3.9,0,7-3.1,7-7h0c0-3.9-3.1-7-7-7h0c-3.9,0-7,3.1-7,7ZM75,320c0,3.9,3.1,7,7,7h0c-3.9,0-7,3.1-7,7h0c0,3.9,3.1,7,7,7h0c3.9,0,7-3.1,7-7h0c0-3.9-3.1-7-7-7h0c3.9,0,7-3.1,7-7h0c0-3.9-3.1-7-7-7h0c-3.9,0-7,3.1-7,7ZM61,320c0,3.9,3.1,7,7,7h0c-3.9,0-7,3.1-7,7h0c0,3.9,3.1,7,7,7h0c3.9,0,7-3.1,7-7h0c0-3.9-3.1-7-7-7h0c3.9,0,7-3.1,7-7h0c0-3.9-3.1-7-7-7h0c-3.9,0-7,3.1-7,7ZM47,320c0,3.9,3.1,7,7,7h0c3.9,0,7-3.1,7-7h0c0-3.9-3.1-7-7-7h0c-3.9,0-7,3.1-7,7ZM439,334c0,3.9,3.1,7,7,7h0c3.9,0,7-3.1,7-7h0c0-3.9-3.1-7-7-7h0c-3.9,0-7,3.1-7,7ZM411,334c0,3.9,3.1,7,7,7h0c3.9,0,7-3.1,7-7h0c0-3.9-3.1-7-7-7h0c-3.9,0-7,3.1-7,7ZM397,334c0,3.9,3.1,7,7,7h0c3.9,0,7-3.1,7-7h0c0-3.9-3.1-7-7-7h0c-3.9,0-7,3.1-7,7ZM215,334c0,3.9,3.1,7,7,7h0c-3.9,0-7,3.1-7,7h0c0,3.9,3.1,7,7,7h0c-3.9,0-7,3.1-7,7h0c0,3.9,3.1,7,7,7h0c-3.9,0-7,3.1-7,7h0c0,3.9,3.1,7,7,7h0c-3.9,0-7,3.1-7,7h0c0,3.9,3.1,7,7,7h0c3.9,0,7-3.1,7-7h0c0-3.9-3.1-7-7-7h0c3.9,0,7-3.1,7-7h0c0-3.9-3.1-7-7-7h0c3.9,0,7-3.1,7-7h0c0-3.9-3.1-7-7-7h0c3.9,0,7-3.1,7-7h0c0-3.9-3.1-7-7-7h0c3.9,0,7-3.1,7-7h0c0-3.9-3.1-7-7-7h0c-3.9,0-7,3.1-7,7ZM187,334c0,3.9,3.1,7,7,7h0c-3.9,0-7,3.1-7,7h0c0,3.9,3.1,7,7,7h0c3.9,0,7-3.1,7-7h0c0-3.9-3.1-7-7-7h0c3.9,0,7-3.1,7-7h0c0-3.9-3.1-7-7-7h0c-3.9,0-7,3.1-7,7ZM173,334c0,3.9,3.1,7,7,7h0c3.9,0,7-3.1,7-7h0c0-3.9-3.1-7-7-7h0c-3.9,0-7,3.1-7,7ZM103,334c0,3.9,3.1,7,7,7h0c3.9,0,7-3.1,7-7h0c0-3.9-3.1-7-7-7h0c-3.9,0-7,3.1-7,7ZM453,348c0,3.9,3.1,7,7,7h0c3.9,0,7-3.1,7-7h0c0-3.9-3.1-7-7-7h0c-3.9,0-7,3.1-7,7ZM425,348c0,3.9,3.1,7,7,7h0c-3.9,0-7,3.1-7,7h0c0,3.9,3.1,7,7,7h0c3.9,0,7-3.1,7-7h0c0-3.9-3.1-7-7-7h0c3.9,0,7-3.1,7-7h0c0-3.9-3.1-7-7-7h0c-3.9,0-7,3.1-7,7ZM299,348c0,3.9,3.1,7,7,7h0c-3.9,0-7,3.1-7,7h0c0,3.9,3.1,7,7,7h0c-3.9,0-7,3.1-7,7h0c0,3.9,3.1,7,7,7h0c-3.9,0-7,3.1-7,7h0c0,3.9,3.1,7,7,7h0c3.9,0,7-3.1,7-7h0c0-3.9-3.1-7-7-7h0c3.9,0,7-3.1,7-7h0c0-3.9-3.1-7-7-7h0c3.9,0,7-3.1,7-7h0c0-3.9-3.1-7-7-7h0c3.9,0,7-3.1,7-7h0c0-3.9-3.1-7-7-7h0c-3.9,0-7,3.1-7,7ZM257,348c0,3.9,3.1,7,7,7h0c3.9,0,7-3.1,7-7h0c0-3.9-3.1-7-7-7h0c-3.9,0-7,3.1-7,7ZM229,348c0,3.9,3.1,7,7,7h0c3.9,0,7-3.1,7-7h0c0-3.9-3.1-7-7-7h0c-3.9,0-7,3.1-7,7ZM159,348c0,3.9,3.1,7,7,7h0c3.9,0,7-3.1,7-7h0c0-3.9-3.1-7-7-7h0c-3.9,0-7,3.1-7,7ZM47,348c0,3.9,3.1,7,7,7h0c3.9,0,7-3.1,7-7h0c0-3.9-3.1-7-7-7h0c-3.9,0-7,3.1-7,7ZM19,348c0,3.9,3.1,7,7,7h0c-3.9,0-7,3.1-7,7h0c0,3.9,3.1,7,7,7h0c3.9,0,7-3.1,7-7h0c0-3.9-3.1-7-7-7h0c3.9,0,7-3.1,7-7h0c0-3.9-3.1-7-7-7h0c-3.9,0-7,3.1-7,7ZM467,362c0,3.9,3.1,7,7,7h0c3.9,0,7-3.1,7-7h0c0-3.9-3.1-7-7-7h0c-3.9,0-7,3.1-7,7ZM411,362c0,3.9,3.1,7,7,7h0c-3.9,0-7,3.1-7,7h0c0,3.9,3.1,7,7,7h0c-3.9,0-7,3.1-7,7h0c0,3.9,3.1,7,7,7h0c-3.9,0-7,3.1-7,7h0c0,3.9,3.1,7,7,7h0c-3.9,0-7,3.1-7,7h0c0,3.9,3.1,7,7,7h0c-3.9,0-7,3.1-7,7h0c0,3.9,3.1,7,7,7h0c3.9,0,7-3.1,7-7h0c0-3.9-3.1-7-7-7h0c3.9,0,7-3.1,7-7h0c0-3.9-3.1-7-7-7h0c3.9,0,7-3.1,7-7h0c0-3.9-3.1-7-7-7h0c3.9,0,7-3.1,7-7h0c0-3.9-3.1-7-7-7h0c3.9,0,7-3.1,7-7h0c0-3.9-3.1-7-7-7h0c3.9,0,7-3.1,7-7h0c0-3.9-3.1-7-7-7h0c-3.9,0-7,3.1-7,7ZM397,362c0,3.9,3.1,7,7,7h0c3.9,0,7-3.1,7-7h0c0-3.9-3.1-7-7-7h0c-3.9,0-7,3.1-7,7ZM383,362c0,3.9,3.1,7,7,7h0c3.9,0,7-3.1,7-7h0c0-3.9-3.1-7-7-7h0c-3.9,0-7,3.1-7,7ZM369,362c0,3.9,3.1,7,7,7h0c3.9,0,7-3.1,7-7h0c0-3.9-3.1-7-7-7h0c-3.9,0-7,3.1-7,7ZM341,362c0,3.9,3.1,7,7,7h0c3.9,0,7-3.1,7-7h0c0-3.9-3.1-7-7-7h0c-3.9,0-7,3.1-7,7ZM285,362c0,3.9,3.1,7,7,7h0c3.9,0,7-3.1,7-7h0c0-3.9-3.1-7-7-7h0c-3.9,0-7,3.1-7,7ZM243,362c0,3.9,3.1,7,7,7h0c3.9,0,7-3.1,7-7h0c0-3.9-3.1-7-7-7h0c-3.9,0-7,3.1-7,7ZM201,362c0,3.9,3.1,7,7,7h0c-3.9,0-7,3.1-7,7h0c0,3.9,3.1,7,7,7h0c3.9,0,7-3.1,7-7h0c0-3.9-3.1-7-7-7h0c3.9,0,7-3.1,7-7h0c0-3.9-3.1-7-7-7h0c-3.9,0-7,3.1-7,7ZM173,362c0,3.9,3.1,7,7,7h0c-3.9,0-7,3.1-7,7h0c0,3.9,3.1,7,7,7h0c3.9,0,7-3.1,7-7h0c0-3.9-3.1-7-7-7h0c3.9,0,7-3.1,7-7h0c0-3.9-3.1-7-7-7h0c-3.9,0-7,3.1-7,7ZM117,362c0,3.9,3.1,7,7,7h0c3.9,0,7-3.1,7-7h0c0-3.9-3.1-7-7-7h0c-3.9,0-7,3.1-7,7ZM103,362c0,3.9,3.1,7,7,7h0c3.9,0,7-3.1,7-7h0c0-3.9-3.1-7-7-7h0c-3.9,0-7,3.1-7,7ZM453,376c0,3.9,3.1,7,7,7h0c-3.9,0-7,3.1-7,7h0c0,3.9,3.1,7,7,7h0c3.9,0,7-3.1,7-7h0c0-3.9-3.1-7-7-7h0c3.9,0,7-3.1,7-7h0c0-3.9-3.1-7-7-7h0c-3.9,0-7,3.1-7,7ZM313,376c0,3.9,3.1,7,7,7h0c3.9,0,7-3.1,7-7h0c0-3.9-3.1-7-7-7h0c-3.9,0-7,3.1-7,7ZM271,376c0,3.9,3.1,7,7,7h0c3.9,0,7-3.1,7-7h0c0-3.9-3.1-7-7-7h0c-3.9,0-7,3.1-7,7ZM229,376c0,3.9,3.1,7,7,7h0c-3.9,0-7,3.1-7,7h0c0,3.9,3.1,7,7,7h0c3.9,0,7-3.1,7-7h0c0-3.9-3.1-7-7-7h0c3.9,0,7-3.1,7-7h0c0-3.9-3.1-7-7-7h0c-3.9,0-7,3.1-7,7ZM145,376c0,3.9,3.1,7,7,7h0c3.9,0,7-3.1,7-7h0c0-3.9-3.1-7-7-7h0c-3.9,0-7,3.1-7,7ZM131,376c0,3.9,3.1,7,7,7h0c3.9,0,7-3.1,7-7h0c0-3.9-3.1-7-7-7h0c-3.9,0-7,3.1-7,7ZM439,390c0,3.9,3.1,7,7,7h0c-3.9,0-7,3.1-7,7h0c0,3.9,3.1,7,7,7h0c-3.9,0-7,3.1-7,7h0c0,3.9,3.1,7,7,7h0c-3.9,0-7,3.1-7,7h0c0,3.9,3.1,7,7,7h0c3.9,0,7-3.1,7-7h0c0-3.9-3.1-7-7-7h0c3.9,0,7-3.1,7-7h0c0-3.9-3.1-7-7-7h0c3.9,0,7-3.1,7-7h0c0-3.9-3.1-7-7-7h0c3.9,0,7-3.1,7-7h0c0-3.9-3.1-7-7-7h0c-3.9,0-7,3.1-7,7ZM425,390c0,3.9,3.1,7,7,7h0c-3.9,0-7,3.1-7,7h0c0,3.9,3.1,7,7,7h0c-3.9,0-7,3.1-7,7h0c0,3.9,3.1,7,7,7h0c3.9,0,7-3.1,7-7h0c0-3.9-3.1-7-7-7h0c3.9,0,7-3.1,7-7h0c0-3.9-3.1-7-7-7h0c3.9,0,7-3.1,7-7h0c0-3.9-3.1-7-7-7h0c-3.9,0-7,3.1-7,7ZM383,390c0,3.9,3.1,7,7,7h0c3.9,0,7-3.1,7-7h0c0-3.9-3.1-7-7-7h0c-3.9,0-7,3.1-7,7ZM243,390c0,3.9,3.1,7,7,7h0c3.9,0,7-3.1,7-7h0c0-3.9-3.1-7-7-7h0c-3.9,0-7,3.1-7,7ZM187,390c0,3.9,3.1,7,7,7h0c3.9,0,7-3.1,7-7h0c0-3.9-3.1-7-7-7h0c-3.9,0-7,3.1-7,7ZM327,404c0,3.9,3.1,7,7,7h0c-3.9,0-7,3.1-7,7h0c0,3.9,3.1,7,7,7h0c3.9,0,7-3.1,7-7h0c0-3.9-3.1-7-7-7h0c3.9,0,7-3.1,7-7h0c0-3.9-3.1-7-7-7h0c-3.9,0-7,3.1-7,7ZM313,404c0,3.9,3.1,7,7,7h0c3.9,0,7-3.1,7-7h0c0-3.9-3.1-7-7-7h0c-3.9,0-7,3.1-7,7ZM285,404c0,3.9,3.1,7,7,7h0c3.9,0,7-3.1,7-7h0c0-3.9-3.1-7-7-7h0c-3.9,0-7,3.1-7,7ZM271,404c0,3.9,3.1,7,7,7h0c3.9,0,7-3.1,7-7h0c0-3.9-3.1-7-7-7h0c-3.9,0-7,3.1-7,7ZM201,404c0,3.9,3.1,7,7,7h0c3.9,0,7-3.1,7-7h0c0-3.9-3.1-7-7-7h0c-3.9,0-7,3.1-7,7ZM131,404c0,3.9,3.1,7,7,7h0c-3.9,0-7,3.1-7,7h0c0,3.9,3.1,7,7,7h0c3.9,0,7-3.1,7-7h0c0-3.9-3.1-7-7-7h0c3.9,0,7-3.1,7-7h0c0-3.9-3.1-7-7-7h0c-3.9,0-7,3.1-7,7ZM397,418c0,3.9,3.1,7,7,7h0c3.9,0,7-3.1,7-7h0c0-3.9-3.1-7-7-7h0c-3.9,0-7,3.1-7,7ZM383,418c0,3.9,3.1,7,7,7h0c-3.9,0-7,3.1-7,7h0c0,3.9,3.1,7,7,7h0c3.9,0,7-3.1,7-7h0c0-3.9-3.1-7-7-7h0c3.9,0,7-3.1,7-7h0c0-3.9-3.1-7-7-7h0c-3.9,0-7,3.1-7,7ZM369,418c0,3.9,3.1,7,7,7h0c3.9,0,7-3.1,7-7h0c0-3.9-3.1-7-7-7h0c-3.9,0-7,3.1-7,7ZM299,418c0,3.9,3.1,7,7,7h0c-3.9,0-7,3.1-7,7h0c0,3.9,3.1,7,7,7h0c3.9,0,7-3.1,7-7h0c0-3.9-3.1-7-7-7h0c3.9,0,7-3.1,7-7h0c0-3.9-3.1-7-7-7h0c-3.9,0-7,3.1-7,7ZM243,418c0,3.9,3.1,7,7,7h0c-3.9,0-7,3.1-7,7h0c0,3.9,3.1,7,7,7h0c3.9,0,7-3.1,7-7h0c0-3.9-3.1-7-7-7h0c3.9,0,7-3.1,7-7h0c0-3.9-3.1-7-7-7h0c-3.9,0-7,3.1-7,7ZM187,418c0,3.9,3.1,7,7,7h0c-3.9,0-7,3.1-7,7h0c0,3.9,3.1,7,7,7h0c3.9,0,7-3.1,7-7h0c0-3.9-3.1-7-7-7h0c3.9,0,7-3.1,7-7h0c0-3.9-3.1-7-7-7h0c-3.9,0-7,3.1-7,7ZM313,432c0,3.9,3.1,7,7,7h0c-3.9,0-7,3.1-7,7h0c0,3.9,3.1,7,7,7h0c-3.9,0-7,3.1-7,7h0c0,3.9,3.1,7,7,7h0c3.9,0,7-3.1,7-7h0c0-3.9-3.1-7-7-7h0c3.9,0,7-3.1,7-7h0c0-3.9-3.1-7-7-7h0c3.9,0,7-3.1,7-7h0c0-3.9-3.1-7-7-7h0c-3.9,0-7,3.1-7,7ZM271,432c0,3.9,3.1,7,7,7h0c3.9,0,7-3.1,7-7h0c0-3.9-3.1-7-7-7h0c-3.9,0-7,3.1-7,7ZM257,432c0,3.9,3.1,7,7,7h0c-3.9,0-7,3.1-7,7h0c0,3.9,3.1,7,7,7h0c3.9,0,7-3.1,7-7h0c0-3.9-3.1-7-7-7h0c3.9,0,7-3.1,7-7h0c0-3.9-3.1-7-7-7h0c-3.9,0-7,3.1-7,7ZM201,432c0,3.9,3.1,7,7,7h0c3.9,0,7-3.1,7-7h0c0-3.9-3.1-7-7-7h0c-3.9,0-7,3.1-7,7ZM159,432c0,3.9,3.1,7,7,7h0c3.9,0,7-3.1,7-7h0c0-3.9-3.1-7-7-7h0c-3.9,0-7,3.1-7,7ZM145,432c0,3.9,3.1,7,7,7h0c-3.9,0-7,3.1-7,7h0c0,3.9,3.1,7,7,7h0c-3.9,0-7,3.1-7,7h0c0,3.9,3.1,7,7,7h0c3.9,0,7-3.1,7-7h0c0-3.9-3.1-7-7-7h0c3.9,0,7-3.1,7-7h0c0-3.9-3.1-7-7-7h0c3.9,0,7-3.1,7-7h0c0-3.9-3.1-7-7-7h0c-3.9,0-7,3.1-7,7ZM425,446c0,3.9,3.1,7,7,7h0c-3.9,0-7,3.1-7,7h0c0,3.9,3.1,7,7,7h0c3.9,0,7-3.1,7-7h0c0-3.9-3.1-7-7-7h0c3.9,0,7-3.1,7-7h0c0-3.9-3.1-7-7-7h0c-3.9,0-7,3.1-7,7ZM369,446c0,3.9,3.1,7,7,7h0c-3.9,0-7,3.1-7,7h0c0,3.9,3.1,7,7,7h0c3.9,0,7-3.1,7-7h0c0-3.9-3.1-7-7-7h0c3.9,0,7-3.1,7-7h0c0-3.9-3.1-7-7-7h0c-3.9,0-7,3.1-7,7ZM215,446c0,3.9,3.1,7,7,7h0c-3.9,0-7,3.1-7,7h0c0,3.9,3.1,7,7,7h0c3.9,0,7-3.1,7-7h0c0-3.9-3.1-7-7-7h0c3.9,0,7-3.1,7-7h0c0-3.9-3.1-7-7-7h0c-3.9,0-7,3.1-7,7ZM131,446c0,3.9,3.1,7,7,7h0c3.9,0,7-3.1,7-7h0c0-3.9-3.1-7-7-7h0c-3.9,0-7,3.1-7,7ZM383,460c0,3.9,3.1,7,7,7h0c3.9,0,7-3.1,7-7h0c0-3.9-3.1-7-7-7h0c-3.9,0-7,3.1-7,7ZM355,460c0,3.9,3.1,7,7,7h0c-3.9,0-7,3.1-7,7h0c0,3.9,3.1,7,7,7h0c3.9,0,7-3.1,7-7h0c0-3.9-3.1-7-7-7h0c3.9,0,7-3.1,7-7h0c0-3.9-3.1-7-7-7h0c-3.9,0-7,3.1-7,7ZM341,460c0,3.9,3.1,7,7,7h0c3.9,0,7-3.1,7-7h0c0-3.9-3.1-7-7-7h0c-3.9,0-7,3.1-7,7ZM327,460c0,3.9,3.1,7,7,7h0c3.9,0,7-3.1,7-7h0c0-3.9-3.1-7-7-7h0c-3.9,0-7,3.1-7,7ZM299,460c0,3.9,3.1,7,7,7h0c-3.9,0-7,3.1-7,7h0c0,3.9,3.1,7,7,7h0c3.9,0,7-3.1,7-7h0c0-3.9-3.1-7-7-7h0c3.9,0,7-3.1,7-7h0c0-3.9-3.1-7-7-7h0c-3.9,0-7,3.1-7,7ZM285,460c0,3.9,3.1,7,7,7h0c3.9,0,7-3.1,7-7h0c0-3.9-3.1-7-7-7h0c-3.9,0-7,3.1-7,7ZM271,460c0,3.9,3.1,7,7,7h0c3.9,0,7-3.1,7-7h0c0-3.9-3.1-7-7-7h0c-3.9,0-7,3.1-7,7ZM243,460c0,3.9,3.1,7,7,7h0c3.9,0,7-3.1,7-7h0c0-3.9-3.1-7-7-7h0c-3.9,0-7,3.1-7,7ZM173,460c0,3.9,3.1,7,7,7h0c3.9,0,7-3.1,7-7h0c0-3.9-3.1-7-7-7h0c-3.9,0-7,3.1-7,7ZM467,474c0,3.9,3.1,7,7,7h0c3.9,0,7-3.1,7-7h0c0-3.9-3.1-7-7-7h0c-3.9,0-7,3.1-7,7ZM397,474c0,3.9,3.1,7,7,7h0c3.9,0,7-3.1,7-7h0c0-3.9-3.1-7-7-7h0c-3.9,0-7,3.1-7,7ZM187,474c0,3.9,3.1,7,7,7h0c3.9,0,7-3.1,7-7h0c0-3.9-3.1-7-7-7h0c-3.9,0-7,3.1-7,7Z"/>
        <g class="cls-4">
          <rect width="500" height="500"/>
        </g>
      </g>
      <g>
        <path d="M19,54v28c0,19.3,15.7,35,35,35h28c19.3,0,35-15.7,35-35v-28c0-19.3-15.7-35-35-35h-28c-19.3,0-35,15.7-35,35M54,33h28c11.6,0,21,9.4,21,21v28c0,11.6-9.4,21-21,21h-28c-11.6,0-21-9.4-21-21v-28c0-11.6,9.4-21,21-21Z"/>
        <g class="cls-2">
          <rect x="19" y="19" width="98" height="98"/>
        </g>
      </g>
      <g>
        <circle cx="68" cy="68" r="21"/>
        <g class="cls-3">
          <rect x="47" y="47" width="42" height="42"/>
        </g>
      </g>
      <g>
        <path d="M446,19h-28c-19.3,0-35,15.7-35,35v28c0,19.3,15.7,35,35,35h28c19.3,0,35-15.7,35-35v-28c0-19.3-15.7-35-35-35M467,54v28c0,11.6-9.4,21-21,21h-28c-11.6,0-21-9.4-21-21v-28c0-11.6,9.4-21,21-21h28c11.6,0,21,9.4,21,21Z"/>
        <g class="cls-8">
          <rect x="383" y="19" width="98" height="98"/>
        </g>
      </g>
      <g>
        <circle cx="432" cy="68" r="21"/>
        <g class="cls-6">
          <rect x="411" y="47" width="42" height="42"/>
        </g>
      </g>
      <g>
        <path d="M54,481h28c19.3,0,35-15.7,35-35v-28c0-19.3-15.7-35-35-35h-28c-19.3,0-35,15.7-35,35v28c0,19.3,15.7,35,35,35M33,446v-28c0-11.6,9.4-21,21-21h28c11.6,0,21,9.4,21,21v28c0,11.6-9.4,21-21,21h-28c-11.6,0-21-9.4-21-21Z"/>
        <g class="cls-5">
          <rect x="19" y="383" width="98" height="98"/>
        </g>
      </g>
      <g>
        <circle cx="68" cy="432" r="21"/>
        <g class="cls-7">
          <rect x="47" y="411" width="42" height="42"/>
        </g>
      </g>
    </g>
  </g>
</svg>