<?xml version="1.0" standalone="no"?>
<svg xmlns="http://www.w3.org/2000/svg" width="500" height="500"><defs><clipPath id="clip-path-dot-color"><circle cx="26" cy="166" r="7" transform="rotate(0,26,166)"/><circle cx="26" cy="180" r="7" transform="rotate(0,26,180)"/><circle cx="26" cy="222" r="7" transform="rotate(0,26,222)"/><circle cx="26" cy="236" r="7" transform="rotate(0,26,236)"/><circle cx="26" cy="250" r="7" transform="rotate(0,26,250)"/><circle cx="26" cy="264" r="7" transform="rotate(0,26,264)"/><circle cx="26" cy="278" r="7" transform="rotate(0,26,278)"/><circle cx="26" cy="320" r="7" transform="rotate(0,26,320)"/><circle cx="26" cy="334" r="7" transform="rotate(0,26,334)"/><circle cx="26" cy="362" r="7" transform="rotate(0,26,362)"/><circle cx="40" cy="138" r="7" transform="rotate(0,40,138)"/><circle cx="40" cy="152" r="7" transform="rotate(0,40,152)"/><circle cx="40" cy="180" r="7" transform="rotate(0,40,180)"/><circle cx="40" cy="194" r="7" transform="rotate(0,40,194)"/><circle cx="40" cy="236" r="7" transform="rotate(0,40,236)"/><circle cx="40" cy="278" r="7" transform="rotate(0,40,278)"/><circle cx="40" cy="292" r="7" transform="rotate(0,40,292)"/><circle cx="40" cy="306" r="7" transform="rotate(0,40,306)"/><circle cx="54" cy="152" r="7" transform="rotate(0,54,152)"/><circle cx="54" cy="180" r="7" transform="rotate(0,54,180)"/><circle cx="54" cy="320" r="7" transform="rotate(0,54,320)"/><circle cx="54" cy="362" r="7" transform="rotate(0,54,362)"/><circle cx="68" cy="138" r="7" transform="rotate(0,68,138)"/><circle cx="68" cy="166" r="7" transform="rotate(0,68,166)"/><circle cx="68" cy="180" r="7" transform="rotate(0,68,180)"/><circle cx="68" cy="208" r="7" transform="rotate(0,68,208)"/><circle cx="68" cy="222" r="7" transform="rotate(0,68,222)"/><circle cx="68" cy="236" r="7" transform="rotate(0,68,236)"/><circle cx="68" cy="278" r="7" transform="rotate(0,68,278)"/><circle cx="68" cy="306" r="7" transform="rotate(0,68,306)"/><circle cx="68" cy="334" r="7" transform="rotate(0,68,334)"/><circle cx="68" cy="348" r="7" transform="rotate(0,68,348)"/><circle cx="68" cy="362" r="7" transform="rotate(0,68,362)"/><circle cx="82" cy="138" r="7" transform="rotate(0,82,138)"/><circle cx="82" cy="152" r="7" transform="rotate(0,82,152)"/><circle cx="82" cy="180" r="7" transform="rotate(0,82,180)"/><circle cx="82" cy="194" r="7" transform="rotate(0,82,194)"/><circle cx="82" cy="208" r="7" transform="rotate(0,82,208)"/><circle cx="82" cy="222" r="7" transform="rotate(0,82,222)"/><circle cx="82" cy="236" r="7" transform="rotate(0,82,236)"/><circle cx="82" cy="264" r="7" transform="rotate(0,82,264)"/><circle cx="82" cy="334" r="7" transform="rotate(0,82,334)"/><circle cx="82" cy="348" r="7" transform="rotate(0,82,348)"/><circle cx="96" cy="152" r="7" transform="rotate(0,96,152)"/><circle cx="96" cy="180" r="7" transform="rotate(0,96,180)"/><circle cx="96" cy="222" r="7" transform="rotate(0,96,222)"/><circle cx="96" cy="250" r="7" transform="rotate(0,96,250)"/><circle cx="96" cy="292" r="7" transform="rotate(0,96,292)"/><circle cx="96" cy="320" r="7" transform="rotate(0,96,320)"/><circle cx="96" cy="362" r="7" transform="rotate(0,96,362)"/><circle cx="110" cy="138" r="7" transform="rotate(0,110,138)"/><circle cx="110" cy="166" r="7" transform="rotate(0,110,166)"/><circle cx="110" cy="194" r="7" transform="rotate(0,110,194)"/><circle cx="110" cy="222" r="7" transform="rotate(0,110,222)"/><circle cx="110" cy="250" r="7" transform="rotate(0,110,250)"/><circle cx="110" cy="278" r="7" transform="rotate(0,110,278)"/><circle cx="110" cy="306" r="7" transform="rotate(0,110,306)"/><circle cx="110" cy="334" r="7" transform="rotate(0,110,334)"/><circle cx="110" cy="362" r="7" transform="rotate(0,110,362)"/><circle cx="124" cy="138" r="7" transform="rotate(0,124,138)"/><circle cx="124" cy="152" r="7" transform="rotate(0,124,152)"/><circle cx="124" cy="208" r="7" transform="rotate(0,124,208)"/><circle cx="124" cy="236" r="7" transform="rotate(0,124,236)"/><circle cx="124" cy="348" r="7" transform="rotate(0,124,348)"/><circle cx="138" cy="40" r="7" transform="rotate(0,138,40)"/><circle cx="138" cy="68" r="7" transform="rotate(0,138,68)"/><circle cx="138" cy="82" r="7" transform="rotate(0,138,82)"/><circle cx="138" cy="96" r="7" transform="rotate(0,138,96)"/><circle cx="138" cy="110" r="7" transform="rotate(0,138,110)"/><circle cx="138" cy="138" r="7" transform="rotate(0,138,138)"/><circle cx="138" cy="152" r="7" transform="rotate(0,138,152)"/><circle cx="138" cy="166" r="7" transform="rotate(0,138,166)"/><circle cx="138" cy="194" r="7" transform="rotate(0,138,194)"/><circle cx="138" cy="208" r="7" transform="rotate(0,138,208)"/><circle cx="138" cy="236" r="7" transform="rotate(0,138,236)"/><circle cx="138" cy="264" r="7" transform="rotate(0,138,264)"/><circle cx="138" cy="278" r="7" transform="rotate(0,138,278)"/><circle cx="138" cy="306" r="7" transform="rotate(0,138,306)"/><circle cx="138" cy="348" r="7" transform="rotate(0,138,348)"/><circle cx="138" cy="376" r="7" transform="rotate(0,138,376)"/><circle cx="138" cy="390" r="7" transform="rotate(0,138,390)"/><circle cx="138" cy="418" r="7" transform="rotate(0,138,418)"/><circle cx="138" cy="432" r="7" transform="rotate(0,138,432)"/><circle cx="138" cy="460" r="7" transform="rotate(0,138,460)"/><circle cx="152" cy="40" r="7" transform="rotate(0,152,40)"/><circle cx="152" cy="96" r="7" transform="rotate(0,152,96)"/><circle cx="152" cy="194" r="7" transform="rotate(0,152,194)"/><circle cx="152" cy="222" r="7" transform="rotate(0,152,222)"/><circle cx="152" cy="236" r="7" transform="rotate(0,152,236)"/><circle cx="152" cy="250" r="7" transform="rotate(0,152,250)"/><circle cx="152" cy="264" r="7" transform="rotate(0,152,264)"/><circle cx="152" cy="278" r="7" transform="rotate(0,152,278)"/><circle cx="152" cy="292" r="7" transform="rotate(0,152,292)"/><circle cx="152" cy="320" r="7" transform="rotate(0,152,320)"/><circle cx="152" cy="348" r="7" transform="rotate(0,152,348)"/><circle cx="152" cy="418" r="7" transform="rotate(0,152,418)"/><circle cx="152" cy="432" r="7" transform="rotate(0,152,432)"/><circle cx="152" cy="446" r="7" transform="rotate(0,152,446)"/><circle cx="166" cy="26" r="7" transform="rotate(0,166,26)"/><circle cx="166" cy="82" r="7" transform="rotate(0,166,82)"/><circle cx="166" cy="96" r="7" transform="rotate(0,166,96)"/><circle cx="166" cy="110" r="7" transform="rotate(0,166,110)"/><circle cx="166" cy="124" r="7" transform="rotate(0,166,124)"/><circle cx="166" cy="152" r="7" transform="rotate(0,166,152)"/><circle cx="166" cy="166" r="7" transform="rotate(0,166,166)"/><circle cx="166" cy="194" r="7" transform="rotate(0,166,194)"/><circle cx="166" cy="222" r="7" transform="rotate(0,166,222)"/><circle cx="166" cy="236" r="7" transform="rotate(0,166,236)"/><circle cx="166" cy="334" r="7" transform="rotate(0,166,334)"/><circle cx="166" cy="348" r="7" transform="rotate(0,166,348)"/><circle cx="166" cy="362" r="7" transform="rotate(0,166,362)"/><circle cx="166" cy="390" r="7" transform="rotate(0,166,390)"/><circle cx="166" cy="418" r="7" transform="rotate(0,166,418)"/><circle cx="166" cy="432" r="7" transform="rotate(0,166,432)"/><circle cx="166" cy="446" r="7" transform="rotate(0,166,446)"/><circle cx="166" cy="474" r="7" transform="rotate(0,166,474)"/><circle cx="180" cy="26" r="7" transform="rotate(0,180,26)"/><circle cx="180" cy="40" r="7" transform="rotate(0,180,40)"/><circle cx="180" cy="54" r="7" transform="rotate(0,180,54)"/><circle cx="180" cy="82" r="7" transform="rotate(0,180,82)"/><circle cx="180" cy="124" r="7" transform="rotate(0,180,124)"/><circle cx="180" cy="152" r="7" transform="rotate(0,180,152)"/><circle cx="180" cy="194" r="7" transform="rotate(0,180,194)"/><circle cx="180" cy="222" r="7" transform="rotate(0,180,222)"/><circle cx="180" cy="278" r="7" transform="rotate(0,180,278)"/><circle cx="180" cy="292" r="7" transform="rotate(0,180,292)"/><circle cx="180" cy="306" r="7" transform="rotate(0,180,306)"/><circle cx="180" cy="320" r="7" transform="rotate(0,180,320)"/><circle cx="180" cy="334" r="7" transform="rotate(0,180,334)"/><circle cx="180" cy="376" r="7" transform="rotate(0,180,376)"/><circle cx="180" cy="404" r="7" transform="rotate(0,180,404)"/><circle cx="180" cy="446" r="7" transform="rotate(0,180,446)"/><circle cx="180" cy="460" r="7" transform="rotate(0,180,460)"/><circle cx="194" cy="26" r="7" transform="rotate(0,194,26)"/><circle cx="194" cy="96" r="7" transform="rotate(0,194,96)"/><circle cx="194" cy="110" r="7" transform="rotate(0,194,110)"/><circle cx="194" cy="152" r="7" transform="rotate(0,194,152)"/><circle cx="194" cy="166" r="7" transform="rotate(0,194,166)"/><circle cx="194" cy="180" r="7" transform="rotate(0,194,180)"/><circle cx="194" cy="208" r="7" transform="rotate(0,194,208)"/><circle cx="194" cy="264" r="7" transform="rotate(0,194,264)"/><circle cx="194" cy="320" r="7" transform="rotate(0,194,320)"/><circle cx="194" cy="390" r="7" transform="rotate(0,194,390)"/><circle cx="194" cy="404" r="7" transform="rotate(0,194,404)"/><circle cx="194" cy="474" r="7" transform="rotate(0,194,474)"/><circle cx="208" cy="26" r="7" transform="rotate(0,208,26)"/><circle cx="208" cy="96" r="7" transform="rotate(0,208,96)"/><circle cx="208" cy="124" r="7" transform="rotate(0,208,124)"/><circle cx="208" cy="194" r="7" transform="rotate(0,208,194)"/><circle cx="208" cy="222" r="7" transform="rotate(0,208,222)"/><circle cx="208" cy="236" r="7" transform="rotate(0,208,236)"/><circle cx="208" cy="250" r="7" transform="rotate(0,208,250)"/><circle cx="208" cy="264" r="7" transform="rotate(0,208,264)"/><circle cx="208" cy="278" r="7" transform="rotate(0,208,278)"/><circle cx="208" cy="292" r="7" transform="rotate(0,208,292)"/><circle cx="208" cy="306" r="7" transform="rotate(0,208,306)"/><circle cx="208" cy="362" r="7" transform="rotate(0,208,362)"/><circle cx="208" cy="376" r="7" transform="rotate(0,208,376)"/><circle cx="208" cy="404" r="7" transform="rotate(0,208,404)"/><circle cx="208" cy="432" r="7" transform="rotate(0,208,432)"/><circle cx="222" cy="40" r="7" transform="rotate(0,222,40)"/><circle cx="222" cy="110" r="7" transform="rotate(0,222,110)"/><circle cx="222" cy="124" r="7" transform="rotate(0,222,124)"/><circle cx="222" cy="138" r="7" transform="rotate(0,222,138)"/><circle cx="222" cy="152" r="7" transform="rotate(0,222,152)"/><circle cx="222" cy="166" r="7" transform="rotate(0,222,166)"/><circle cx="222" cy="194" r="7" transform="rotate(0,222,194)"/><circle cx="222" cy="236" r="7" transform="rotate(0,222,236)"/><circle cx="222" cy="250" r="7" transform="rotate(0,222,250)"/><circle cx="222" cy="264" r="7" transform="rotate(0,222,264)"/><circle cx="222" cy="292" r="7" transform="rotate(0,222,292)"/><circle cx="222" cy="306" r="7" transform="rotate(0,222,306)"/><circle cx="222" cy="334" r="7" transform="rotate(0,222,334)"/><circle cx="222" cy="390" r="7" transform="rotate(0,222,390)"/><circle cx="222" cy="404" r="7" transform="rotate(0,222,404)"/><circle cx="222" cy="418" r="7" transform="rotate(0,222,418)"/><circle cx="222" cy="432" r="7" transform="rotate(0,222,432)"/><circle cx="236" cy="54" r="7" transform="rotate(0,236,54)"/><circle cx="236" cy="68" r="7" transform="rotate(0,236,68)"/><circle cx="236" cy="82" r="7" transform="rotate(0,236,82)"/><circle cx="236" cy="96" r="7" transform="rotate(0,236,96)"/><circle cx="236" cy="124" r="7" transform="rotate(0,236,124)"/><circle cx="236" cy="180" r="7" transform="rotate(0,236,180)"/><circle cx="236" cy="208" r="7" transform="rotate(0,236,208)"/><circle cx="236" cy="222" r="7" transform="rotate(0,236,222)"/><circle cx="236" cy="236" r="7" transform="rotate(0,236,236)"/><circle cx="236" cy="250" r="7" transform="rotate(0,236,250)"/><circle cx="236" cy="306" r="7" transform="rotate(0,236,306)"/><circle cx="236" cy="362" r="7" transform="rotate(0,236,362)"/><circle cx="236" cy="376" r="7" transform="rotate(0,236,376)"/><circle cx="236" cy="404" r="7" transform="rotate(0,236,404)"/><circle cx="236" cy="418" r="7" transform="rotate(0,236,418)"/><circle cx="236" cy="432" r="7" transform="rotate(0,236,432)"/><circle cx="236" cy="446" r="7" transform="rotate(0,236,446)"/><circle cx="236" cy="474" r="7" transform="rotate(0,236,474)"/><circle cx="250" cy="26" r="7" transform="rotate(0,250,26)"/><circle cx="250" cy="40" r="7" transform="rotate(0,250,40)"/><circle cx="250" cy="82" r="7" transform="rotate(0,250,82)"/><circle cx="250" cy="96" r="7" transform="rotate(0,250,96)"/><circle cx="250" cy="110" r="7" transform="rotate(0,250,110)"/><circle cx="250" cy="124" r="7" transform="rotate(0,250,124)"/><circle cx="250" cy="152" r="7" transform="rotate(0,250,152)"/><circle cx="250" cy="180" r="7" transform="rotate(0,250,180)"/><circle cx="250" cy="194" r="7" transform="rotate(0,250,194)"/><circle cx="250" cy="208" r="7" transform="rotate(0,250,208)"/><circle cx="250" cy="222" r="7" transform="rotate(0,250,222)"/><circle cx="250" cy="236" r="7" transform="rotate(0,250,236)"/><circle cx="250" cy="250" r="7" transform="rotate(0,250,250)"/><circle cx="250" cy="306" r="7" transform="rotate(0,250,306)"/><circle cx="250" cy="334" r="7" transform="rotate(0,250,334)"/><circle cx="250" cy="348" r="7" transform="rotate(0,250,348)"/><circle cx="250" cy="362" r="7" transform="rotate(0,250,362)"/><circle cx="250" cy="376" r="7" transform="rotate(0,250,376)"/><circle cx="250" cy="390" r="7" transform="rotate(0,250,390)"/><circle cx="250" cy="404" r="7" transform="rotate(0,250,404)"/><circle cx="250" cy="418" r="7" transform="rotate(0,250,418)"/><circle cx="250" cy="432" r="7" transform="rotate(0,250,432)"/><circle cx="264" cy="26" r="7" transform="rotate(0,264,26)"/><circle cx="264" cy="40" r="7" transform="rotate(0,264,40)"/><circle cx="264" cy="96" r="7" transform="rotate(0,264,96)"/><circle cx="264" cy="124" r="7" transform="rotate(0,264,124)"/><circle cx="264" cy="138" r="7" transform="rotate(0,264,138)"/><circle cx="264" cy="180" r="7" transform="rotate(0,264,180)"/><circle cx="264" cy="236" r="7" transform="rotate(0,264,236)"/><circle cx="264" cy="264" r="7" transform="rotate(0,264,264)"/><circle cx="264" cy="278" r="7" transform="rotate(0,264,278)"/><circle cx="264" cy="292" r="7" transform="rotate(0,264,292)"/><circle cx="264" cy="306" r="7" transform="rotate(0,264,306)"/><circle cx="264" cy="334" r="7" transform="rotate(0,264,334)"/><circle cx="264" cy="376" r="7" transform="rotate(0,264,376)"/><circle cx="264" cy="390" r="7" transform="rotate(0,264,390)"/><circle cx="264" cy="418" r="7" transform="rotate(0,264,418)"/><circle cx="264" cy="446" r="7" transform="rotate(0,264,446)"/><circle cx="264" cy="460" r="7" transform="rotate(0,264,460)"/><circle cx="264" cy="474" r="7" transform="rotate(0,264,474)"/><circle cx="278" cy="26" r="7" transform="rotate(0,278,26)"/><circle cx="278" cy="54" r="7" transform="rotate(0,278,54)"/><circle cx="278" cy="68" r="7" transform="rotate(0,278,68)"/><circle cx="278" cy="96" r="7" transform="rotate(0,278,96)"/><circle cx="278" cy="110" r="7" transform="rotate(0,278,110)"/><circle cx="278" cy="124" r="7" transform="rotate(0,278,124)"/><circle cx="278" cy="138" r="7" transform="rotate(0,278,138)"/><circle cx="278" cy="180" r="7" transform="rotate(0,278,180)"/><circle cx="278" cy="222" r="7" transform="rotate(0,278,222)"/><circle cx="278" cy="236" r="7" transform="rotate(0,278,236)"/><circle cx="278" cy="250" r="7" transform="rotate(0,278,250)"/><circle cx="278" cy="278" r="7" transform="rotate(0,278,278)"/><circle cx="278" cy="292" r="7" transform="rotate(0,278,292)"/><circle cx="278" cy="306" r="7" transform="rotate(0,278,306)"/><circle cx="278" cy="320" r="7" transform="rotate(0,278,320)"/><circle cx="278" cy="334" r="7" transform="rotate(0,278,334)"/><circle cx="278" cy="348" r="7" transform="rotate(0,278,348)"/><circle cx="278" cy="362" r="7" transform="rotate(0,278,362)"/><circle cx="278" cy="376" r="7" transform="rotate(0,278,376)"/><circle cx="278" cy="390" r="7" transform="rotate(0,278,390)"/><circle cx="278" cy="404" r="7" transform="rotate(0,278,404)"/><circle cx="278" cy="432" r="7" transform="rotate(0,278,432)"/><circle cx="278" cy="446" r="7" transform="rotate(0,278,446)"/><circle cx="278" cy="474" r="7" transform="rotate(0,278,474)"/><circle cx="292" cy="40" r="7" transform="rotate(0,292,40)"/><circle cx="292" cy="68" r="7" transform="rotate(0,292,68)"/><circle cx="292" cy="82" r="7" transform="rotate(0,292,82)"/><circle cx="292" cy="96" r="7" transform="rotate(0,292,96)"/><circle cx="292" cy="124" r="7" transform="rotate(0,292,124)"/><circle cx="292" cy="138" r="7" transform="rotate(0,292,138)"/><circle cx="292" cy="166" r="7" transform="rotate(0,292,166)"/><circle cx="292" cy="222" r="7" transform="rotate(0,292,222)"/><circle cx="292" cy="334" r="7" transform="rotate(0,292,334)"/><circle cx="292" cy="348" r="7" transform="rotate(0,292,348)"/><circle cx="292" cy="418" r="7" transform="rotate(0,292,418)"/><circle cx="292" cy="432" r="7" transform="rotate(0,292,432)"/><circle cx="292" cy="446" r="7" transform="rotate(0,292,446)"/><circle cx="292" cy="474" r="7" transform="rotate(0,292,474)"/><circle cx="306" cy="26" r="7" transform="rotate(0,306,26)"/><circle cx="306" cy="54" r="7" transform="rotate(0,306,54)"/><circle cx="306" cy="68" r="7" transform="rotate(0,306,68)"/><circle cx="306" cy="96" r="7" transform="rotate(0,306,96)"/><circle cx="306" cy="110" r="7" transform="rotate(0,306,110)"/><circle cx="306" cy="124" r="7" transform="rotate(0,306,124)"/><circle cx="306" cy="138" r="7" transform="rotate(0,306,138)"/><circle cx="306" cy="152" r="7" transform="rotate(0,306,152)"/><circle cx="306" cy="166" r="7" transform="rotate(0,306,166)"/><circle cx="306" cy="180" r="7" transform="rotate(0,306,180)"/><circle cx="306" cy="236" r="7" transform="rotate(0,306,236)"/><circle cx="306" cy="250" r="7" transform="rotate(0,306,250)"/><circle cx="306" cy="264" r="7" transform="rotate(0,306,264)"/><circle cx="306" cy="320" r="7" transform="rotate(0,306,320)"/><circle cx="306" cy="334" r="7" transform="rotate(0,306,334)"/><circle cx="306" cy="348" r="7" transform="rotate(0,306,348)"/><circle cx="306" cy="362" r="7" transform="rotate(0,306,362)"/><circle cx="306" cy="432" r="7" transform="rotate(0,306,432)"/><circle cx="306" cy="460" r="7" transform="rotate(0,306,460)"/><circle cx="320" cy="26" r="7" transform="rotate(0,320,26)"/><circle cx="320" cy="40" r="7" transform="rotate(0,320,40)"/><circle cx="320" cy="54" r="7" transform="rotate(0,320,54)"/><circle cx="320" cy="124" r="7" transform="rotate(0,320,124)"/><circle cx="320" cy="138" r="7" transform="rotate(0,320,138)"/><circle cx="320" cy="166" r="7" transform="rotate(0,320,166)"/><circle cx="320" cy="194" r="7" transform="rotate(0,320,194)"/><circle cx="320" cy="236" r="7" transform="rotate(0,320,236)"/><circle cx="320" cy="250" r="7" transform="rotate(0,320,250)"/><circle cx="320" cy="278" r="7" transform="rotate(0,320,278)"/><circle cx="320" cy="320" r="7" transform="rotate(0,320,320)"/><circle cx="320" cy="376" r="7" transform="rotate(0,320,376)"/><circle cx="320" cy="404" r="7" transform="rotate(0,320,404)"/><circle cx="320" cy="418" r="7" transform="rotate(0,320,418)"/><circle cx="320" cy="446" r="7" transform="rotate(0,320,446)"/><circle cx="334" cy="26" r="7" transform="rotate(0,334,26)"/><circle cx="334" cy="82" r="7" transform="rotate(0,334,82)"/><circle cx="334" cy="110" r="7" transform="rotate(0,334,110)"/><circle cx="334" cy="152" r="7" transform="rotate(0,334,152)"/><circle cx="334" cy="166" r="7" transform="rotate(0,334,166)"/><circle cx="334" cy="180" r="7" transform="rotate(0,334,180)"/><circle cx="334" cy="264" r="7" transform="rotate(0,334,264)"/><circle cx="334" cy="278" r="7" transform="rotate(0,334,278)"/><circle cx="334" cy="292" r="7" transform="rotate(0,334,292)"/><circle cx="334" cy="306" r="7" transform="rotate(0,334,306)"/><circle cx="334" cy="334" r="7" transform="rotate(0,334,334)"/><circle cx="334" cy="362" r="7" transform="rotate(0,334,362)"/><circle cx="334" cy="390" r="7" transform="rotate(0,334,390)"/><circle cx="334" cy="404" r="7" transform="rotate(0,334,404)"/><circle cx="334" cy="418" r="7" transform="rotate(0,334,418)"/><circle cx="334" cy="460" r="7" transform="rotate(0,334,460)"/><circle cx="334" cy="474" r="7" transform="rotate(0,334,474)"/><circle cx="348" cy="26" r="7" transform="rotate(0,348,26)"/><circle cx="348" cy="68" r="7" transform="rotate(0,348,68)"/><circle cx="348" cy="82" r="7" transform="rotate(0,348,82)"/><circle cx="348" cy="96" r="7" transform="rotate(0,348,96)"/><circle cx="348" cy="124" r="7" transform="rotate(0,348,124)"/><circle cx="348" cy="152" r="7" transform="rotate(0,348,152)"/><circle cx="348" cy="166" r="7" transform="rotate(0,348,166)"/><circle cx="348" cy="194" r="7" transform="rotate(0,348,194)"/><circle cx="348" cy="222" r="7" transform="rotate(0,348,222)"/><circle cx="348" cy="236" r="7" transform="rotate(0,348,236)"/><circle cx="348" cy="264" r="7" transform="rotate(0,348,264)"/><circle cx="348" cy="278" r="7" transform="rotate(0,348,278)"/><circle cx="348" cy="292" r="7" transform="rotate(0,348,292)"/><circle cx="348" cy="306" r="7" transform="rotate(0,348,306)"/><circle cx="348" cy="404" r="7" transform="rotate(0,348,404)"/><circle cx="348" cy="446" r="7" transform="rotate(0,348,446)"/><circle cx="348" cy="460" r="7" transform="rotate(0,348,460)"/><circle cx="362" cy="26" r="7" transform="rotate(0,362,26)"/><circle cx="362" cy="40" r="7" transform="rotate(0,362,40)"/><circle cx="362" cy="54" r="7" transform="rotate(0,362,54)"/><circle cx="362" cy="96" r="7" transform="rotate(0,362,96)"/><circle cx="362" cy="110" r="7" transform="rotate(0,362,110)"/><circle cx="362" cy="124" r="7" transform="rotate(0,362,124)"/><circle cx="362" cy="138" r="7" transform="rotate(0,362,138)"/><circle cx="362" cy="152" r="7" transform="rotate(0,362,152)"/><circle cx="362" cy="180" r="7" transform="rotate(0,362,180)"/><circle cx="362" cy="194" r="7" transform="rotate(0,362,194)"/><circle cx="362" cy="222" r="7" transform="rotate(0,362,222)"/><circle cx="362" cy="250" r="7" transform="rotate(0,362,250)"/><circle cx="362" cy="264" r="7" transform="rotate(0,362,264)"/><circle cx="362" cy="306" r="7" transform="rotate(0,362,306)"/><circle cx="362" cy="362" r="7" transform="rotate(0,362,362)"/><circle cx="362" cy="376" r="7" transform="rotate(0,362,376)"/><circle cx="362" cy="390" r="7" transform="rotate(0,362,390)"/><circle cx="362" cy="404" r="7" transform="rotate(0,362,404)"/><circle cx="362" cy="418" r="7" transform="rotate(0,362,418)"/><circle cx="362" cy="432" r="7" transform="rotate(0,362,432)"/><circle cx="362" cy="460" r="7" transform="rotate(0,362,460)"/><circle cx="362" cy="474" r="7" transform="rotate(0,362,474)"/><circle cx="376" cy="138" r="7" transform="rotate(0,376,138)"/><circle cx="376" cy="152" r="7" transform="rotate(0,376,152)"/><circle cx="376" cy="166" r="7" transform="rotate(0,376,166)"/><circle cx="376" cy="180" r="7" transform="rotate(0,376,180)"/><circle cx="376" cy="208" r="7" transform="rotate(0,376,208)"/><circle cx="376" cy="236" r="7" transform="rotate(0,376,236)"/><circle cx="376" cy="264" r="7" transform="rotate(0,376,264)"/><circle cx="376" cy="278" r="7" transform="rotate(0,376,278)"/><circle cx="376" cy="306" r="7" transform="rotate(0,376,306)"/><circle cx="376" cy="320" r="7" transform="rotate(0,376,320)"/><circle cx="376" cy="362" r="7" transform="rotate(0,376,362)"/><circle cx="376" cy="418" r="7" transform="rotate(0,376,418)"/><circle cx="376" cy="446" r="7" transform="rotate(0,376,446)"/><circle cx="376" cy="460" r="7" transform="rotate(0,376,460)"/><circle cx="390" cy="152" r="7" transform="rotate(0,390,152)"/><circle cx="390" cy="194" r="7" transform="rotate(0,390,194)"/><circle cx="390" cy="208" r="7" transform="rotate(0,390,208)"/><circle cx="390" cy="236" r="7" transform="rotate(0,390,236)"/><circle cx="390" cy="250" r="7" transform="rotate(0,390,250)"/><circle cx="390" cy="264" r="7" transform="rotate(0,390,264)"/><circle cx="390" cy="278" r="7" transform="rotate(0,390,278)"/><circle cx="390" cy="292" r="7" transform="rotate(0,390,292)"/><circle cx="390" cy="306" r="7" transform="rotate(0,390,306)"/><circle cx="390" cy="348" r="7" transform="rotate(0,390,348)"/><circle cx="390" cy="362" r="7" transform="rotate(0,390,362)"/><circle cx="390" cy="390" r="7" transform="rotate(0,390,390)"/><circle cx="390" cy="418" r="7" transform="rotate(0,390,418)"/><circle cx="390" cy="446" r="7" transform="rotate(0,390,446)"/><circle cx="404" cy="138" r="7" transform="rotate(0,404,138)"/><circle cx="404" cy="152" r="7" transform="rotate(0,404,152)"/><circle cx="404" cy="166" r="7" transform="rotate(0,404,166)"/><circle cx="404" cy="180" r="7" transform="rotate(0,404,180)"/><circle cx="404" cy="194" r="7" transform="rotate(0,404,194)"/><circle cx="404" cy="250" r="7" transform="rotate(0,404,250)"/><circle cx="404" cy="278" r="7" transform="rotate(0,404,278)"/><circle cx="404" cy="306" r="7" transform="rotate(0,404,306)"/><circle cx="404" cy="320" r="7" transform="rotate(0,404,320)"/><circle cx="404" cy="334" r="7" transform="rotate(0,404,334)"/><circle cx="404" cy="348" r="7" transform="rotate(0,404,348)"/><circle cx="404" cy="362" r="7" transform="rotate(0,404,362)"/><circle cx="404" cy="418" r="7" transform="rotate(0,404,418)"/><circle cx="404" cy="432" r="7" transform="rotate(0,404,432)"/><circle cx="404" cy="446" r="7" transform="rotate(0,404,446)"/><circle cx="418" cy="138" r="7" transform="rotate(0,418,138)"/><circle cx="418" cy="152" r="7" transform="rotate(0,418,152)"/><circle cx="418" cy="166" r="7" transform="rotate(0,418,166)"/><circle cx="418" cy="180" r="7" transform="rotate(0,418,180)"/><circle cx="418" cy="236" r="7" transform="rotate(0,418,236)"/><circle cx="418" cy="250" r="7" transform="rotate(0,418,250)"/><circle cx="418" cy="278" r="7" transform="rotate(0,418,278)"/><circle cx="418" cy="292" r="7" transform="rotate(0,418,292)"/><circle cx="418" cy="320" r="7" transform="rotate(0,418,320)"/><circle cx="418" cy="334" r="7" transform="rotate(0,418,334)"/><circle cx="418" cy="348" r="7" transform="rotate(0,418,348)"/><circle cx="418" cy="362" r="7" transform="rotate(0,418,362)"/><circle cx="418" cy="376" r="7" transform="rotate(0,418,376)"/><circle cx="418" cy="390" r="7" transform="rotate(0,418,390)"/><circle cx="418" cy="404" r="7" transform="rotate(0,418,404)"/><circle cx="418" cy="418" r="7" transform="rotate(0,418,418)"/><circle cx="418" cy="460" r="7" transform="rotate(0,418,460)"/><circle cx="432" cy="138" r="7" transform="rotate(0,432,138)"/><circle cx="432" cy="152" r="7" transform="rotate(0,432,152)"/><circle cx="432" cy="208" r="7" transform="rotate(0,432,208)"/><circle cx="432" cy="236" r="7" transform="rotate(0,432,236)"/><circle cx="432" cy="250" r="7" transform="rotate(0,432,250)"/><circle cx="432" cy="278" r="7" transform="rotate(0,432,278)"/><circle cx="432" cy="334" r="7" transform="rotate(0,432,334)"/><circle cx="432" cy="362" r="7" transform="rotate(0,432,362)"/><circle cx="432" cy="376" r="7" transform="rotate(0,432,376)"/><circle cx="432" cy="404" r="7" transform="rotate(0,432,404)"/><circle cx="432" cy="474" r="7" transform="rotate(0,432,474)"/><circle cx="446" cy="152" r="7" transform="rotate(0,446,152)"/><circle cx="446" cy="222" r="7" transform="rotate(0,446,222)"/><circle cx="446" cy="236" r="7" transform="rotate(0,446,236)"/><circle cx="446" cy="264" r="7" transform="rotate(0,446,264)"/><circle cx="446" cy="292" r="7" transform="rotate(0,446,292)"/><circle cx="446" cy="334" r="7" transform="rotate(0,446,334)"/><circle cx="446" cy="362" r="7" transform="rotate(0,446,362)"/><circle cx="446" cy="376" r="7" transform="rotate(0,446,376)"/><circle cx="446" cy="404" r="7" transform="rotate(0,446,404)"/><circle cx="446" cy="418" r="7" transform="rotate(0,446,418)"/><circle cx="446" cy="460" r="7" transform="rotate(0,446,460)"/><circle cx="446" cy="474" r="7" transform="rotate(0,446,474)"/><circle cx="460" cy="138" r="7" transform="rotate(0,460,138)"/><circle cx="460" cy="166" r="7" transform="rotate(0,460,166)"/><circle cx="460" cy="180" r="7" transform="rotate(0,460,180)"/><circle cx="460" cy="194" r="7" transform="rotate(0,460,194)"/><circle cx="460" cy="208" r="7" transform="rotate(0,460,208)"/><circle cx="460" cy="222" r="7" transform="rotate(0,460,222)"/><circle cx="460" cy="236" r="7" transform="rotate(0,460,236)"/><circle cx="460" cy="250" r="7" transform="rotate(0,460,250)"/><circle cx="460" cy="264" r="7" transform="rotate(0,460,264)"/><circle cx="460" cy="292" r="7" transform="rotate(0,460,292)"/><circle cx="460" cy="306" r="7" transform="rotate(0,460,306)"/><circle cx="460" cy="334" r="7" transform="rotate(0,460,334)"/><circle cx="460" cy="362" r="7" transform="rotate(0,460,362)"/><circle cx="460" cy="390" r="7" transform="rotate(0,460,390)"/><circle cx="460" cy="404" r="7" transform="rotate(0,460,404)"/><circle cx="460" cy="418" r="7" transform="rotate(0,460,418)"/><circle cx="460" cy="432" r="7" transform="rotate(0,460,432)"/><circle cx="460" cy="446" r="7" transform="rotate(0,460,446)"/><circle cx="460" cy="460" r="7" transform="rotate(0,460,460)"/><circle cx="460" cy="474" r="7" transform="rotate(0,460,474)"/><circle cx="474" cy="166" r="7" transform="rotate(0,474,166)"/><circle cx="474" cy="180" r="7" transform="rotate(0,474,180)"/><circle cx="474" cy="194" r="7" transform="rotate(0,474,194)"/><circle cx="474" cy="236" r="7" transform="rotate(0,474,236)"/><circle cx="474" cy="264" r="7" transform="rotate(0,474,264)"/><circle cx="474" cy="292" r="7" transform="rotate(0,474,292)"/><circle cx="474" cy="362" r="7" transform="rotate(0,474,362)"/><circle cx="474" cy="376" r="7" transform="rotate(0,474,376)"/><circle cx="474" cy="404" r="7" transform="rotate(0,474,404)"/><circle cx="474" cy="418" r="7" transform="rotate(0,474,418)"/></clipPath><clipPath id="clip-path-corners-square-color-0-0"><path clip-rule="evenodd" d="M 19 54v 28a 35 35, 0, 0, 0, 35 35h 28a 35 35, 0, 0, 0, 35 -35v -28a 35 35, 0, 0, 0, -35 -35h -28a 35 35, 0, 0, 0, -35 35M 54 33h 28a 21 21, 0, 0, 1, 21 21v 28a 21 21, 0, 0, 1, -21 21h -28a 21 21, 0, 0, 1, -21 -21v -28a 21 21, 0, 0, 1, 21 -21" transform="rotate(0,68,68)"/></clipPath><clipPath id="clip-path-corners-dot-color-0-0"><circle cx="68" cy="68" r="21" transform="rotate(0,68,68)"/></clipPath><clipPath id="clip-path-corners-square-color-1-0"><path clip-rule="evenodd" d="M 383 54v 28a 35 35, 0, 0, 0, 35 35h 28a 35 35, 0, 0, 0, 35 -35v -28a 35 35, 0, 0, 0, -35 -35h -28a 35 35, 0, 0, 0, -35 35M 418 33h 28a 21 21, 0, 0, 1, 21 21v 28a 21 21, 0, 0, 1, -21 21h -28a 21 21, 0, 0, 1, -21 -21v -28a 21 21, 0, 0, 1, 21 -21" transform="rotate(90,432,68)"/></clipPath><clipPath id="clip-path-corners-dot-color-1-0"><circle cx="432" cy="68" r="21" transform="rotate(90,432,68)"/></clipPath><clipPath id="clip-path-corners-square-color-0-1"><path clip-rule="evenodd" d="M 19 418v 28a 35 35, 0, 0, 0, 35 35h 28a 35 35, 0, 0, 0, 35 -35v -28a 35 35, 0, 0, 0, -35 -35h -28a 35 35, 0, 0, 0, -35 35M 54 397h 28a 21 21, 0, 0, 1, 21 21v 28a 21 21, 0, 0, 1, -21 21h -28a 21 21, 0, 0, 1, -21 -21v -28a 21 21, 0, 0, 1, 21 -21" transform="rotate(-90,68,432)"/></clipPath><clipPath id="clip-path-corners-dot-color-0-1"><circle cx="68" cy="432" r="21" transform="rotate(-90,68,432)"/></clipPath></defs><rect x="0" y="0" height="500" width="500" clip-path="url('#clip-path-background-color')" fill="#fff"/><rect x="0" y="0" height="500" width="500" clip-path="url('#clip-path-dot-color')" fill="#E83223"/><rect x="19" y="19" height="98" width="98" clip-path="url('#clip-path-corners-square-color-0-0')" fill="#E83223"/><rect x="47" y="47" height="42" width="42" clip-path="url('#clip-path-corners-dot-color-0-0')" fill="#E83223"/><rect x="383" y="19" height="98" width="98" clip-path="url('#clip-path-corners-square-color-1-0')" fill="#E83223"/><rect x="411" y="47" height="42" width="42" clip-path="url('#clip-path-corners-dot-color-1-0')" fill="#E83223"/><rect x="19" y="383" height="98" width="98" clip-path="url('#clip-path-corners-square-color-0-1')" fill="#E83223"/><rect x="47" y="411" height="42" width="42" clip-path="url('#clip-path-corners-dot-color-0-1')" fill="#E83223"/></svg>