<?xml version="1.0" encoding="UTF-8"?>
<svg id="Layer_1" data-name="Layer 1" xmlns="http://www.w3.org/2000/svg" viewBox="0 0 1000 140">
  <defs>
    <style>
      .cls-1 {
        fill: #c8c8c8;
      }

      .cls-1, .cls-2, .cls-3, .cls-4, .cls-5, .cls-6, .cls-7, .cls-8, .cls-9, .cls-10, .cls-11, .cls-12, .cls-13 {
        stroke-width: 0px;
      }

      .cls-2 {
        fill: #6f6f6f;
      }

      .cls-3 {
        fill: #8f8f8f;
      }

      .cls-4 {
        fill: #f38ca5;
      }

      .cls-5 {
        fill: #f4f4f4;
      }

      .cls-6 {
        fill: #575757;
      }

      .cls-7 {
        fill: #6b6b6b;
      }

      .cls-8 {
        fill: #727272;
      }

      .cls-9 {
        fill: #4f4f4f;
      }

      .cls-10 {
        fill: #686868;
      }

      .cls-11 {
        fill: #5e5e5e;
      }

      .cls-12 {
        fill: #696969;
      }

      .cls-13 {
        fill: #656565;
      }
    </style>
  </defs>
  <path class="cls-4" d="M72.79,38.55c.73.28,1.45.65,2.21.84,2.13.53,4.29.91,6.4,1.52,1.15.34,1.62,1.23,1.26,2.25-1.29,3.63-2.35,7.35-4.41,10.66-.13.21-.43.32-.67.49-1.24.35-2.04-.53-2.96-1.08-2.67-1.59-5.54-2.43-8.66-2.28-.55.03-1.1.08-1.63.22-1.27.35-1.96,2.02-1.08,2.97,1.01,1.09,2.19,2.09,3.45,2.87,1.64,1,3.49,1.66,5.15,2.63,2.25,1.31,4.48,2.59,6.06,4.86,2.29,3.28,2.44,11.15-1.1,15.17-1.85,2.1-3.92,3.97-6.48,5.03-9.07,3.77-18.18,3.99-27.24-.14-.37-.17-.72-.4-1.07-.62-.11-.07-.18-.21-.44-.52,1.27-4.19,3.33-8.18,5.2-12.51.91.41,1.67.67,2.34,1.09,2.86,1.76,6.04,2.59,9.25,3.39,1.35.34,2.45-.06,3.52-.71,1.26-.77,1.53-2.67.37-3.54-1.42-1.06-3.04-1.85-4.59-2.73-2.14-1.23-4.35-2.36-6.43-3.69-2.63-1.68-3.78-4.35-4.13-7.31-.37-3.06.19-6.06,1.38-8.89.97-2.31,2.42-4.28,4.61-5.69,3.07-1.97,6.28-3.38,9.98-3.55.76-.03,1.5-.48,2.25-.74,2.48,0,4.97,0,7.45,0Z"/>
  <path class="cls-4" d="M551.51,38.55c.84,1,2.02.69,3.08.8,3.08.33,5.85,1.35,8.18,3.26-.59,3.87-3.42,11.03-5.51,13.95-.43-.26-.88-.52-1.32-.8-5.79-3.61-12.56-2.61-17.15,2.5-1.54,1.72-2.35,3.66-2.39,5.99-.06,3.93,1.98,6.89,5.69,8.12,3,.99,5.95.83,8.85-.39,1.12-.47,2.22-.97,3.68-1.62.08,1.66.19,2.98.21,4.3.03,1.52-.03,3.03-.03,4.55,0,1.37,0,2.74,0,4.26-1.04.59-1.92,1.22-2.91,1.63-5.65,2.32-11.45,3.01-17.34,1.14-7.6-2.41-12.26-7.42-13.83-15.42-.83-4.27-.19-8.28,1.34-12.11,4-10.04,11.48-16.28,21.85-19.09,1.05-.28,2.2-.17,3.28-.36.64-.11,1.23-.47,1.84-.72.83,0,1.66,0,2.48,0Z"/>
  <path class="cls-4" d="M372.99,40.41c.97-.05,1.78-.13,2.6-.13,3.99.02,7.98.05,12.1.08.51.93,1.06,1.7,1.41,2.56,2.31,5.75,4.56,11.53,6.87,17.28.45,1.13,1.04,2.2,1.51,3.19.34.06.51.14.6.09.1-.06.15-.23.17-.36.3-2.04.63-4.08.89-6.12.62-4.91,1.19-9.83,1.82-14.75.15-1.19.74-1.72,1.84-1.89,1.81-.27,12.03-.03,14.25.39-2.84,14.29-6.1,28.48-9.04,42.74-.19.92-.65,1.78-1.01,2.76-.76.09-1.44.23-2.11.23-3.99.02-7.98.01-12.07.01-.44-.8-.89-1.47-1.2-2.21-2.56-6.25-5.08-12.51-7.64-18.76-.45-1.11-1.06-2.15-1.89-3.81-2.05,8.51-2.79,16.57-4.78,24.25-3.63.71-10.91.81-14.13.24-.01-2.81,8.36-42.19,9.81-45.81Z"/>
  <path class="cls-4" d="M449.6,86.41c-3.78-7.93-6.58-16.13-10.14-24.22-1.08.68-1.18,1.61-1.33,2.49-1.18,6.64-2.34,13.28-3.53,19.92-.07.39-.3.75-.43,1.09-2.8.92-9.68,1.16-14.18.46,0-.6-.12-1.27.02-1.89,1.76-8.21,3.57-16.41,5.34-24.62,1.24-5.79,2.42-11.59,3.64-17.38.11-.52.28-1.03.41-1.48,2.97-.67,10.14-.76,15.6-.17,3.34,7.3,5.92,15.11,9.49,23.03,1.34-1.71.91-3.29,1.21-4.66.32-1.47.42-2.99.63-4.49.23-1.64.5-3.27.72-4.9.2-1.5.33-3.01.53-4.51.2-1.47.47-2.93.7-4.31,3.56-.65,11.45-.69,15.21-.07,0,.87.16,1.83-.02,2.7-2.19,10.37-4.43,20.74-6.65,31.1-.49,2.29-.96,4.58-1.47,6.86-.33,1.47-.72,2.92-1.09,4.39-.64.25-1.14.6-1.65.61-4.26.14-8.52.23-12.98.06Z"/>
  <path class="cls-4" d="M306.25,68.27c.06-7.12,2.29-12.48,6.18-17.19,5.63-6.84,12.98-10.79,21.71-11.39,9.63-.66,20.9,3.96,23.31,17.08.85,4.6.03,9.13-1.97,13.29-4.67,9.72-12.38,15.49-23.05,17.48-4.37.82-8.5.4-12.57-1.02-6.71-2.34-11.13-6.96-12.97-13.87-.46-1.71-.53-3.52-.65-4.38ZM322.06,65.67c-.53,4.67,3.37,9.53,9.15,8.36,5.7-1.15,11.02-7.87,10.63-13.66-.37-5.59-4.04-9.14-10.2-7.46-5.22,1.43-9.47,7.27-9.59,12.76Z"/>
  <path class="cls-4" d="M656.46,40.26c.91-.21,1.94-.65,2.98-.66,3.84-.05,7.69-.43,11.52.41,1.32.29,2.74.15,4.12.18,4.08.1,7.81,1.35,11.35,3.35,3.75,2.12,6.27,6.9,5.04,11.61-1.26,4.83-3.41,8.98-7.88,11.6-.7.41-1.35.93-1.94,1.33-.54,1.29.07,2.26.55,3.24,1.75,3.59,3.52,7.17,5.27,10.76.47.97.87,1.97,1.22,2.76-.15.4-.16.56-.25.65-.09.09-.25.15-.38.15-3.71.08-7.43.16-11.14.23-1.09.02-2.18,0-3.36,0-2.87-4.66-4.62-9.77-7.97-14.66-.64,1.44-1.14,2.23-1.34,3.09-.67,2.95-1.21,5.93-1.86,8.88-.23,1.04-.66,2.03-.96,2.92-4.05.53-11.1.45-14.37-.14-.06-.47-.27-1.02-.17-1.5,1.97-9.42,3.97-18.83,5.97-28.24,1.03-4.84,2.04-9.68,3.07-14.52.08-.39.27-.76.52-1.45ZM676.46,55.4c-.02-.89-.69-2.01-1.92-2.44-1.02-.35-2.1-.55-3.17-.71-1.29-.19-2.2.26-2.6,1.44-.52,1.54-.93,3.12-1.26,4.71-.28,1.32.72,2.56,2.06,2.36,1.58-.23,3.22-.62,4.63-1.34,1.33-.67,2.33-1.89,2.26-4.03Z"/>
  <path class="cls-4" d="M163.1,40.38c.32.95.58,1.45.64,1.97,1.7,14.46,3.38,28.93,5.05,43.33-2.91.96-12.4,1.09-16.3.26-.2-1.52-.41-3.11-.66-4.95-3.78-.56-7.46-.22-11.34-.19-1.01,1.75-2.03,3.51-3.11,5.38-5.39.85-10.68-.19-15.96-.44-.67-1.35.2-2.22.69-3.11,3.21-5.94,6.46-11.87,9.73-17.78,3.8-6.88,7.62-13.75,11.43-20.62.4-.72.78-1.46,1.2-2.17.59-1.02,1.44-1.67,2.66-1.67,5.23,0,10.46,0,15.97,0ZM151.83,70.33c.15-1.2.35-2.13.36-3.05.07-4.52.1-9.05.12-13.57,0-.48.16-1.13-.69-1.11-2.73,5.02-6.69,14.98-7.07,17.91,2.29.47,4.56.42,7.28-.17Z"/>
  <path class="cls-4" d="M514.91,40.55c.45,4.18-1.04,7.74-.85,11.61-1.02.22-1.79.51-2.56.53-3.72.07-7.45.02-11.17.09-2.95.05-3.24.36-3.53,3.34-.05.54,0,1.08,0,1.84.86.19,1.62.48,2.38.5,2.62.08,5.24.04,7.86.11.93.02,1.86.22,2.8.34.77,3.02-.58,5.58-1.08,8.23-.16.87-1.2,1.06-2.06,1.04-2.48-.07-4.95-.2-7.42-.27-1.35-.04-2.71,0-4.14,0-1.35,1.79-1.89,3.64-1.3,5.94,4.94.7,9.91-.09,14.77.44.3,2.53-.66,7.5-2.26,11.83-3.29.73-6.73.24-10.14.33-3.31.09-6.62.03-9.93.02-3.43,0-6.85-.04-10.53-.06.5-5.52,2.1-10.49,3.1-15.56.98-4.99,2.17-9.95,3.28-14.91,1.14-5.09,2.31-10.17,3.49-15.38,2.58-.59,5.06-.23,7.5-.29,2.34-.05,4.69,0,7.03,0,2.48,0,4.96-.02,7.45.02,2.32.04,4.65-.19,7.31.27Z"/>
  <path class="cls-4" d="M735.66,40.73c.29,2.57-.54,8.75-1.63,11.81-4.83.54-9.79-.16-14.7.27-1.42,1.43-1.41,3.27-2.02,4.89,2.75.9,6.33.98,13.5.37.12.72.46,1.51.31,2.19-.49,2.28-1.15,4.53-1.78,6.95-1.01.13-1.93.33-2.86.36-2.62.08-5.25-.02-7.86.16-3.47.24-4.14,1.28-3.65,5.44,4.95.63,10.12-.26,15.13,1.47-.89,4.08-2.54,7.84-3.98,11.5-4.7.58-26.28.45-29.23-.14-.04-.38-.2-.8-.12-1.18,3.12-14.4,6.25-28.79,9.41-43.17.08-.37.42-.69.72-1.15.62-.07,1.3-.2,1.97-.2,8.69,0,17.38.03,26.07.07.24,0,.48.23.72.35Z"/>
  <path class="cls-4" d="M302.54,42.74c-1.03,4.72-3.44,8.58-5.01,12.9-.68-.19-1.1-.2-1.37-.41-4.41-3.45-8.93-3-13.48-.38-2.96,1.7-5.16,4.11-6.39,7.33-2.59,6.82,2.68,11.56,7.39,11.36,2.5-.11,4.95-.18,7.18-1.52.78-.47,1.69-.74,2.81-1.22.65,4.43.3,8.5.3,12.78-3.74,1.86-7.6,3.24-11.69,3.75-2.31.29-4.68.13-7.02.12-7.2,0-11.76-4.02-14.91-10.01-2.06-3.92-2.52-8.15-1.74-12.46,1.86-10.33,7.56-17.8,16.89-22.57,6.43-3.29,13.11-3.89,20.05-2.2,2.25.55,4.61.81,6.99,2.53Z"/>
  <path class="cls-4" d="M832.56,40.56c4.5-.52,25.93-.32,29.24.28.06.72.36,1.57.16,2.28-.82,3.03-.27,6.34-1.97,9.48-2.55,0-5.15,0-7.75,0-2.6,0-5.2.02-7.94.03-.56,1.89-1.27,3.5-.94,5.46,4.37.81,8.8,0,13.35.68,0,3.17-.86,6.02-1.55,9.01-2.27.97-4.63.36-6.92.47-2.32.11-4.65.06-6.8.08q-1.54,2.46-1.25,4.79c4.83,1.81,10.05.35,15.23,1.39-.26,4.14-1.84,7.8-2.84,11.51-3.67,1.01-24.66.36-29.69-.61.15-2.76,6.94-36.05,8.74-42.74.21-.77.64-1.48.92-2.12Z"/>
  <path class="cls-4" d="M904.31,56.55c-.72-.41-.97-.52-1.19-.68-6.05-4.67-13.58-3.96-18.35,1.89-3.21,3.95-3.53,8.8-.18,12.41,1.83,1.97,4.09,3.2,6.9,3.26,2.66.06,5.23-.1,7.58-1.53.67-.41,1.44-.65,2.42-1.07.2.8.43,1.29.42,1.78-.04,3.17-.16,6.34-.18,9.51,0,1.56-.71,2.59-2.01,3.34-4.88,2.82-10.13,3.37-15.58,2.46-1.62-.27-3.18-1-4.81-1.15-5.91-.55-11.65-8.13-12.31-13.99-.53-4.77.15-9.29,1.4-13.81.15-.53.33-1.05.49-1.58,2.25-7.81,7.78-12.46,14.99-15.42,5.17-2.12,10.57-3.01,16.18-2.49,2.78.26,5.37,1.14,7.91,2.19,1.07.44,1.52,1.33,1.12,2.35-1.57,4.09-2.89,8.28-4.81,12.53Z"/>
  <path class="cls-4" d="M198.23,86.33c-4.9.24-9.4.23-14.08.08.45-5.14,1.61-9.82,2.59-14.51.47-2.25.43-4.31-.4-6.46-2.33-6.04-4.56-12.13-6.82-18.19-.48-1.29-1.02-2.57-1.39-3.89-.21-.74-.13-1.57-.17-2.31,3.04-.85,12.44-.94,16.25-.19,1.62,4.72,1.21,9.93,2.84,15.11,2.41-2.55,3.4-5.46,4.91-8.04,1.45-2.49,2.86-4.99,4.35-7.6,5.68.17,11.17-.36,16.67.67.15,1.61-.88,2.41-1.6,3.34-5.85,7.49-11.69,15-17.6,22.46-1.07,1.35-1.65,2.73-1.95,4.44-.69,3.93-1.62,7.82-2.5,11.71-.24,1.06-.66,2.08-1.09,3.4Z"/>
  <path class="cls-4" d="M115.66,54.51c-2.56,10.31-4.44,20.7-6.88,30.85-4.33,1.22-9.37,1.47-14.04.72-.87-1.1-.46-2.36-.21-3.52,1.66-7.94,3.37-15.87,5.1-23.79.29-1.33.85-2.62,0-4.27-3.13-.11-6.39-.22-9.82-.34-.13-.68-.39-1.22-.29-1.68.87-3.74,1.81-7.47,2.76-11.2.06-.24.34-.42.63-.76.4-.07.93-.25,1.46-.25,11.3.01,22.59.04,33.89.09.39,0,.77.23,1.12.34.11.32.31.6.27.82-.72,3.5-1.45,7-2.24,10.48-.39,1.72-.81,2.09-2.51,2.14-2.06.07-4.13,0-6.2.04-.94.02-1.87.19-3.05.32Z"/>
  <path class="cls-4" d="M739.69,85.47c-.04-.85-.22-1.54-.09-2.17,3.03-14.24,5.8-28.53,9.01-42.76,3.34-.84,6.51-.33,9.64-.41,3.17-.08,6.34-.03,9.51.02,3.13.05,6.28-.17,9.52.22.89,4.14-.99,7.8-.53,11.64-2.72,1.02-5.21.46-7.64.55-2.47.09-4.94.02-7.44.02-1.6,1.93-1.6,4.13-2,6.36,4.26.68,8.41.02,12.67.6.62,3.66-1.09,6.76-1.68,10.22-4.37.98-8.81-.13-13.22.6-1.34,2.83-1.42,5.9-2.14,8.8-.47,1.86-.69,3.79-1.08,5.67-.18.89-.8,1.42-1.72,1.53-.27.03-.55.05-.82.03-3.95-.3-7.9-.6-11.98-.91Z"/>
  <path class="cls-4" d="M574.02,86.05c-.13-3.83,1.33-7.18,1.89-10.68.54-3.39,1.42-6.73,2.13-10.1.74-3.48,1.46-6.97,2.21-10.58-3.71-.91-7.34.07-10.97-.78.59-4.67,1.59-9.06,3.06-13.26,3.3-.55,32.34-.57,36.57-.04.12.31.45.7.39,1.02-.77,3.9-1.59,7.8-2.4,11.69-3.65,1.62-7.32.24-10.87,1.04-1.13.88-1.22,2.27-1.51,3.61-1.87,8.61-3.78,17.21-5.68,25.81-.12.53-.29,1.04-.42,1.5-3.12.78-10.76,1.22-14.41.76Z"/>
  <path class="cls-4" d="M956.25,39.64c-.9,4.32-1.76,8.45-2.65,12.73-3.79.75-7.54-.12-11.4.62-2.5,10.48-4.52,20.98-6.92,31.25-3.29.88-10.64.98-14.37.21.07-1.02.02-2.11.23-3.14,1.71-8.22,3.49-16.43,5.21-24.64.19-.9.16-1.85.25-2.89-3.49-.94-7.09.15-10.45-1.64.43-4.15,1.54-8.22,2.72-12.46.82-.13,1.6-.35,2.39-.35,10.76,0,21.53,0,32.29.04.8,0,1.61.17,2.69.29Z"/>
  <path class="cls-4" d="M804.51,40.41c.7,1.42.29,2.59.01,3.79-1.94,8.6-3.87,17.2-5.79,25.8-.15.65-.19,1.33-.31,2.22.9.19,1.66.47,2.43.48,3.45.05,6.9.01,10.35.04,1.08,0,2.17.14,3.31.22,1.04,2.62-.62,4.63-1.11,6.82-.48,2.15-1.08,4.26-2.12,6.32-3.34.69-6.64.27-9.92.34-3.45.07-6.9.08-10.35,0-3.27-.08-6.58.41-9.74-.37-.64-1.39-.3-2.61-.04-3.81,2.69-12.52,5.32-25.05,8.15-37.54.99-4.37.58-4.44,5.36-4.46,2.48,0,4.97-.07,7.45-.06.8,0,1.6.15,2.3.23Z"/>
  <path class="cls-4" d="M209.12,92.82c.86.17,1.65.35,2.45.47,1.88.29,2.51-.04,3.38-1.57.54-.94.55-1.83-.05-2.71-.92-1.36-1.85-2.71-2.9-4.24,1.55-3.09,3.1-6.15,4.63-9.22.76-1.52,1.93-2.25,3.65-2.19,2.48.08,4.97.06,7.45.15.5.02.99.34,1.73.62-.22.89-.27,1.72-.62,2.39-1.43,2.67-2.9,5.31-4.44,7.92-1.83,3.08-3.83,6.06-5.59,9.18-1.53,2.71-3.63,4.05-6.76,3.62-.27-.04-.55,0-.83-.02-1.06-.09-2.4.43-3.09-.64-.92-1.43.18-2.55.99-3.76Z"/>
  <path class="cls-4" d="M603.97,95.75c.49-.46,1.06-.86,1.46-1.4,1.13-1.52,1.14-2.23.12-3.72-.85-1.24-1.74-2.44-2.72-3.79,1.44-2.92,2.84-5.74,4.21-8.58,1.02-2.11,2.82-2.92,5-3.09,2.76-.21,5.39.47,8.3,1.03-.29.96-.44,1.75-.77,2.46-1.97,4.25-10.02,17.2-12.5,20.11-2.7.51-5.55.22-8.47.18-.51-1.77.38-2.77,1.35-4,1.29.25,2.6.51,4.02.79Z"/>
  <path class="cls-7" d="M677.77,40.8c3.52.06,6.66,1.32,9.78,2.88,5.37,2.68,8.05,8.94,5.48,15.51-1.65,4.21-3.95,7.86-8.08,10.08-.46.25-.84.64-1.43,1.1,1.34,2.79,2.65,5.5,3.95,8.21,1.25,2.6,2.52,5.2,3.72,7.82.44.97,0,1.69-1.01,1.73-4.82.17-9.65.29-14.47.43-1.07.03-1.81-.45-2.28-1.44-.94-1.99-1.91-3.97-2.9-5.94-.98-1.95-1.81-3.99-3.56-5.96-1.74,4.44-1.87,9.02-3.33,13.19-1.92.26-14.04.42-15.31.21-.92-.15-1.52-.79-1.38-1.72.29-1.9.64-3.8,1.04-5.68,2.77-13.06,5.55-26.11,8.34-39.16.05-.26.24-.48.37-.73.46.06.92.13,1.38.19-.29.92-.65,1.82-.85,2.75-2.43,11.3-4.87,22.59-7.21,33.91-.58,2.81-1.42,5.59-1.5,8.44.33.2.55.44.78.45,3.99.11,7.99.2,11.98.26.96.02,1.45-.56,1.65-1.5.48-2.29,1-4.57,1.53-6.85.47-2,.95-4.01,1.46-6,.15-.56.96-.73,1.29-.29.49.65,1,1.31,1.38,2.03,1.83,3.54,3.62,7.11,5.42,10.67.44.87.89,1.67,2.09,1.64,4.13-.09,8.27-.11,12.4-.18.78-.01,1.09-.64.75-1.47-.31-.76-.66-1.51-1.02-2.25-1.98-4.08-3.99-8.16-5.96-12.24-.6-1.23-.53-1.59.83-2.18,4.95-2.19,7.49-6.32,9.07-11.18,1.44-4.42-.07-9.92-4.79-12.43-2.44-1.3-4.89-2.53-7.7-2.81-.68-.07-1.38-.07-1.91-.61,0-.3,0-.6,0-.9Z"/>
  <path class="cls-12" d="M64.69,88.98c-4.59,1.4-9.23,1.16-13.84.25-2.83-.55-5.59-1.45-8.16-2.83-1.54-.83-1.7-1.23-.97-2.96,1.5-3.55,3.01-7.08,4.57-10.6.9-2.05,1.24-2.18,3.02-1.02,2.81,1.82,5.85,3.03,9.1,3.75.67.15,1.36.39,2.01.31.92-.1,1.94-.23,2.41-1.27.31-.69-.2-1.61-1.37-2.26-1.2-.67-2.48-1.18-3.69-1.84-1.93-1.05-3.9-2.05-5.73-3.25-3.65-2.39-5.2-5.93-5.08-10.21.05-1.64.23-3.26.64-4.89,1.24-4.9,4.17-8.36,8.66-10.42,5.1-2.35,10.56-3.05,16.12-2.59,2.73.23,5.42.95,8.13,1.47.54.1,1.06.3,1.57.49,3.23,1.2,3.4,1.52,2.13,4.78-1.35,3.45-2.36,7.05-4.33,10.24-.84,1.36-1.47,1.63-2.63.76-2.12-1.59-4.51-2.57-6.96-3.47.04-.34.08-.68.12-1.02,2.99.25,5.32,2.09,8.03,3.46,2.41-3.66,3.45-7.83,5-11.76.17-.43-.09-.83-.45-1.03-.59-.33-1.21-.63-1.85-.83-5.88-1.8-11.89-2.25-17.95-1.29-3.41.54-6.57,1.82-9.45,3.86-4.82,3.41-6.83,12.86-4.71,16.81,1,1.86,2.09,3.5,3.87,4.7,2.18,1.47,4.54,2.57,6.89,3.71,1.36.66,2.77,1.23,3.83,2.38,1.37,1.49,1.11,3.01-.66,4.09-1.54.93-3.19.93-4.79.46-2.1-.62-4.13-1.51-6.22-2.16-1.4-.44-2.58-2.21-4.04-1.46-1.3.67-1.42,2.56-2.07,3.91-.83,1.73-1.51,3.54-2.29,5.3-.33.76-.68,1.5-.48,2.42,1.18.94,2.63,1.4,4.05,1.91,5.72,2.04,11.57,2.22,17.5,1.14.04.33.07.67.11,1Z"/>
  <path class="cls-8" d="M719.23,73.89c4,.16,7.99.3,11.99.48,1.12.05,1.63.64,1.33,1.55-1.24,3.8-2.54,7.57-3.8,11.36-.36,1.06-1.07,1.49-2.17,1.49-5.11-.02-10.22,0-15.32-.01-4.14,0-8.28.01-12.42-.03-1.83-.02-2.26-.55-1.91-2.25.84-4.05,1.72-8.09,2.59-12.13,2.14-9.97,4.28-19.94,6.44-29.9.26-1.2.64-2.38.97-3.63.81-.06,1.48-.16,2.16-.16,8.7-.03,17.39-.05,26.09-.07.55,0,1.11-.02,1.66.02,1.06.07,1.53.54,1.54,1.5,0,.28,0,.55-.04.83-.4,2.86-.82,5.72-1.22,8.58-.38-.03-.75-.07-1.13-.1.05-.68.09-1.37.16-2.05.18-1.78.41-3.56.54-5.35.12-1.63-.12-1.82-1.87-1.91-.28-.01-.55-.01-.83,0-7.87.03-15.73.06-23.6.1-.41,0-.83,0-1.24.04-.74.06-1.29.33-1.47,1.15-.18.81-.46,1.59-.63,2.4-2.72,12.66-5.43,25.32-8.14,37.98-.12.54-.21,1.08-.28,1.63-.17,1.37.16,1.82,1.42,1.9.83.05,1.66.04,2.48.04,6.35.02,12.7.07,19.04.03,6.79-.03,5.39.93,7.56-5.49.65-1.93,1.7-3.76,1.61-6.13-1.42-.07-2.76-.14-4.1-.22-2.47-.15-4.97.13-7.41-.49,0-.38,0-.75,0-1.13Z"/>
  <path class="cls-2" d="M170.1,83.63c.13.24.34.47.38.72.65,4,.43,4.3-3.54,4.33-4.41.03-8.82.02-13.23.04-.98,0-1.56-.42-1.64-1.42-.07-.82-.06-1.65-.13-2.47-.14-1.56-.37-1.82-2.07-1.85-2.61-.05-5.23-.01-7.93-.01-.73,1.46-1.39,2.81-2.07,4.15-.53,1.06-1.28,1.67-2.59,1.64-5.1-.13-10.2-.17-15.29-.3-1.54-.04-1.92-.78-1.29-2.12.24-.5.51-.98.77-1.46,1.59-2.9,3.18-5.79,4.77-8.68,5.77-10.49,11.54-20.98,17.31-31.46.4-.72.84-1.42,1.2-2.17.54-1.12,1.42-1.64,2.63-1.66,5.37-.08,10.75-.18,16.12-.21,1.42,0,1.49.18,2.01,2.45-.36.02-.72.03-1.07.05-.56-1.02-1.5-1.03-2.5-1.02-4.41.06-8.83.19-13.24.1-1.81-.04-2.69.71-3.51,2.2-7.19,13.18-14.44,26.32-21.67,39.48-.33.6-.64,1.21-.89,1.85-.23.61,0,1.13.69,1.15,4.41.14,8.82.23,13.23.36,1.26.04,2.07-.52,2.56-1.67.43-1.01.97-1.98,1.44-2.97.33-.69.89-1.08,1.63-1.05,3.3.15,6.62-.37,9.91.19.79.13,1.21.56,1.22,1.37.01.83.04,1.65.04,2.48,0,.97.39,1.61,1.43,1.6,4.41-.03,8.83-.08,13.24-.15.82-.01,1.18-.55,1.16-1.36-.02-.69-.03-1.38-.04-2.06.32-.02.64-.04.97-.06Z"/>
  <path class="cls-13" d="M412.36,73.83c-.88,4.18-1.7,8.37-2.65,12.54-.52,2.27-.62,2.33-2.69,2.35-4.68.05-9.37.01-14.19.01-2.28-5.62-4.55-11.23-6.83-16.83-.41-1.02-.85-2.03-1.36-3-.16-.3-.61-.61-.94-.62-.37-.01-.68.35-.76.81-.57,3.12-1.15,6.24-1.73,9.35-.55,2.98-1.1,5.97-1.65,8.95-.14.77-.62,1.21-1.4,1.23-4.69.15-9.38.31-14.07.41-.98.02-1.45-.62-1.24-1.68.81-4.05,1.66-8.1,2.53-12.14,1.67-7.67,3.37-15.34,5.06-23.01.31.02.62.03.93.05-.16,1.22-.24,2.46-.5,3.67-2.01,9.41-4.06,18.81-6.06,28.22-.23,1.07-.28,2.17-.41,3.21.85.55,1.69.42,2.5.39,3.17-.11,6.33-.19,9.49-.39,1.73-.11,1.87-.3,2.24-2.3,1.11-5.95,2.18-11.9,3.25-17.86.26-1.42.33-2.91,1.28-4.29.88.63,1.14,1.39,1.45,2.16,2.47,6.12,4.96,12.23,7.45,18.33.41,1.02.85,2.02,1.3,3.03.37.83,1.01,1.23,1.95,1.21,3.72-.08,7.44-.1,11.15-.21,1.49-.05,1.69-.24,2.1-1.98.92-3.88,1.76-7.77,2.64-11.66.39.02.77.03,1.16.05Z"/>
  <path class="cls-8" d="M894.88,40.18c3.14-1.06,6.27-.42,9.37.15,2.16.4,4.32.87,6.23,2.06,1.29.81,1.61,1.34,1.11,2.72-1.63,4.52-3.35,9.02-5.09,13.5-.38.97-1.2,1.1-1.89.26-2.09-2.53-4.8-3.65-7.99-3.64-3.28.01-6.21,1.09-8.64,3.37-.91.86-1.66,1.83-2.23,2.95-2.74,5.36.3,11.3,6.24,12.11,3.4.46,6.57-.15,9.41-2.19.76-.54,1.32-1.42,2.41-1.45.92.71.7,1.76.67,2.68-.11,3.86-.33,7.71-.46,11.57-.05,1.4-.73,2.33-1.84,3.02-1.99,1.25-4.09,2.2-6.42,2.72-3.95.89-7.85,1.14-11.74-.17.04-.36.08-.71.11-1.07.96.11,1.92.18,2.87.33,4.81.76,9.29-.16,13.56-2.44,1.19-.64,1.91-1.39,1.96-2.84.11-3.03.41-6.05.55-9.08.03-.71.38-1.59-.5-2.18-1.13.56-2.2,1.18-3.33,1.63-4.24,1.66-8.37,1.59-12.18-1.15-3.32-2.39-4.43-6.35-3.31-10.27,1.9-6.71,11.69-11.92,19.32-7.15.77.48,1.28,1.45,2.32,1.4.74-.59.89-1.42,1.18-2.2,1.13-3.1,2.31-6.18,3.4-9.29.4-1.15.06-1.84-.96-2.36-.49-.25-.99-.5-1.52-.64-4.13-1.11-8.3-1.81-12.6-1.27,0-.37-.01-.73-.02-1.1Z"/>
  <path class="cls-7" d="M539.44,89.33c-1.94-.14-3.79-.62-5.6-1.29-10.47-3.88-14.26-14.15-13.14-22.4,1.84-13.56,14.37-24.51,26.91-26.1,5.98-.76,11.51.17,16.71,3.21.84.49,1.32.97.97,1.93-1.74,4.78-3.33,9.63-5.79,14.12-.54.98-1.03,1.08-1.87.17-1.16-1.25-2.55-2.09-4.11-2.69.02-.36.05-.71.07-1.07,1.44.08,2.57.88,3.76,1.59,1.03.62,1.38.51,1.94-.62,1.73-3.45,3.01-7.09,4.28-10.73.35-1-.09-1.62-.85-2.04-2.81-1.54-5.79-2.56-9.02-2.73-10.75-.58-19.3,3.73-25.96,11.95-3.93,4.86-5.93,10.45-5.83,16.82.11,6.98,4.29,14.56,12.83,17.48,1.55.53,3.16.9,4.74,1.34-.02.35-.04.7-.05,1.05Z"/>
  <path class="cls-10" d="M109.44,88.19c-.75.46-1.59.37-2.41.39-2.76.05-5.51.07-8.27.13-6.54.15-5.16-.02-4.14-5.4,1.49-7.83,3.28-15.61,4.95-23.41.09-.4.23-.79.3-1.2.2-1.24-.21-1.88-1.43-1.95-1.92-.12-3.85-.13-5.77-.18-.69-.02-1.38,0-2.07-.03-.83-.04-1.27-.52-1.2-1.32.08-.95.22-1.91.43-2.84.65-2.95,1.32-5.9,2.02-8.85.69-2.92.71-2.95,3.91-2.94,9.65.02,19.29.06,28.94.12,1.79.01,3.57.14,5.36.21,0,.44,0,.89,0,1.33-11.16-.09-22.32-.19-33.47-.28-.41,0-.83.02-1.24,0-1.12-.05-1.87.45-2.12,1.53-.77,3.35-1.54,6.7-2.22,10.06-.26,1.3.12,1.7,1.55,1.75,2.61.1,5.23.11,7.84.2.82.03,1.27.57,1.12,1.37-.52,2.7-1.08,5.39-1.65,8.08-1.46,6.86-2.95,13.71-4.41,20.57-.27,1.26.2,1.87,1.46,1.83,4.13-.11,8.26-.28,12.38-.42.05.42.09.83.14,1.25Z"/>
  <path class="cls-2" d="M336.56,89.21c-4.72,1.57-9.5,1.54-14.23.23-11.37-3.14-18.49-13.43-15.39-26.19,2.73-11.22,10.34-18.22,21.09-21.84,5.47-1.84,11.07-1.99,16.64-.19,3.05.98,5.86,2.37,8.13,4.68-.27.22-.54.44-.81.66-6.87-5.18-14.55-6.46-22.69-4.1-9.86,2.86-16.99,9-20.43,18.84-4.27,12.22,2.06,23.99,14.39,26.96,4.35,1.05,8.76.75,13.13-.2.05.38.11.76.16,1.14Z"/>
  <path class="cls-7" d="M468.9,75.42c-.77,3.76-1.51,7.53-2.33,11.29-.32,1.5-.76,1.89-2.23,1.92-4.4.09-8.81.09-13.21.15-1.17.02-1.66-.62-2.05-1.62-2.27-5.75-4.56-11.49-6.93-17.19-.38-.93-.45-2.16-1.74-2.76-1.13,2.95-1.27,5.95-1.88,8.84-.73,3.49-1.23,7.04-1.85,10.56-.26,1.5-.61,1.9-2.15,1.95-4.54.17-9.08.26-13.62.36-.85.02-1.28-.53-1.12-1.34.69-3.5,1.44-6.99,2.17-10.48.39.04.78.08,1.17.12-.65,3.35-1.3,6.7-1.97,10.17.78.12,1.32.28,1.84.26,3.17-.13,6.34-.27,9.51-.46,2.73-.17,2.72-.21,3.18-2.76,1.03-5.69,2.02-11.39,3.13-17.07.28-1.43-.17-3.1,1.19-4.23,1.83.66,1.78,2.53,2.36,3.9,2.6,6.07,5.07,12.2,7.48,18.36.6,1.53,1.47,2.16,3.08,2.1,3.31-.14,6.62-.15,9.93-.28,2.14-.08,2.17-.22,2.74-2.27.88-3.17,1-6.52,2.36-9.57.31.02.63.03.94.05Z"/>
  <path class="cls-12" d="M262.09,81.82c-2.41-3-3.43-6.51-3.7-10.27-.93-13.22,9.15-24.74,17.83-28.84,8.89-4.2,17.54-3.59,26.39-.47.51.18.99.47,1.48.71.91.45,1.06,1.17.68,2.05-1.14,2.65-2.28,5.29-3.43,7.94-.38.88-.77,1.76-1.18,2.63-.52,1.1-.8,2.7-1.67,3.17-1.44.77-1.71-1.31-2.68-1.94-1.81-1.2-3.75-1.64-5.85-1.57-.55.02-1.1.06-1.65.1-.04-.37-.08-.74-.12-1.11,3.66-1.21,6.69.4,9.49,2.16,1.08-.37,1.25-1.24,1.58-1.99.89-2.01,1.77-4.03,2.61-6.06,1.94-4.67,2.62-4.16-2.95-5.92-.79-.25-1.6-.42-2.4-.61-9.01-2.16-17.3-.37-24.62,5.12-7.79,5.85-12.13,13.7-12.31,23.63-.03,1.69.28,3.31.82,4.87.67,1.94,1.56,3.8,2.36,5.69-.23.24-.46.48-.68.72Z"/>
  <path class="cls-7" d="M804.5,55.52c-.92,4.29-1.84,8.58-2.76,12.87-.12.54-.25,1.07-.35,1.61-.58,3.17-.51,3.29,2.66,3.33,4.12.06,8.25.03,12.38.09,1.33.02,1.68.57,1.28,1.87-1.19,3.8-2.39,7.59-3.64,11.37-.66,1.99-.71,2.03-2.51,2.04-9.49.01-18.98,0-28.47-.02-.41,0-.83-.03-1.22-.14-.58-.16-.83-.66-.96-1.21-.03-.12.03-.27.05-.41.78-3.88,1.33-7.82,2.71-11.57.32.02.63.04.95.07-.63,3.1-1.25,6.19-1.89,9.29-.16.77-.59,1.54.36,2.53.98,0,2.21,0,3.43,0,6.75.01,13.51.02,20.26.03,1.38,0,2.76,0,4.13,0,1.1,0,1.75-.46,2.09-1.56.87-2.89,1.84-5.76,2.76-8.64.24-.75.65-1.53-.25-2.39-3.98,0-8.11,0-12.24,0-.96,0-1.93-.02-2.89-.06-.69-.03-.97-.54-.95-1.11.02-.82.14-1.65.32-2.45.97-4.29,1.97-8.58,2.96-12.86.21-.92.08-1.95.87-2.69.31,0,.61.02.92.03Z"/>
  <path class="cls-7" d="M197.07,46.42c.37,2.31.75,4.62,1.11,6.94.05.32.19.53.53.49.24-.03.59-.11.68-.28,1.56-2.76,3.05-5.55,4.63-8.3,3.14-5.48,1.54-4.52,7.9-4.44,4.41.06,8.83.23,13.24.38.85.03,1.19.74.71,1.43-.63.91-1.29,1.79-1.97,2.66-5.69,7.28-11.32,14.61-17.12,21.8-1.8,2.22-2.92,4.58-3.45,7.35-.23,1.18-.04,2.53-1.01,3.51-.3-.01-.61-.03-.91-.04.26-1.49.5-2.98.79-4.46.48-2.46,1.48-4.61,3.1-6.61,5.45-6.76,10.75-13.65,16.1-20.49.68-.87,1.37-1.73,2.02-2.62.48-.66.11-1.33-.76-1.34-3.72-.06-7.45-.11-11.17-.12-4.89-.01-3.9-.69-6.31,3.65-2.07,3.73-4.13,7.47-6.19,11.21-.22.39-.53.59-.98.51-.48-.09-.69-.49-.74-.89-.43-3.42-.82-6.84-1.23-10.25.35-.02.69-.05,1.04-.07Z"/>
  <path class="cls-13" d="M603.84,101.36c-.28,0-.55,0-.83,0-5.38-.05-5.51-.3-3.31-5.27.46-1.03,1.11-1.09,1.96-.9.8.18,1.57.5,2.37.71.98.27,1.55-.37,2.05-1.03.46-.6.49-1.32.09-1.93-.68-1.03-1.46-2.01-2.19-3-.8-1.08-1.01-2.11-.29-3.42,1.46-2.65,2.71-5.41,4.12-8.09.81-1.53,2.01-2.33,3.89-2.6,3.35-.47,6.6.17,9.88.42,1.27.1,1.69,1.2,1.05,2.43-1.14,2.2-2.21,4.45-3.49,6.56-2.78,4.59-5.69,9.1-8.5,13.68-1.11,1.81-2.56,2.77-4.75,2.46-.68-.09-1.38-.01-2.06-.01v-.02ZM615.77,77.04s0,.07,0,.11c-1.24,0-2.48.04-3.71,0-1.39-.05-2.37.54-3,1.74-.89,1.7-1.78,3.41-2.63,5.13-2.34,4.73-2.51,3.77.63,7.94,1.37,1.82,1.32,1.91.15,3.59q-1.43,2.05-4,1.51c-.27-.06-.53-.14-.8-.19-1.27-.22-2.12.6-2.29,2.19-.07.69.52,1.1,1.79,1.11,1.51.02,3.03-.05,4.54-.02,1.22.02,2.09-.5,2.76-1.48.7-1.02,1.5-1.98,2.13-3.04,2.68-4.47,5.38-8.94,7.96-13.47,2.88-5.08,2.89-4.76-2.7-5.07-.27-.02-.55-.03-.82-.04Z"/>
  <path class="cls-8" d="M207.09,98.07c.46-1.17.95-2.44,1.48-3.7.66-1.56.67-1.56,2.43-1.12.67.17,1.33.36,2,.51.95.22,1.56-.3,2.05-1.02.44-.65.4-1.31-.02-1.92-.7-1.02-1.43-2.02-2.18-3-.85-1.11-.86-2.16-.17-3.41,1.31-2.41,2.46-4.91,3.67-7.37,1.13-2.32,2.86-3.51,5.55-3.41,2.88.11,5.78-.1,8.62.62,1.48.38,1.83,1.07,1.16,2.38-1.06,2.08-2.07,4.19-3.28,6.19-2.84,4.7-5.81,9.33-8.68,14.01-1.18,1.93-2.68,2.98-5.07,2.72-1.77-.2-3.57-.05-5.35-.17-.81-.05-1.6-.4-2.2-1.31ZM230.21,75.7c-3.4-.57-6.47-1.1-9.64-.48-1.17.23-2.05.72-2.59,1.77-1.25,2.44-2.44,4.91-3.75,7.32-.77,1.42-.59,2.6.46,3.75.37.4.68.86,1,1.31,1.81,2.52,1.76,2.54-.05,4.96-.78,1.04-1.66,1.34-2.84.95-.52-.17-1.03-.38-1.57-.5-.56-.13-1.11-.01-1.4.54-.36.69-1.13,1.39-.61,2.2.38.59,1.21.53,1.91.52,1.37-.03,2.74-.06,4.11-.07,1.49-.01,2.58-.67,3.36-1.94,2.87-4.68,5.83-9.3,8.6-14.05,1.09-1.87,2.34-3.7,3.01-6.29Z"/>
  <path class="cls-8" d="M483.3,53.08c.73-3.49,1.42-6.99,2.19-10.48.38-1.72.75-1.97,2.53-2.05.69-.03,1.38,0,2.06,0,7.71.02,15.41.04,23.12.06.96,0,1.93,0,2.89.06.82.05,1.26.6,1.24,1.35-.04,1.37-.17,2.75-.32,4.11-.24,2.19-.52,4.37-.8,6.55-.29,2.29-.54,2.54-2.81,2.59-3.58.07-7.16.08-10.73.14-.82.01-1.65.05-2.46.18-.83.13-1.69,2.08-1.19,2.7.21.27.68.44,1.04.46,2.06.11,4.12.16,6.19.23,0,.45,0,.89,0,1.34-2.61-.11-5.22-.18-7.82-.34-.76-.05-1.32-.57-1.12-1.39,1.19-4.75.11-4.71,5.35-4.71,3.44,0,6.88-.03,10.31-.07.69,0,1.41-.04,1.62-.91.84-3.44.9-6.95,1.31-10.37-1.48-.6-2.73-.39-3.95-.4-5.36-.06-10.73-.08-16.09-.11-1.93-.01-3.85-.05-5.78-.03-2.96.02-2.96.04-3.61,2.76-.67,2.8-1.35,5.59-2.02,8.39-.38-.02-.75-.03-1.13-.05Z"/>
  <path class="cls-7" d="M938.61,81.2c-1.33,7.24-.46,5.82-7.1,6.06-2.75.1-5.51.13-8.27.22-1.97.07-2.75-.44-2.25-2.62,2.04-8.98,3.88-18.01,5.8-27.03.14-.68.34-1.33-.03-2.19-2.79-.05-5.68-.08-8.56-.16-1.36-.04-1.97-.54-1.79-1.68.54-3.36.8-6.81,2.45-9.9.28,0,.55,0,.83,0-.36,3.26-1.78,6.34-1.66,9.96,1.84.11,3.61.24,5.38.33,1.24.06,2.48.02,3.71.11,1.33.1,1.54.45,1.32,1.91-.13.82-.25,1.64-.42,2.44-1.8,8.34-3.62,16.67-5.42,25.01-.16.76-.5,1.57.26,2.37,3.22,0,6.52.03,9.82,0,3.57-.04,3.56-.07,4.43-3.77.09-.4.26-.78.39-1.16.37.04.74.08,1.11.11Z"/>
  <path class="cls-2" d="M197.07,46.42c-.35.02-.69.05-1.04.07-.88-1.15-.26-2.71-1.03-3.87-4.57-.55-13.02-.43-16,.25-.02,1.4.72,2.62,1.18,3.88,2.47,6.72,4.97,13.42,7.54,20.1.72,1.86.93,3.65.51,5.61-1.03,4.85-1.94,9.72-2.89,14.58-.42,0-.84,0-1.26,0,.89-4.72,1.7-9.46,2.72-14.15.46-2.12.28-4.02-.49-6.02-2.72-7.04-5.34-14.12-7.99-21.19-.38-1.03-.79-2.06-1.05-3.12-.18-.74.21-1.33,1-1.52.4-.1.82-.13,1.23-.13,4.82-.01,9.63-.02,14.45-.02,1.85,0,2.6.45,2.7,2.29.06,1.09.28,2.17.43,3.26Z"/>
  <path class="cls-2" d="M884.15,88.78c-.04.36-.08.71-.11,1.07-5.19-.43-9.55-2.44-12.8-6.64-1.98-2.56-3.3-5.35-3.76-8.59-1.15-7.97.76-15.33,4.58-22.2,2.42-4.35,6.52-7.07,10.9-9.23,2.21-1.09,4.56-1.96,7.04-2.31.02.38.05.75.07,1.13-1.8.65-3.63,1.23-5.39,1.97-6.94,2.91-11.98,7.62-14.15,15.04-1.59,5.44-2.91,10.89-1.43,16.6,1.6,6.18,5.12,10.52,11.51,12.16,1.19.31,2.37.67,3.56,1Z"/>
  <path class="cls-12" d="M719.23,73.89c0,.38,0,.75,0,1.13-.41.03-.83.11-1.23.08-3.23-.26-3.25-.34-2.3-3.45.78-2.56.77-2.66,3.3-2.75,3.31-.12,6.62-.14,9.92-.22.9-.02,1.56-.31,1.79-1.32.53-2.4,1.14-4.79,1.69-7.1-.75-.58-1.45-.48-2.12-.47-2.62.05-5.24.02-7.85.2-5.43.37-4.2-.67-3.21-4.53.28-1.08.88-1.67,2.02-1.66.96,0,1.93,0,2.89.01,3.17.03,6.34.08,9.51.08,1.76,0,1.76-.04,2.24-2.09.03-.13.07-.27.1-.4.37.03.75.07,1.13.1-.04.41-.12.82-.13,1.23-.04,2.48-.86,2.71-3.13,2.64-2.76-.08-5.51-.14-8.27-.21-.69-.02-1.38-.05-2.07-.06-2.85,0-2.94.08-3.36,3.44,2.46.38,4.93.06,7.39.04,1.24-.01,2.48-.05,3.72-.15,2.89-.22,2.94.65,2.31,2.74-.67,2.24-1.12,4.54-1.72,6.8-.45,1.7-.57,1.81-2.17,1.9-3.58.19-7.16.33-10.75.48-.9.04-1.56.37-1.9,1.27-.49,1.28-.16,1.82,1.39,2.11.27.05.54.09.82.13Z"/>
  <path class="cls-12" d="M426.8,54.71c.81-4.02,1.59-8.05,2.44-12.07.39-1.84.68-2.1,2.45-2.1,4.39,0,8.78.1,13.18.11,1.43,0,2.22.64,2.74,1.97,2.14,5.49,4.36,10.94,6.55,16.4.3.74.4,1.62,1.39,1.9.63-1.82.8-3.71.96-5.6.09-1.08,0-2.22.76-3.14.29,0,.57.02.86.02-.21,2.05-.41,4.1-.65,6.14-.24,2.05-.53,4.1-.82,6.14-.05.37-.13.81-.69.81-.47,0-.78-.28-.94-.66-.39-.88-.73-1.78-1.09-2.67-2.41-5.99-4.86-11.98-7.2-18-.47-1.2-1.07-1.81-2.36-1.84-3.86-.08-7.71-.19-11.57-.31-1.07-.03-1.9.28-2.23,1.39-.19.66-.27,1.35-.46,2.01-.92,3.15-1.01,6.51-2.36,9.55-.31-.02-.63-.03-.94-.05Z"/>
  <path class="cls-8" d="M773.69,67.92c-.91,5.25-.28,4.94-5.93,4.88-1.79-.02-3.58-.05-5.38-.05-3.64,0-3.06-.11-3.91,3.35-.75,3.07-1.23,6.21-1.83,9.32-.05.27-.06.55-.12.82-.48,2.23-.77,2.54-3.02,2.46-4.27-.15-8.54-.38-12.81-.6-1.14-.06-1.5-.48-1.27-1.56.8-3.76,1.64-7.52,2.47-11.28.38.05.76.1,1.14.14-.55,2.84-1.09,5.68-1.64,8.52q-.56,2.86,2.53,2.96c2.34.08,4.69.13,7.04.19,3.31.08,3.97,1.05,4.7-3.79.47-3.13,1.16-6.23,1.82-9.33.53-2.5.78-2.69,3.28-2.71,2.48-.02,4.97.03,7.45.03q3.34,0,4.33-3.41c.38.02.76.03,1.14.05Z"/>
  <path class="cls-11" d="M858.11,66.28c-.12.68-.23,1.36-.36,2.03-.4,2.09-.45,2.18-2.7,2.2-3.44.03-6.88,0-10.33-.03-1.07-.01-1.82.32-2.25,1.38-.56,1.38-.22,2.19,1.19,2.33,1.23.12,2.47.15,3.71.17,3.03.06,6.06.07,9.09.15,1.69.04,1.92.33,1.5,1.96-.92,3.59-1.9,7.17-2.84,10.76-.29,1.09-.95,1.58-2.08,1.56-5.37-.1-10.73-.17-16.1-.26,0-.36,0-.72,0-1.09,1.65,0,3.3-.03,4.95,0,3.31.06,6.62.17,9.93.2,1.67.01,1.94-.21,2.36-1.7.77-2.79,1.52-5.58,2.23-8.38.33-1.28-.06-1.85-1.36-1.89-3.86-.1-7.72-.17-11.59-.18-2.13,0-2.9-.23-2.46-3.05.08-.53.33-1.04.5-1.56.4-1.2,1.22-1.72,2.5-1.69,2.48.07,4.97.08,7.45.1,1.1.01,2.21.02,3.31,0,1.11-.03,1.8-.57,1.93-1.72.05-.41.14-.82.21-1.22.41-.02.82-.04,1.22-.07Z"/>
  <path class="cls-12" d="M286.56,74.29c2.76-.86,5.48-1.77,7.72-3.73.77-.67,1.72-.22,1.75.75.11,4.41.19,8.82.26,13.23.02.89-.3,1.51-1.26,1.86-4.93,1.76-9.89,3.54-15.18,3.61-4.41.06-8.8-.18-12.67-2.85-2.1-1.44-3.66-3.31-5.09-5.35.23-.24.46-.48.68-.72.92,1.01,1.82,2.03,2.77,3.01,1.85,1.93,4.08,3.27,6.68,3.84,2.69.59,5.42.79,8.2.7,5.04-.16,9.62-1.92,14.19-3.61.54-1.45.26-2.84.29-4.2.03-1.51.03-3.03-.03-4.54-.06-1.28.28-2.64-.38-4.06-2.62,1.53-4.98,2.92-7.82,3.04-.04-.33-.07-.66-.11-1Z"/>
  <path class="cls-10" d="M64.69,88.98c-.04-.33-.07-.67-.11-1,1.32-.38,2.68-.68,3.96-1.16,3.26-1.22,6.22-2.91,8.57-5.58,4.35-4.93,4.89-14.52-2.39-18.7-2.16-1.24-4.39-2.28-6.58-3.45-1.59-.85-3.17-1.72-4.26-3.2-1.11-1.51-.28-3.51,1.57-3.79,1.65-.25,3.3-.18,4.92.27-.04.34-.08.68-.12,1.02-1.51-.03-3.03-.12-4.53-.05-.82.03-1.18,1.31-.62,1.96,1.1,1.3,2.56,2.06,4.04,2.81,2.09,1.06,4.16,2.14,6.2,3.29,8.08,4.54,7.59,15.11,2.93,20.45-3.6,4.13-8.16,6.45-13.58,7.13Z"/>
  <path class="cls-8" d="M511.18,76.22c-.75,3.61-1.51,7.22-2.23,10.84-.23,1.12-.87,1.65-1.99,1.65-.96,0-1.92.01-2.88.02-7.95,0-15.91,0-23.86,0-.96,0-1.92.03-2.88-.03-1.41-.09-1.91-.75-1.58-2.2.86-3.73,1.77-7.44,2.66-11.16.37.02.74.03,1.11.05-.18,1.08-.33,2.18-.56,3.25-.49,2.29-1.06,4.56-1.52,6.86-.25,1.24.19,1.7,1.54,1.78.41.02.83.02,1.24.02,8.01-.01,16.01-.02,24.02-.04.69,0,1.38.01,2.07-.07.71-.08,1.29-.4,1.47-1.2.18-.81.52-1.59.59-2.41.25-2.72,1.73-5.27,1.11-8.1.57.25,1.13.49,1.7.74Z"/>
  <path class="cls-13" d="M938.61,81.2c-.37-.04-.74-.08-1.11-.11,1.8-8.46,3.59-16.91,5.4-25.37.36-1.69.53-1.86,2.12-1.89,2.75-.05,5.5-.05,8.25-.03,1,0,1.55-.49,1.74-1.39.7-3.36,1.38-6.72,2.02-10.09.1-.52-.07-1.08-.11-1.63.32-.28.64-.56.96-.83.65.13.91.6.8,1.19-.83,4.18-1.69,8.35-2.56,12.52-.24,1.13-1.04,1.51-2.13,1.5-1.93-.02-3.86,0-5.78.01-.69,0-1.38-.02-2.06.03-1.46.1-1.87.43-2.2,1.94-1.13,5.1-2.21,10.21-3.33,15.31-.65,2.95-1.33,5.89-1.99,8.84Z"/>
  <path class="cls-8" d="M412.36,73.83c-.39-.02-.77-.03-1.16-.05,1.14-5.52,2.28-11.03,3.44-16.55.93-4.44,1.91-8.87,2.81-13.31.27-1.3-.15-1.81-1.47-1.81-3.99,0-7.99.07-11.98.1-.77,0-1.29.36-1.7.96-.37-.02-.73-.03-1.1-.05.47-2.31.5-2.41,1.97-2.43,4.53-.07,9.06-.11,13.58-.09,2.25,0,2.7.62,2.26,2.74-1.61,7.64-3.23,15.28-4.87,22.91-.55,2.54-1.18,5.06-1.78,7.58Z"/>
  <path class="cls-11" d="M773.69,67.92c-.38-.02-.76-.03-1.14-.05.35-1.62.7-3.23,1.03-4.85.32-1.53.06-1.86-1.68-1.96-1.93-.12-3.86-.17-5.79-.25-1.52-.06-3.03-.08-4.55-.17-.62-.04-1.06-.45-.93-1.08.38-1.88.37-4.07,1.66-5.43,1.15-1.21,3.15-.38,4.77-.46,1.65-.08,3.31-.01,4.96-.01,1.1,0,2.21.03,3.31-.01,1.95-.06,2.32-.41,2.53-2.44.13-1.23.14-2.48.25-3.72.08-.95.07-1.94.7-2.76h.38s.38,0,.38,0c-.25,3-.49,6-.75,8.99-.06.64-.5.95-1.09.99-.96.06-1.92.08-2.87.08-3.29,0-6.58-.03-9.87,0-1.72.02-2.07.32-2.48,2.05-.19.79-.42,1.6-.01,2.67,1.8.03,3.7.07,5.6.1,1.37.02,2.74.02,4.11.06,3.04.09,3.19.26,2.58,3.43-.31,1.61-.74,3.2-1.11,4.8Z"/>
  <path class="cls-13" d="M130.05,42.26c0-.44,0-.89,0-1.33,1.62.45,1.83.67,1.61,1.69-.61,2.95-1.23,5.9-1.86,8.85-.06.27-.18.52-.24.79-.92,4.13-.92,4.05-5.29,4.17-2.28.06-4.64-.57-6.85.5-.51,2.12-1.04,4.23-1.51,6.36-1.1,4.95-2.16,9.91-3.27,14.86-.11.51-.43.98-.65,1.47-.3-.02-.6-.03-.89-.05.85-4.17,1.69-8.34,2.57-12.5.73-3.49,1.54-6.97,2.25-10.47.2-.99.74-1.41,1.67-1.45.82-.04,1.65-.04,2.48-.05,2.06-.02,4.13-.02,6.19-.06.95-.02,1.6-.58,1.75-1.46.62-3.79,1.98-7.44,2.05-11.33Z"/>
  <path class="cls-8" d="M591.4,83.68c-.88,4.58.03,4.78-5.63,4.86-3.42.05-6.85.14-10.27.15-1.29,0-1.76-.52-1.53-1.8.54-2.96,1.15-5.9,1.79-8.84,1.22-5.6,2.48-11.2,3.73-16.79.37.02.74.04,1.11.05-1.72,8.46-3.45,16.91-5.14,25.23,1.12.82,2.1.65,3.05.64,2.48-.04,4.95-.1,7.43-.16q3.35-.08,4.3-3.44c.39.03.77.07,1.16.1Z"/>
  <path class="cls-7" d="M376.99,40.75c3.59.03,7.17.09,10.76.06,1.62-.01,2.48.7,3.05,2.19,1.99,5.14,4.07,10.24,6.13,15.35.36.89.73,1.77,1.08,2.62,1.06-.15.99-.92,1.11-1.52.32-1.6-.11-3.33.87-4.82.3.02.61.03.91.05-.46,3.63-.41,7.34-1.6,10.86-1.34-.32-1.48-1.34-1.83-2.21-2.48-6.23-5.02-12.44-7.41-18.71-.7-1.82-1.73-2.42-3.63-2.41-3.15.01-6.31.19-9.44-.37,0-.37,0-.73,0-1.1Z"/>
  <path class="cls-11" d="M457.54,48.08c.13-1.09.29-2.17.38-3.26.38-4.66.1-4.18,4.97-4.21,3.71-.03,7.42-.06,11.13-.04,1.74.01,2.13.49,1.79,2.31-.52,2.83-1.14,5.65-1.74,8.46-.89,4.16-1.81,8.31-2.71,12.46-.3-.01-.59-.02-.89-.03.13-3.87,1.45-7.51,2.11-11.28.52-2.96,1.27-5.88,1.88-8.83.25-1.21-.2-1.77-1.49-1.82-1.5-.07-3.01-.03-4.52-.01-2.47.03-4.94.06-7.4.16-1.23.05-1.62.54-1.85,1.76-.27,1.46.15,3.05-.86,4.36-.27,0-.54-.01-.81-.02Z"/>
  <path class="cls-13" d="M826.39,70.38c1.86-8.9,3.73-17.79,5.6-26.69.14-.67.39-1.32.56-1.99.2-.76.66-1.14,1.46-1.13,3.45.07,6.89.12,10.34.18,0,.37,0,.74,0,1.12-2.33,0-4.66.05-6.98-.01-3.61-.1-3.61-.13-4.37,3.27-.06.27-.07.54-.13.81-1.77,8.16-3.55,16.32-5.32,24.49-.39-.02-.78-.03-1.17-.05Z"/>
  <path class="cls-11" d="M164.42,43.18c.36-.02.72-.03,1.07-.05,1.23,10.5,2.42,21,3.73,31.49.37,3,.8,5.99.87,9.02-.32.02-.64.04-.97.06-1.57-13.5-3.14-27.01-4.71-40.51Z"/>
  <path class="cls-11" d="M863.77,46.46c-.24,2.71-.33,5.45-1.2,8.05-.84.76-1.83.42-2.74.42-3.97-.02-7.94-.12-11.91-.13-1.67,0-1.72.08-2.04,1.87-.09.53-.08,1.08-.13,1.83,3.14.6,6.27.15,9.35.45,0,.41-.02.81-.02,1.22-3.01-.09-6.03-.17-9.04-.29-1.74-.07-1.91-.25-1.7-1.94.14-1.08.39-2.15.61-3.22.17-.79.73-1.12,1.49-1.11,2.61.02,5.21.1,7.82.09,2.32-.01,4.64.34,6.95-.15,1.24-2.21,1.02-4.74,1.55-7.11.34,0,.68.01,1.03.02Z"/>
  <path class="cls-9" d="M779.6,44.75h-.38s-.38,0-.38,0c-.07-.94-.14-1.88-.21-2.8-3.71-.56-25.23-.58-28.55-.03-.91,4.21-1.84,8.49-2.77,12.76-.28,0-.57,0-.85,0,.41-4.79,1.75-9.38,2.74-14.14.89-.05,1.56-.13,2.22-.12,8.8.03,17.61.06,26.41.12,1.98.01,2.03.1,1.98,2.16-.02.68-.14,1.36-.21,2.05Z"/>
  <path class="cls-3" d="M506.24,60.31c0-.45,0-.89,0-1.34,1.77,0,3.54-.04,5.3.05.93.05,1.44.8,1.25,1.74-.55,2.81-1.12,5.62-1.75,8.41-.19.85-.79,1.38-1.76,1.37-3.55-.04-7.11.03-10.65-.12-1.47-.06-2.25.59-2.88,1.71-.34,0-.68,0-1.02,0,.53-3.29.57-3.34,3.33-3.39.96-.02,1.92,0,2.88.02,2.33.02,4.66.03,6.98.05.92,0,1.58-.33,1.79-1.3.23-1.07.52-2.13.67-3.21.16-1.15.97-2.26.43-3.55-1.6-.16-3.08-.31-4.56-.45Z"/>
  <path class="cls-11" d="M545.26,73.51c3.7.13,7.05-.81,10.04-3.06.86-.65,1.6-.2,1.61.92,0,4.26-.04,8.53-.02,12.79,0,1.27-.5,2.01-1.67,2.51-2.67,1.12-5.32,2.23-8.28,2.3-.02-.32-.03-.64-.05-.97,2.44-.48,4.81-1.18,7.1-2.16,1.13-.48,1.73-1.32,1.73-2.57,0-3.04.03-6.07.02-9.11,0-.54-.03-1.11-.86-1.65-2.95,1.17-6.08,2.74-9.64,1.96,0-.32.02-.65.03-.97Z"/>
  <path class="cls-11" d="M804.5,55.52c-.31,0-.61-.02-.92-.03.18-1.22.31-2.44.55-3.65.49-2.42,1.06-4.82,1.57-7.23.59-2.82.47-3-2.56-2.94-3.02.06-6.04.35-9.05.33-2.02-.02-2.62,1.09-2.88,2.74-.3-.01-.6-.03-.9-.04.05-.68.04-1.38.17-2.05.23-1.23,1-1.91,2.29-1.94,2.06-.05,4.12-.11,6.19-.15,2.34-.04,4.67-.1,7.01-.1,1.29,0,1.78.54,1.51,1.79-.79,3.76-1.65,7.5-2.48,11.25-.15.67-.32,1.33-.49,2Z"/>
  <path class="cls-7" d="M336.56,89.21c-.05-.38-.11-.76-.16-1.14,3.69-1.16,7.19-2.73,10.32-5.05,6.12-4.53,9.96-10.53,11.58-17.96.3.25.61.51.91.76-1.24,7.92-5.73,13.77-11.95,18.43-3.2,2.39-6.74,4.16-10.7,4.96Z"/>
  <path class="cls-9" d="M957.88,39.87c-.32.28-.64.56-.96.83-11.22-.01-22.44-.04-33.66-.04-2.14,0-2.7-.61-3.46,2.85-.03.13-.07.26-.11.4-.28,0-.55,0-.83,0,.07-.82.05-1.66.24-2.44.38-1.61.78-1.89,2.6-1.88,7.82.02,15.63.04,23.45.1,4.25.03,8.49.13,12.74.19Z"/>
  <path class="cls-8" d="M826.39,70.38c.39.02.78.03,1.17.05-.52,2.67-1.05,5.33-1.55,8-.52,2.75-1.61,5.42-1.42,8.51,1.91.04,3.68.04,5.43.12,2.31.1,4.63-.17,6.91.38,0,.36,0,.72,0,1.09-4.11-.02-8.23,0-12.34-.09-1.68-.03-2.11-.68-1.72-2.43,1.15-5.21,2.34-10.42,3.52-15.63Z"/>
  <path class="cls-13" d="M790.31,44.71c.3.01.6.03.9.04-2.2,10.22-4.39,20.44-6.59,30.67-.32-.02-.63-.04-.95-.07.06-3.03,1.06-5.89,1.67-8.81,1.45-6.93,2.91-13.85,4.39-20.78.08-.37.38-.7.57-1.05Z"/>
  <path class="cls-10" d="M288.19,54.21l.12,1.11c-2.14.58-4.14,1.46-5.89,2.86-2.09,1.67-3.64,3.74-4.44,6.31-1.19,3.85.24,7.18,3.82,8.95.61.3,1.28.47,1.92.7-.24.29-.48.59-.72.88-5.28-1.57-7.35-4.82-6.45-10.08.31-1.79,1.11-3.37,2.19-4.79,2.4-3.15,5.43-5.33,9.44-5.95Z"/>
  <path class="cls-8" d="M553.59,55.2c-.02.36-.05.71-.07,1.07-2.3-.46-4.59-.46-6.85.24-1.98.61-3.74,1.6-5.23,3.04-3.19,3.07-3.71,6.12-1.85,10.74-.26.26-.51.51-.77.77-2.46-3.04-2.3-6.19-.6-9.54,2.57-5.08,10.62-8.52,15.38-6.31Z"/>
  <path class="cls-8" d="M609.61,52.19c-.03.27-.02.55-.08.82-.77,3.06.02,3.46-4.29,3.4-2.06-.03-4.12.04-6.18-.02-1.19-.03-1.74.58-1.99,1.61-.54,2.26-1.07,4.52-1.6,6.79-.38-.04-.76-.08-1.14-.12.47-2.42.93-4.84,1.43-7.25.46-2.26.69-2.46,2.96-2.5,2.2-.04,4.39.01,6.59-.02,2.22-.04,2.21-.06,2.98-2.41.04-.13.11-.25.17-.37l1.15.09Z"/>
  <path class="cls-8" d="M863.77,46.46c-.34,0-.68-.01-1.03-.02q.34-4.1-3.75-4.15c-1.9-.02-3.8,0-5.7-.07-2.98-.11-5.97.19-8.93-.35,0-.37,0-.74,0-1.12,6.11.03,12.23.03,18.34.11,1.52.02,1.91.51,1.76,2.05-.12,1.19.11,2.47-.68,3.54Z"/>
  <path class="cls-11" d="M479.52,75.39c-.37-.02-.74-.03-1.11-.05,1.63-7.42,3.26-14.84,4.88-22.26.38.02.76.03,1.13.05-1.63,7.42-3.27,14.84-4.9,22.26Z"/>
  <path class="cls-7" d="M746.45,54.68c.28,0,.57,0,.85,0-1.42,6.91-2.83,13.82-4.25,20.73-.38-.05-.76-.1-1.14-.14,1.3-6.52,2.6-13.05,3.93-19.56.07-.37.4-.68.61-1.02Z"/>
  <path class="cls-10" d="M594.33,64.66c.38.04.76.08,1.14.12-1.36,6.3-2.72,12.6-4.07,18.9-.39-.03-.77-.07-1.16-.1,1.37-6.31,2.73-12.61,4.1-18.92Z"/>
  <path class="cls-11" d="M572.82,41.03c.51-.16,1.03-.45,1.54-.45,8.79.04,17.58.11,26.37.17,0,.36,0,.72,0,1.08-1.77.03-3.55.1-5.32.08-7.24-.05-14.48-.12-21.71-.18-.29-.24-.58-.47-.87-.71Z"/>
  <path class="cls-10" d="M376.99,40.75c0,.37,0,.73,0,1.1-.4.06-.8.17-1.2.15-1.23-.04-2.07.33-2.25,1.71-.12.93-.36,1.85-.63,2.75-.58,1.92-.51,4.01-1.54,5.8l-.93-.05c.66-3.21,1.27-6.44,2-9.64.44-1.92.53-1.92,2.5-1.97.68-.02,1.36.09,2.05.14Z"/>
  <path class="cls-3" d="M570.09,56.34c-1.03-.41-.94-1.3-.76-2.08.87-3.74,1.34-7.59,2.77-11.19.41,0,.81,0,1.22,0-.33,1.57-.74,3.14-.96,4.72-.36,2.52-1.58,4.89-1.22,7.53-.52.17-.93.44-1.04,1.02Z"/>
  <path class="cls-11" d="M658.08,41.53c-.46-.06-.92-.13-1.38-.19.24-.31.48-.87.73-.88,4.31-.14,8.63-1.16,12.93.06.02.26.02.52,0,.77-4.09.08-8.19.16-12.28.24Z"/>
  <path class="cls-2" d="M354.31,47.41c3.1,3.2,4.85,7.01,5.17,11.47-.29,0-.58,0-.87,0-1.1-3.81-2.52-7.48-4.97-10.66.22-.27.45-.53.67-.8Z"/>
  <path class="cls-11" d="M570.09,56.34c.11-.58.53-.86,1.04-1.02,2.19.03,4.38.07,6.57.09,4.67.03,4.29-.08,3.28,4.31-.12.53-.25,1.06-.38,1.59-.37-.02-.74-.04-1.11-.05.15-.93.36-1.85.45-2.79.14-1.54-.17-1.85-1.79-1.9-2.69-.09-5.38-.15-8.06-.22Z"/>
  <path class="cls-8" d="M423.14,77.23c-.39-.04-.78-.08-1.17-.12.85-3.92,1.7-7.83,2.55-11.75.38.03.76.07,1.13.1-.84,3.92-1.68,7.85-2.52,11.77Z"/>
  <path class="cls-13" d="M470.47,63.78c.3.01.59.02.89.03-.82,3.87-1.64,7.74-2.46,11.6-.31-.02-.63-.03-.94-.05.42-3.96,1.18-7.84,2.52-11.59Z"/>
  <path class="cls-9" d="M494.72,72.14c.34,0,.68,0,1.02,0-.06.52-.12,1.03-.17,1.55-.07.63.21.91.84.84,4.45-.01,8.9-.02,13.35-.04,1.2,0,1.73.51,1.43,1.73-.57-.25-1.13-.49-1.7-.74-4.52.02-9.03.05-13.55.04-1.36,0-1.53-.24-1.44-1.76.03-.54.15-1.08.23-1.63Z"/>
  <path class="cls-13" d="M600.73,41.84c0-.36,0-.72,0-1.08,3.15-.03,6.29-.06,9.44-.08.58,0,1.05.21,1.3.78-.31.36-.61.72-.92,1.07-1.16-.6-2.41-.43-3.64-.48-2.06-.07-4.12-.14-6.18-.21Z"/>
  <path class="cls-3" d="M855.07,60.18c0-.41.02-.81.02-1.22,4.83-.68,4.78.69,3.77,4.22-.29,1.03-.07,2.18-.77,3.1-.41.02-.82.04-1.22.07.2-1.44.4-2.87.61-4.31.14-.98-.28-1.48-1.27-1.56-.39-.03-.76-.2-1.14-.3Z"/>
  <path class="cls-13" d="M425.66,65.46c-.38-.03-.76-.07-1.13-.1.76-3.55,1.51-7.1,2.27-10.65.31.02.63.03.94.05-.18,3.67-1.35,7.14-2.08,10.7Z"/>
  <path class="cls-11" d="M400.91,54.69c-.3-.02-.61-.03-.91-.05-.1-3.89.8-7.67,1.21-11.51.37.02.73.03,1.1.05-.46,3.84-.93,7.67-1.39,11.51Z"/>
  <path class="cls-11" d="M201.4,77.92c.3.01.61.03.91.04-.38,3.49-.94,6.95-2.36,10.2-.27-.27-.53-.55-.8-.82.75-3.14,1.5-6.28,2.25-9.42Z"/>
  <path class="cls-11" d="M184.07,87.04c.42,0,.84,0,1.26,0,.41.41.92.57,1.48.56,4.11-.09,8.22-.19,12.33-.28.27.27.53.55.8.82-.23.15-.46.41-.69.42-4.68.07-9.35.12-14.03.14-1.09,0-1.36-.7-1.16-1.67Z"/>
  <path class="cls-11" d="M111.1,79.57c.3.02.6.03.89.05.11,2.48-.91,4.76-1.27,7.16-.1.67-.53,1.23-1.28,1.41-.05-.42-.09-.83-.14-1.25.6-2.46,1.2-4.91,1.8-7.37Z"/>
  <path class="cls-13" d="M609.61,52.19c-.38-.03-.77-.06-1.15-.09.6-2.75.82-5.59,1.84-8.26.34.02.67.05,1.01.07-.57,2.76-1.13,5.51-1.7,8.27Z"/>
  <path class="cls-8" d="M545.26,73.51c0,.32-.02.65-.03.97-2.63-.22-4.82-1.28-6.42-3.43.26-.26.51-.51.77-.77,1.6,1.59,3.65,2.4,5.68,3.23Z"/>
  <path class="cls-9" d="M670.36,41.29c.03-.26.03-.52,0-.77,2.48-.13,4.94-.03,7.4.29,0,.3,0,.6,0,.9-2.47-.14-4.94-.27-7.41-.41Z"/>
  <path class="cls-11" d="M890.05,42.01c-.02-.38-.05-.75-.07-1.13,1.59-.53,3.21-.82,4.89-.7,0,.37.01.73.02,1.1-1.61.24-3.23.48-4.84.72Z"/>
  <path class="cls-11" d="M539.44,89.33c.02-.35.04-.7.05-1.05,1.89.06,3.78.11,5.68.16.01.31.02.62.03.94-1.92.27-3.85.31-5.76-.05Z"/>
  <path class="cls-9" d="M358.61,58.87c.29,0,.58,0,.87,0,.25,1.92.26,3.83-.05,5.74-.3.03-.6.07-.9.1.02-1.95.05-3.9.07-5.85Z"/>
  <path class="cls-6" d="M457.54,48.08c.27,0,.54.02.81.02l-.25,4.1c-.29,0-.57-.02-.86-.02.1-1.37.2-2.73.29-4.1Z"/>
  <path class="cls-7" d="M545.2,89.38c-.01-.31-.02-.62-.03-.94.49-.49,1.08-.54,1.72-.43.02.32.03.64.05.97-.48.54-1.09.53-1.73.4Z"/>
  <path class="cls-10" d="M286.56,74.29c.04.33.07.66.11,1-.83,0-1.66,0-2.48,0,0-.33-.01-.66-.02-.99.8,0,1.6,0,2.39-.01Z"/>
  <path class="cls-2" d="M352.81,45.91c.5.5,1,1,1.5,1.5-.22.26-.45.53-.67.8-.72-.38-1.26-.92-1.64-1.64.27-.22.54-.44.81-.66Z"/>
  <path class="cls-11" d="M611.31,43.92c-.34-.02-.67-.05-1.01-.07.08-.44.17-.88.25-1.31.31-.36.61-.72.92-1.07.33.84.12,1.65-.16,2.46Z"/>
  <path class="cls-11" d="M573.32,43.07c-.41,0-.81,0-1.22,0,.24-.68.48-1.35.73-2.03.29.24.58.47.87.71-.13.44-.25.88-.38,1.32Z"/>
  <path class="cls-12" d="M284.17,74.3c0,.33.01.66.02.99-.39-.09-.78-.18-1.17-.27.24-.29.48-.59.72-.88.18-.05.33,0,.43.16Z"/>
  <path class="cls-3" d="M496.4,74.53c-.63.07-.91-.21-.84-.84.28.28.56.56.84.84Z"/>
  <path class="cls-2" d="M358.54,64.72c.3-.03.6-.07.9-.1.15.45.07.85-.23,1.21-.3-.25-.61-.51-.91-.76,0-.17.08-.28.24-.34Z"/>
  <path class="cls-2" d="M676.18,59.68c.17.38.28.76-.11,1.07-1.97,1.51-4.22,1.78-6.59,1.42-.85-.13-1.39-.94-1.2-1.79.36-1.6.75-3.19,1.22-4.76.6-2.03,1.24-2.47,3.23-2.27.81.08,1.63.22,2.42.43,2.82.76,3.64,3.07,2.05,5.72-.26.43-.66.34-1.05.22.19-.78.44-1.54.55-2.33.1-.71-.18-1.33-.77-1.78-1.3-.99-2.81-1.12-4.26-.66-.97.31-1.05,1.47-1.26,2.39-.21.92-.54,1.82-.67,2.75-.08.61.4,1,1.01,1.01,1.94.04,3.6-1.03,5.43-1.42Z"/>
  <path class="cls-9" d="M151.4,56.06c.05-.27.03-.57.15-.81.39-.77.36-2.22,1.55-1.92.76.19.38,1.47.37,2.27-.04,4.55-.1,9.09-.19,13.64-.06,2.87-.08,2.87-3.12,2.95-.69.02-1.38.02-2.07.02q-3.5-.01-2.15-3.37c.33,0,.66,0,.98,0-.09.53-.17,1.07-.26,1.6-.14.71.28.78.82.68,1.08,0,2.17.01,3.25-.01.78-.02,1.34-.51,1.38-1.22.15-2.83.4-5.67-.04-8.49-.11-.69-.73-.62-1.26-.52.49-.26.62-.65.42-1.16.23.09.6.32.66.25.83-.85.74-1.51-.28-2.64-.07-.42-.15-.85-.22-1.27Z"/>
  <path class="cls-2" d="M146.93,68.83c-.33,0-.66,0-.98,0,1.57-4.36,3.21-8.69,5.45-12.77.07.42.15.85.22,1.27-.13.8-.26,1.59-.39,2.39.19.51.07.9-.43,1.16-.93.88-1.07,2.16-1.63,3.23-.81,1.55-1.09,3.35-2.25,4.73Z"/>
  <path class="cls-10" d="M337.84,72.64c-2.28,2.26-5.01,3.33-8.23,3.07-3.32-.27-5.97-2.6-6.56-5.89-1.36-7.48,3.84-14.15,9.71-15.87,4.07-1.19,9.32,0,10.17,6.57-.3,0-.59.02-.89.03-.27-.62-.57-1.22-.82-1.85-1.15-2.93-4.22-4.57-7.79-3.62-5.35,1.42-9.71,7.56-9.34,13.09.33,4.86,4.42,7.56,9.03,5.87,1.39-.51,2.67-1.36,3.99-2.05.24.22.49.44.73.66Z"/>
  <path class="cls-10" d="M342.87,63.81c-.35,2.81-1.53,5.22-3.47,7.27-.22-.25-.43-.49-.65-.74,1.32-2.07,2.34-4.28,3.18-6.57.31.02.63.03.94.05Z"/>
  <path class="cls-11" d="M342.87,63.81c-.31-.02-.63-.03-.94-.05.04-1.07.07-2.15.11-3.22.3,0,.59-.02.89-.03.23,1.1.24,2.2-.06,3.29Z"/>
  <path class="cls-10" d="M339.4,71.07c-.52.52-1.04,1.04-1.56,1.56-.24-.22-.49-.44-.73-.66.38-.72.93-1.26,1.64-1.65.22.25.43.49.65.74Z"/>
  <path class="cls-5" d="M676.18,59.68c-1.83.4-3.49,1.46-5.43,1.42-.61-.01-1.09-.41-1.01-1.01.13-.93.47-1.83.67-2.75.21-.93.29-2.08,1.26-2.39,1.45-.46,2.96-.34,4.26.66.59.45.87,1.08.77,1.78-.11.79-.36,1.55-.55,2.33,0,0,.03-.03.03-.03Z"/>
  <path class="cls-1" d="M151.23,59.72c.13-.8.26-1.59.39-2.39,1.02,1.13,1.1,1.79.28,2.64-.07.07-.44-.16-.66-.25Z"/>
  <path class="cls-1" d="M146.67,70.43c.27.23.54.46.82.68-.54.09-.95.03-.82-.68Z"/>
</svg>